<?xml version="1.0" encoding="UTF-8"?>
<svg version="1.1" xmlns="http://www.w3.org/2000/svg" width="770" height="298">
<path d="M0 0 C254.1 0 508.2 0 770 0 C770 98.34 770 196.68 770 298 C515.9 298 261.8 298 0 298 C0 199.66 0 101.32 0 0 Z " fill="#030303" transform="translate(0,0)"/>
<path d="M0 0 C1.45019531 0.68255859 1.45019531 0.68255859 2.9296875 1.37890625 C13.90702097 7.17482659 24.96500114 16.37904281 30 28 C30.37125 28.84175781 30.7425 29.68351562 31.125 30.55078125 C33.83354467 37.80178105 34.38843393 44.4963942 34.4375 52.1875 C34.44749023 53.10152588 34.45748047 54.01555176 34.46777344 54.95727539 C34.28399441 69.53226496 27.83052972 81.78295419 17.86328125 92.2421875 C6.30986598 102.90368741 -4.82527948 108.56026486 -20.5625 108.375 C-21.55185547 108.38660156 -22.54121094 108.39820313 -23.56054688 108.41015625 C-29.78281252 108.3853828 -34.30430562 107.48562101 -40 105 C-41.47634615 104.57344734 -42.95498331 104.15458545 -44.4375 103.75 C-55.48958025 100.05333508 -64.70091781 89.80694683 -69.97021484 79.69555664 C-71.39573582 76.82720534 -72.73016434 73.94101834 -74 71 C-74.27811523 70.40123047 -74.55623047 69.80246094 -74.84277344 69.18554688 C-77.31902141 63.42039405 -77.53827206 57.97150689 -77.5 51.75 C-77.49718018 50.73164063 -77.49436035 49.71328125 -77.49145508 48.6640625 C-77.31919762 40.65184936 -75.90103769 35.03285668 -72 28 C-71.32904297 26.29650391 -71.32904297 26.29650391 -70.64453125 24.55859375 C-65.7992441 14.07389875 -54.37036833 4.13652151 -43.8515625 -0.33984375 C-29.84845481 -5.19771197 -13.59469963 -6.72982647 0 0 Z " fill="#0A0A0A" transform="translate(237,99)"/>
<path d="M0 0 C1.26432861 -0.0007251 1.26432861 -0.0007251 2.55419922 -0.00146484 C8.52141836 0.15924887 12.57055044 1.19408672 17.2890625 5.0546875 C19.68331246 7.63619723 20.00246537 9.81084865 20.25 13.25 C20.33378906 14.07886719 20.41757813 14.90773438 20.50390625 15.76171875 C19.37007708 19.65145807 17.60800461 21.61372442 14.48413086 24.15991211 C8.54761567 27.13723902 1.66209719 26.26361672 -4.8125 26 C-6.31763561 25.96483479 -7.82285048 25.93290494 -9.328125 25.90429688 C-12.99124806 25.82769428 -16.65136095 25.70720277 -20.3125 25.5625 C-20.23189409 29.18842996 -20.11903183 32.81264402 -20 36.4375 C-19.97744141 37.47003906 -19.95488281 38.50257813 -19.93164062 39.56640625 C-19.8784668 41.04560547 -19.8784668 41.04560547 -19.82421875 42.5546875 C-19.79803467 43.46589355 -19.77185059 44.37709961 -19.74487305 45.31591797 C-19.60218994 46.05729004 -19.45950684 46.79866211 -19.3125 47.5625 C-18.3225 48.2225 -17.3325 48.8825 -16.3125 49.5625 C-16.3125 50.2225 -16.3125 50.8825 -16.3125 51.5625 C-12.6825 51.5625 -9.0525 51.5625 -5.3125 51.5625 C-5.374375 49.850625 -5.43625 48.13875 -5.5 46.375 C-5.5 41.89282803 -5.29670806 39.09933918 -2.3125 35.5625 C-1.90257812 35.0365625 -1.49265625 34.510625 -1.0703125 33.96875 C2.1219789 31.41491688 5.80194611 32.04728817 9.7265625 32.1328125 C14.14150812 32.77350382 15.7735333 34.25475402 18.6875 37.5625 C20.29475691 40.77701382 20.16147924 44.07583076 19.6875 47.5625 C17.61194009 51.4912384 15.50381081 54.28331438 11.6875 56.5625 C8.671875 56.85546875 8.671875 56.85546875 5.4375 56.75 C3.82101563 56.70939453 3.82101563 56.70939453 2.171875 56.66796875 C1.35203125 56.63316406 0.5321875 56.59835938 -0.3125 56.5625 C-0.35375 57.3875 -0.395 58.2125 -0.4375 59.0625 C-2.24429969 66.28969877 -7.42902721 71.62959448 -13.6875 75.48828125 C-19.47075824 77.85494199 -25.90717629 77.85794417 -31.74609375 75.63671875 C-38.1000355 71.94927051 -42.64574463 66.38848463 -45.3125 59.5625 C-45.66932254 55.76210308 -45.59593257 52.00020456 -45.5 48.1875 C-45.47969727 46.65416016 -45.47969727 46.65416016 -45.45898438 45.08984375 C-45.42380217 42.58017951 -45.37457539 40.0716191 -45.3125 37.5625 C-44.6525 37.5625 -43.9925 37.5625 -43.3125 37.5625 C-43.291875 36.551875 -43.27125 35.54125 -43.25 34.5 C-42.51715304 29.41135843 -39.25948782 26.58124365 -35.3125 23.5625 C-32.01918311 21.66044147 -29.17461842 20.5625 -25.3125 20.5625 C-25.333125 19.61375 -25.35375 18.665 -25.375 17.6875 C-24.54819285 11.72962494 -19.62671516 7.38843965 -15.3125 3.5625 C-10.2760958 0.29896797 -5.83480824 -0.01491105 0 0 Z " fill="#E1E1E1" transform="translate(228.3125,112.4375)"/>
<path d="M0 0 C1.45019531 0.68255859 1.45019531 0.68255859 2.9296875 1.37890625 C13.90702097 7.17482659 24.96500114 16.37904281 30 28 C30.37125 28.84175781 30.7425 29.68351562 31.125 30.55078125 C33.83354467 37.80178105 34.38843393 44.4963942 34.4375 52.1875 C34.44749023 53.10152588 34.45748047 54.01555176 34.46777344 54.95727539 C34.28399441 69.53226496 27.83052972 81.78295419 17.86328125 92.2421875 C6.30986598 102.90368741 -4.82527948 108.56026486 -20.5625 108.375 C-21.55185547 108.38660156 -22.54121094 108.39820313 -23.56054688 108.41015625 C-29.78281252 108.3853828 -34.30430562 107.48562101 -40 105 C-41.47634615 104.57344734 -42.95498331 104.15458545 -44.4375 103.75 C-55.48958025 100.05333508 -64.70091781 89.80694683 -69.97021484 79.69555664 C-71.39573582 76.82720534 -72.73016434 73.94101834 -74 71 C-74.27811523 70.40123047 -74.55623047 69.80246094 -74.84277344 69.18554688 C-77.31902141 63.42039405 -77.53827206 57.97150689 -77.5 51.75 C-77.49718018 50.73164063 -77.49436035 49.71328125 -77.49145508 48.6640625 C-77.31919762 40.65184936 -75.90103769 35.03285668 -72 28 C-71.32904297 26.29650391 -71.32904297 26.29650391 -70.64453125 24.55859375 C-65.7992441 14.07389875 -54.37036833 4.13652151 -43.8515625 -0.33984375 C-29.84845481 -5.19771197 -13.59469963 -6.72982647 0 0 Z M-41 4 C-41.87398437 4.37898438 -42.74796875 4.75796875 -43.6484375 5.1484375 C-56.18147574 11.2218706 -65.54300484 21.8846117 -70.421875 34.84765625 C-73.94452299 47.96237952 -73.79577641 63.13734747 -67 75 C-66.45730469 75.96550781 -65.91460937 76.93101562 -65.35546875 77.92578125 C-62.02555913 83.48064177 -58.31512012 89.14522229 -53 93 C-52.01 93 -51.02 93 -50 93 C-50 93.66 -50 94.32 -50 95 C-42.03206353 101.63994705 -32.41283679 103.36255852 -22.3125 103.4375 C-21.52915283 103.44749023 -20.74580566 103.45748047 -19.9387207 103.46777344 C-6.81281332 103.27484671 6.2322357 96.62941185 15.60546875 87.6953125 C23.97171373 78.27816889 29.42254391 68.45291773 29.1875 55.625 C29.17887939 54.87476563 29.17025879 54.12453125 29.16137695 53.3515625 C28.92586027 38.78430234 26.34042239 27.42611166 15.71875 16.6953125 C9.65055915 10.67363744 9.65055915 10.67363744 2 8 C2 7.34 2 6.68 2 6 C1.14535156 5.72285156 0.29070312 5.44570312 -0.58984375 5.16015625 C-1.69457031 4.79792969 -2.79929687 4.43570313 -3.9375 4.0625 C-5.03964844 3.70285156 -6.14179688 3.34320313 -7.27734375 2.97265625 C-10 2 -10 2 -11 1 C-20.85218719 0.11350463 -31.8996516 -0.21252877 -41 4 Z " fill="#DFDFDF" transform="translate(237,99)"/>
<path d="M0 0 C5.57330197 1.88493759 9.39345954 5.78691908 12 11 C12.72044378 17.43839633 13.17309141 23.31498671 9.25 28.75 C7.02505169 31.42443281 5.44001921 32.431649 2 33 C2 33.66 2 34.32 2 35 C-1.95805066 36.97902533 -6.67748541 36.38205977 -10.8125 35.1875 C-12.99934984 34.00035294 -14.45747437 32.94845343 -16 31 C-16 30.34 -16 29.68 -16 29 C-16.66 29 -17.32 29 -18 29 C-18 34.94 -18 40.88 -18 47 C-19.65 47 -21.3 47 -23 47 C-23 31.82 -23 16.64 -23 1 C-21.35 1 -19.7 1 -18 1 C-18 2.65 -18 4.3 -18 6 C-17.34 6 -16.68 6 -16 6 C-15.731875 5.38125 -15.46375 4.7625 -15.1875 4.125 C-11.97468766 -1.62424314 -5.72950874 -0.64907721 0 0 Z " fill="#DCDCDC" transform="translate(572,136)"/>
<path d="M0 0 C0 0.66 0 1.32 0 2 C0.5775 2.226875 1.155 2.45375 1.75 2.6875 C5.14222063 4.66629537 7.25493471 7.50986942 9 11 C9.76635019 17.87202545 9.12614152 22.42413308 5 28 C0.69230769 32 0.69230769 32 -2 32 C-2 32.66 -2 33.32 -2 34 C-14.53218884 34.61802575 -14.53218884 34.61802575 -19.5625 32.5 C-24.60231686 27.33095707 -27.29138818 23.3418291 -27.625 15.9375 C-27.36258962 10.31340724 -26.16563874 6.81495997 -22 3 C-15.64302387 -2.05963406 -7.68702879 -2.56234293 0 0 Z " fill="#E4E4E4" transform="translate(496,137)"/>
<path d="M0 0 C0.01401855 0.90709717 0.01401855 0.90709717 0.02832031 1.83251953 C0.08231722 4.5974788 0.16590394 7.36079906 0.25 10.125 C0.26417969 11.07632813 0.27835938 12.02765625 0.29296875 13.0078125 C0.49884543 18.93706083 1.04979473 22.48444425 5 27 C9.21899067 29.7189051 13.03836296 30.5038363 18 31 C17.54625711 35.87773605 16.47822112 38.52177888 13 42 C7.80206308 45.67658953 2.15416454 45.97219291 -4 45 C-8.66925025 42.75645881 -11.47975322 38.38709625 -14 34 C-16.38966486 27.11586612 -16.13174083 16.13919194 -13.8125 9.3125 C-11.57433085 5.22205292 -9.35374037 1.89995955 -4.875 0.1875 C-3 0 -3 0 0 0 Z " fill="#0B0B0B" transform="translate(203,139)"/>
<path d="M0 0 C2.0321722 1.89322025 2.47401857 2.98830907 2.828125 5.703125 C0.828125 6.515625 0.828125 6.515625 -2.171875 6.703125 C-3.86328125 5.65625 -3.86328125 5.65625 -5.734375 4.265625 C-10.17106172 1.28826435 -13.97081708 0.86118207 -19.2578125 1.08203125 C-25.07908494 2.32275822 -28.52751691 6.16807295 -31.671875 11.015625 C-32.82737177 17.22642014 -32.46976511 23.53814698 -31.171875 29.703125 C-30.181875 30.033125 -29.191875 30.363125 -28.171875 30.703125 C-27.5325 31.528125 -26.893125 32.353125 -26.234375 33.203125 C-23.56401014 36.4399309 -21.85340123 36.53386246 -17.8046875 36.94140625 C-12.04784898 37.11177998 -8.62480929 36.73197031 -4.171875 32.703125 C-1.90437774 29.70022322 -0.36021051 27.26813152 0.828125 23.703125 C-3.461875 23.703125 -7.751875 23.703125 -12.171875 23.703125 C-12.171875 22.053125 -12.171875 20.403125 -12.171875 18.703125 C-6.231875 18.703125 -0.291875 18.703125 5.828125 18.703125 C6.35559432 26.2986832 5.79148547 30.80648307 0.828125 36.703125 C-2.453125 39.703125 -2.453125 39.703125 -5.171875 39.703125 C-5.501875 40.693125 -5.831875 41.683125 -6.171875 42.703125 C-24.89170969 43.42209447 -24.89170969 43.42209447 -31.16796875 37.96875 C-37.63462035 31.03155203 -39.87413224 24.45608902 -39.65625 15 C-38.69739958 8.47363099 -35.25143757 3.83600969 -30.734375 -0.796875 C-20.9161202 -6.5441461 -9.46387622 -6.04466933 0 0 Z " fill="#E3E3E3" transform="translate(435.171875,128.296875)"/>
<path d="M0 0 C3.46069403 1.69888616 5.36595034 2.96246419 7.375 6.25 C8.72789435 12.20273516 8.90966684 16.25353238 5.6875 21.5 C3.6260847 23.99333089 2.49661376 24.88092886 -0.671875 25.640625 C-5.19316316 25.81170077 -8.13545332 25.51167048 -12.0625 23.1875 C-16.26638541 18.44117776 -16.61991281 15.14784824 -16.5 8.96484375 C-15.95682945 5.74401211 -15.3876375 4.49440356 -13.0625 2.25 C-8.87686604 -0.61385481 -4.91108594 -1.04472192 0 0 Z " fill="#0B0B0B" transform="translate(491,141)"/>
<path d="M0 0 C4.28078446 1.11464515 7.15301566 2.7868356 9.4453125 6.63671875 C10.43104734 11.59438516 10.11553509 15.94352484 8.2578125 20.63671875 C6.02017834 23.1058323 4.57938542 24.41034239 1.4453125 25.63671875 C-3.17115935 25.84655838 -6.5782507 25.25997628 -10.4921875 22.76171875 C-13.40160873 19.76413324 -14.88938789 17.60105038 -15.1171875 13.44921875 C-14.97909788 8.49423828 -13.19713915 5.60702922 -9.75 2.125 C-6.47185835 -0.09737005 -3.89748049 -0.36352647 0 0 Z " fill="#0C0C0C" transform="translate(568.5546875,140.36328125)"/>
<path d="M0 0 C1.65 0 3.3 0 5 0 C5.0093457 0.70084717 5.01869141 1.40169434 5.02832031 2.1237793 C5.08214544 5.31239025 5.16576936 8.49955333 5.25 11.6875 C5.26417969 12.79029297 5.27835938 13.89308594 5.29296875 15.02929688 C5.45945568 21.40308972 5.45945568 21.40308972 7.80078125 27.23046875 C10.44049968 29.35443403 12.54561031 29.59732824 15.90234375 29.6640625 C19.51666574 28.51986373 20.78904455 27.10962611 23 24 C23.75597081 19.89992139 23.79061226 15.84860224 23.8125 11.6875 C23.83763672 10.56537109 23.86277344 9.44324219 23.88867188 8.28710938 C23.9474532 5.52438714 23.9837998 2.76324608 24 0 C25.98 0 27.96 0 30 0 C30 11.55 30 23.1 30 35 C28.02 35 26.04 35 24 35 C23.67 34.01 23.34 33.02 23 32 C22.401875 32.495 21.80375 32.99 21.1875 33.5 C16.49467992 35.70838592 12.09861624 35.82804595 7 35 C3.55512827 32.46907383 1.585916 29.92959571 0 26 C-0.22705078 23.15917969 -0.22705078 23.15917969 -0.1953125 19.921875 C-0.18886719 18.76171875 -0.18242187 17.6015625 -0.17578125 16.40625 C-0.15902344 15.1996875 -0.14226562 13.993125 -0.125 12.75 C-0.11597656 11.52796875 -0.10695313 10.3059375 -0.09765625 9.046875 C-0.07409513 6.03105218 -0.04119706 3.01562508 0 0 Z " fill="#EEEEEE" transform="translate(511,136)"/>
<path d="M0 0 C8.58 0 17.16 0 26 0 C26 1.65 26 3.3 26 5 C19.4 5 12.8 5 6 5 C6 10.28 6 15.56 6 21 C11.61 21 17.22 21 23 21 C23 22.32 23 23.64 23 25 C17.39 25 11.78 25 6 25 C6 32.26 6 39.52 6 47 C4.02 47 2.04 47 0 47 C0 31.49 0 15.98 0 0 Z " fill="#E1E1E1" transform="translate(300,124)"/>
<path d="M0 0 C1.98 0 3.96 0 6 0 C14.59469961 16.55275481 14.59469961 16.55275481 16 25 C19.39103745 21.76310062 21.16911852 18.83100883 22.375 14.3125 C25.47530864 3.52469136 25.47530864 3.52469136 29 0 C30.66617115 -0.04063832 32.33388095 -0.042721 34 0 C33.45613657 4.40270396 32.36700613 7.61518463 30.25 11.5 C27.31306126 17.1420139 25.21404882 22.86258502 23.15625 28.87109375 C22.21978928 31.40523239 21.25950652 33.57273348 19.875 35.875 C17.70240448 39.49599253 16.39592901 43.02160233 15 47 C13.35 47 11.7 47 10 47 C10.45572188 44.34162239 10.98130945 42.04287831 12.0625 39.5625 C13.49229182 35.65440235 13.79469321 32.77656622 12.0546875 28.88671875 C11.19232985 27.22979887 10.32054723 25.57776375 9.44140625 23.9296875 C6.20582819 17.35330932 3.62200849 10.15799398 2 3 C1.34 3 0.68 3 0 3 C0 2.01 0 1.02 0 0 Z " fill="#E3E3E3" transform="translate(343,136)"/>
<path d="M0 0 C0.81146484 -0.02900391 1.62292969 -0.05800781 2.45898438 -0.08789062 C8.42278414 -0.15149144 8.42278414 -0.15149144 11.59375 2.1484375 C13.63017616 5.14891647 13.71566665 6.75637047 13.0625 10.3125 C10.46316978 13.59334541 9.01142734 15.14572579 4.83276367 15.88012695 C3.64400635 15.85394287 2.45524902 15.82775879 1.23046875 15.80078125 C-0.06181641 15.78466797 -1.35410156 15.76855469 -2.68554688 15.75195312 C-4.04038157 15.71018274 -5.39519928 15.66785809 -6.75 15.625 C-8.12430866 15.59990069 -9.49866116 15.57709036 -10.87304688 15.55664062 C-14.22897976 15.49776461 -17.5826809 15.4155642 -20.9375 15.3125 C-20.04071112 7.59966781 -20.04071112 7.59966781 -16.0625 4.4375 C-15.36382812 3.86257812 -14.66515625 3.28765625 -13.9453125 2.6953125 C-9.58182459 -0.30989123 -5.08617806 0.06031041 0 0 Z " fill="#111111" transform="translate(229.9375,117.6875)"/>
<path d="M0 0 C1.98 0 3.96 0 6 0 C6 15.51 6 31.02 6 47 C4.02 47 2.04 47 0 47 C0 31.49 0 15.98 0 0 Z " fill="#E1E1E1" transform="translate(332,124)"/>
<path d="M0 0 C1.65 0 3.3 0 5 0 C5 1.65 5 3.3 5 5 C6.32 4.67 7.64 4.34 9 4 C8.45276317 7.37462715 7.9451 9.08235 6 12 C5.25807389 17.62990987 6.18972648 22.68232152 8 28 C7.01 28 6.02 28 5 28 C5 33.94 5 39.88 5 46 C3.35 46 1.7 46 0 46 C0 30.82 0 15.64 0 0 Z " fill="#F1F1F1" transform="translate(549,137)"/>
<path d="M0 0 C0 1.65 0 3.3 0 5 C-1.0725 5.2475 -2.145 5.495 -3.25 5.75 C-7.62676261 7.20892087 -9.93466288 8.86932575 -12 13 C-12.15175549 14.59262066 -12.24900325 16.19064856 -12.31640625 17.7890625 C-12.35830078 18.73007813 -12.40019531 19.67109375 -12.44335938 20.640625 C-12.50233398 22.11789063 -12.50233398 22.11789063 -12.5625 23.625 C-12.60568359 24.61757812 -12.64886719 25.61015625 -12.69335938 26.6328125 C-12.79961069 29.08839838 -12.90164964 31.54408703 -13 34 C-14.65 34 -16.3 34 -18 34 C-18 23.11 -18 12.22 -18 1 C-16.35 1 -14.7 1 -13 1 C-13 2.98 -13 4.96 -13 7 C-12.34 7 -11.68 7 -11 7 C-10.938125 6.21625 -10.87625 5.4325 -10.8125 4.625 C-10 2 -10 2 -7.75 0.6875 C-5.03756762 0.0093919 -2.78200967 -0.15897198 0 0 Z " fill="#F3F3F3" transform="translate(467,136)"/>
<path d="M0 0 C2.9375 2.0625 2.9375 2.0625 5 5 C5.0625 8.625 5.0625 8.625 4 12 C1.78938567 14.16093761 0.51398017 14.94159316 -2.578125 15.29296875 C-3.45984375 15.25816406 -4.3415625 15.22335938 -5.25 15.1875 C-6.14203125 15.16042969 -7.0340625 15.13335937 -7.953125 15.10546875 C-8.62859375 15.07066406 -9.3040625 15.03585938 -10 15 C-10.61919654 5.02405581 -10.61919654 5.02405581 -8.375 1.3125 C-5.22091596 -0.43054644 -3.55483933 -0.65292967 0 0 Z " fill="#151515" transform="translate(238,149)"/>
<path d="M0 0 C1.32 0 2.64 0 4 0 C4 10.56 4 21.12 4 32 C2.68 32 1.36 32 0 32 C0 30.35 0 28.7 0 27 C-0.66 27 -1.32 27 -2 27 C-2 26.01 -2 25.02 -2 24 C-1.34 24 -0.68 24 0 24 C0 16.08 0 8.16 0 0 Z " fill="#FBFBFB" transform="translate(536,138)"/>
<path d="M0 0 C1.98 0 3.96 0 6 0 C6 11.55 6 23.1 6 35 C4.02 35 2.04 35 0 35 C-0.66 33.35 -1.32 31.7 -2 30 C-2.99 30.33 -3.98 30.66 -5 31 C-7.33299825 31.03954234 -9.66708189 31.04401732 -12 31 C-12 30.67 -12 30.34 -12 30 C-10.01432292 29.609375 -8.02864583 29.21875 -6.04296875 28.828125 C-3.32064362 27.72462036 -2.52539084 26.49917999 -1 24 C-0.49967042 21.30035844 -0.49967042 21.30035844 -0.48828125 18.359375 C-0.45283203 17.28945312 -0.41738281 16.21953125 -0.38085938 15.1171875 C-0.35830078 14.00601563 -0.33574219 12.89484375 -0.3125 11.75 C-0.27833984 10.62335938 -0.24417969 9.49671875 -0.20898438 8.3359375 C-0.12656986 5.55739099 -0.05739702 2.77915748 0 0 Z M1 2 C1 9.92 1 17.84 1 26 C0.34 26 -0.32 26 -1 26 C-1 26.99 -1 27.98 -1 29 C-0.34 29 0.32 29 1 29 C1 30.65 1 32.3 1 34 C2.32 34 3.64 34 5 34 C5 23.44 5 12.88 5 2 C3.68 2 2.36 2 1 2 Z " fill="#AEAEAE" transform="translate(535,136)"/>
<path d="M0 0 C0 1.65 0 3.3 0 5 C-1.60875 5.37125 -1.60875 5.37125 -3.25 5.75 C-7.05080969 7.01693656 -8.47461222 8.00694781 -11 11 C-11.66 11.66 -12.32 12.32 -13 13 C-13 11.02 -13 9.04 -13 7 C-12.34 7 -11.68 7 -11 7 C-10.938125 6.21625 -10.87625 5.4325 -10.8125 4.625 C-10 2 -10 2 -7.75 0.6875 C-5.03756762 0.0093919 -2.78200967 -0.15897198 0 0 Z " fill="#D8D8D8" transform="translate(467,136)"/>
<path d="M0 0 C-1.57630677 3.87321093 -4.07747669 6.24735163 -7.0625 9.125 C-10.46453483 12.24105765 -10.46453483 12.24105765 -13 16 C-13.66 16 -14.32 16 -15 16 C-12.82471242 11.17559981 -5.61564686 0 0 0 Z " fill="#C9C9C9" transform="translate(183,106)"/>
<path d="M0 0 C0.66 0.33 1.32 0.66 2 1 C1.43410156 1.54269531 0.86820312 2.08539063 0.28515625 2.64453125 C-0.44832031 3.35996094 -1.18179687 4.07539063 -1.9375 4.8125 C-2.66839844 5.52019531 -3.39929688 6.22789062 -4.15234375 6.95703125 C-7.33759645 10.47899143 -7.11144424 13.63568594 -7.0625 18.1875 C-7.05347656 19.27417969 -7.04445313 20.36085937 -7.03515625 21.48046875 C-7.02355469 22.31191406 -7.01195312 23.14335937 -7 24 C-9.63827703 21.36172297 -9.35901928 19.99186086 -9.4375 16.3125 C-9.35822626 11.22678473 -8.68721592 8.20034481 -5.37890625 4.3359375 C-3.69195557 2.70155469 -1.98968349 1.25276368 0 0 Z " fill="#B5B5B5" transform="translate(478,137)"/>
<path d="M0 0 C4.29 0.33 8.58 0.66 13 1 C12.54177532 4.46941546 12.10868317 7.67395049 11 11 C10.34 11 9.68 11 9 11 C9.66 8.36 10.32 5.72 11 3 C9.9275 3.04125 8.855 3.0825 7.75 3.125 C4.34252515 3.0114175 2.79260369 2.78726636 0 1 C0 0.67 0 0.34 0 0 Z " fill="#7A7A7A" transform="translate(210,167)"/>
<path d="M0 0 C2.6875 -0.3125 2.6875 -0.3125 5 0 C5 1.65 5 3.3 5 5 C2.36 5 -0.28 5 -3 5 C-1.8125 2.5 -1.8125 2.5 0 0 Z " fill="#E6E6E6" transform="translate(462,136)"/>
<path d="M0 0 C-1.51398455 3.78496138 -2.0144396 4.0072198 -6 6 C-6 9.63 -6 13.26 -6 17 C-6.33 17 -6.66 17 -7 17 C-7.76118977 6.39408914 -7.76118977 6.39408914 -5.95703125 3.08984375 C-4.07351537 1.19528086 -2.73715502 0 0 0 Z " fill="#3D3D3D" transform="translate(482,142)"/>
<path d="M0 0 C0.66 0.33 1.32 0.66 2 1 C0.92807816 2.3218362 -0.15802695 3.63217927 -1.25 4.9375 C-1.85328125 5.66839844 -2.4565625 6.39929688 -3.078125 7.15234375 C-5.10741134 9.10326334 -6.254407 9.61731779 -9 10 C-8.06409496 8.8944811 -7.12620142 7.79064547 -6.1875 6.6875 C-5.66542969 6.07261719 -5.14335937 5.45773438 -4.60546875 4.82421875 C-3.12827531 3.14575321 -1.59960869 1.56117966 0 0 Z " fill="#373737" transform="translate(185,109)"/>
<path d="M0 0 C2.875 -0.1875 2.875 -0.1875 6 0 C8 3 8 3 7.625 5.1875 C7.41875 5.785625 7.2125 6.38375 7 7 C6.67 5.35 6.34 3.7 6 2 C4.02 2.33 2.04 2.66 0 3 C0 2.01 0 1.02 0 0 Z " fill="#9E9E9E" transform="translate(343,136)"/>
<path d="M0 0 C0.66 0.33 1.32 0.66 2 1 C-0.31 3.64 -2.62 6.28 -5 9 C-5.33 8.01 -5.66 7.02 -6 6 C-4.02 4.02 -2.04 2.04 0 0 Z " fill="#CDCDCD" transform="translate(213,116)"/>
<path d="M0 0 C1.125 3.75 1.125 3.75 0 6 C0.66 6.33 1.32 6.66 2 7 C0.71034824 8.37562854 -0.62689293 9.70766393 -2 11 C-2.66 11 -3.32 11 -4 11 C-3.52269162 9.5410574 -3.04308958 8.08286504 -2.5625 6.625 C-2.29566406 5.81289062 -2.02882813 5.00078125 -1.75390625 4.1640625 C-1 2 -1 2 0 0 Z " fill="#3F3F3F" transform="translate(370,152)"/>
<path d="M0 0 C-1.49097658 3.7952131 -3.75700849 5.61042731 -7 8 C-7 5 -7 5 -4.625 2.3125 C-2 0 -2 0 0 0 Z " fill="#3B3B3B" transform="translate(198,140)"/>
<path d="M0 0 C0 0.33 0 0.66 0 1 C-0.928125 1.268125 -1.85625 1.53625 -2.8125 1.8125 C-5.8311641 2.93710035 -6.9155143 3.70706573 -9 6 C-9.66 6 -10.32 6 -11 6 C-8.60159776 0.46522561 -5.82500047 -0.25888891 0 0 Z " fill="#474747" transform="translate(467,141)"/>
<path d="M0 0 C2 2 2 2 2 5 C2.99 4.67 3.98 4.34 5 4 C4.67 5.32 4.34 6.64 4 8 C3.01 8 2.02 8 1 8 C0.67 5.36 0.34 2.72 0 0 Z " fill="#9B9B9B" transform="translate(357,156)"/>
<path d="M0 0 C0.66 0.33 1.32 0.66 2 1 C0.02 3.31 -1.96 5.62 -4 8 C-4.33 7.01 -4.66 6.02 -5 5 C-3.35 3.35 -1.7 1.7 0 0 Z " fill="#CCCCCC" transform="translate(193,136)"/>
</svg>
