<?xml version="1.0" encoding="UTF-8"?>
<svg version="1.1" xmlns="http://www.w3.org/2000/svg" width="855" height="381">
<path d="M0 0 C282.15 0 564.3 0 855 0 C855 125.73 855 251.46 855 381 C572.85 381 290.7 381 0 381 C0 255.27 0 129.54 0 0 Z " fill="#030303" transform="translate(0,0)"/>
<path d="M0 0 C1.134375 0.020625 2.26875 0.04125 3.4375 0.0625 C7.89407967 8.67707956 12.00745854 17.1847528 15.3515625 26.296875 C16.2754426 28.64977827 17.26767517 30.71371344 18.5625 32.875 C20.29773473 35.82489905 21.41348735 38.69734767 22.58544922 41.89770508 C23.96006344 45.3901705 25.70422555 48.67505053 27.4375 52 C34.4375 65.71204545 34.4375 65.71204545 34.4375 72.0625 C35.7575 72.0625 37.0775 72.0625 38.4375 72.0625 C38.4375 48.3025 38.4375 24.5425 38.4375 0.0625 C80.05654762 0.0625 80.05654762 0.0625 91.74609375 11.27734375 C100.01024344 20.39065378 102.98892984 28.02098096 102.68359375 40.375 C101.9931027 50.72140557 96.93127401 60.25257624 89.1875 67.125 C87.28861888 68.68900092 85.63607078 69.96321461 83.4375 71.0625 C87.0675 71.3925 90.6975 71.7225 94.4375 72.0625 C94.7778125 70.886875 94.7778125 70.886875 95.125 69.6875 C96.48316793 65.93636952 98.16604815 62.53867319 100.0234375 59.015625 C101.19689338 56.56498234 102.21883962 54.13925546 103.2109375 51.61328125 C105.8282931 44.98322078 108.76024823 38.49759033 111.6875 32 C111.97241302 31.36575104 112.25732605 30.73150208 112.5508728 30.07803345 C117.0690612 20.02026486 121.67405723 10.00672645 126.4375 0.0625 C128.7475 0.0625 131.0575 0.0625 133.4375 0.0625 C137.14410281 6.16656505 139.77468088 12.38181041 142.25390625 19.0703125 C143.18384599 21.42124926 144.11552377 23.42822513 145.4375 25.5625 C147.38127863 28.70064864 148.5931367 31.97926443 149.875 35.4375 C151.34451043 39.38624583 152.86904235 43.05310597 155 46.6875 C157.93092374 51.68676549 161.4375 58.16081447 161.4375 64.0625 C162.0975 64.0625 162.7575 64.0625 163.4375 64.0625 C163.4375 42.9425 163.4375 21.8225 163.4375 0.0625 C166.7375 0.0625 170.0375 0.0625 173.4375 0.0625 C173.9325 1.3825 174.4275 2.7025 174.9375 4.0625 C177.05658704 9.36393529 179.56912423 14.43239467 182.14892578 19.51879883 C184.95237431 25.05777662 187.65471653 30.63972463 190.3125 36.25 C190.8842395 37.45257446 190.8842395 37.45257446 191.4675293 38.67944336 C196.4375 49.19863803 196.4375 49.19863803 196.4375 54.0625 C197.0975 54.0625 197.7575 54.0625 198.4375 54.0625 C199.4275 57.3625 200.4175 60.6625 201.4375 64.0625 C202.0975 64.0625 202.7575 64.0625 203.4375 64.0625 C203.80875 62.3609375 203.80875 62.3609375 204.1875 60.625 C205.59130036 55.00979858 207.77881471 49.69851842 210.86450195 44.79467773 C212.48941364 41.97232996 213.59336888 39.23122892 214.703125 36.171875 C217.26791527 29.3542241 220.22083183 22.76179974 223.31396484 16.17382812 C224.20533716 14.27449259 225.08940838 12.37187542 225.97265625 10.46875 C230.29044606 1.20955394 230.29044606 1.20955394 231.4375 0.0625 C234.7375 0.0625 238.0375 0.0625 241.4375 0.0625 C241.4375 23.4925 241.4375 46.9225 241.4375 71.0625 C246.7175 71.0625 251.9975 71.0625 257.4375 71.0625 C257.4375 72.7125 257.4375 74.3625 257.4375 76.0625 C248.8575 76.0625 240.2775 76.0625 231.4375 76.0625 C231.1075 56.2625 230.7775 36.4625 230.4375 16.0625 C227.81615684 20.39958146 227.81615684 20.39958146 226.0078125 24.8671875 C224.19759391 29.89662143 221.72691866 34.52595951 219.22265625 39.23828125 C217.17907432 43.1953294 215.90018778 46.56180974 215.4375 51.0625 C214.7775 51.0625 214.1175 51.0625 213.4375 51.0625 C213.1075 52.2175 212.7775 53.3725 212.4375 54.5625 C209.96195419 62.0857441 206.06268917 69.04461598 202.4375 76.0625 C200.4575 76.0625 198.4775 76.0625 196.4375 76.0625 C194.85026083 72.60594659 193.26844832 69.14693467 191.6875 65.6875 C191.2440625 64.72199219 190.800625 63.75648438 190.34375 62.76171875 C188.21415214 58.09539402 186.16041124 53.42945618 184.30078125 48.6484375 C182.94554699 45.20105606 181.44366184 42.15170168 179.375 39.0625 C176.77383738 34.91893944 175.31214867 31.03552232 174.17578125 26.2890625 C173.3334688 23.7487551 172.05350977 22.18172293 170.4375 20.0625 C169.4475 17.5875 169.4475 17.5875 168.4375 15.0625 C168.1075 35.1925 167.7775 55.3225 167.4375 76.0625 C164.1375 76.0625 160.8375 76.0625 157.4375 76.0625 C154.81194006 70.96141212 152.32886254 65.90182251 150.19921875 60.57421875 C146.79984297 52.34348411 142.68057722 44.4841426 138.609375 36.57226562 C135.0937001 29.65173602 132.06680676 22.82331905 129.48046875 15.50952148 C128.68790852 12.91792969 128.68790852 12.91792969 126.4375 12.0625 C125.16513166 14.74928256 123.89456835 17.43689468 122.625 20.125 C122.26857422 20.87716797 121.91214844 21.62933594 121.54492188 22.40429688 C116.90889608 31.87920228 116.90889608 31.87920228 114.4375 42.0625 C113.7775 42.0625 113.1175 42.0625 112.4375 42.0625 C112.19 43.073125 111.9425 44.08375 111.6875 45.125 C110.90698574 47.91014442 109.88658761 50.16248637 108.375 52.625 C106.50107955 55.94969757 105.80415481 58.3042882 105.4375 62.0625 C104.7775 62.0625 104.1175 62.0625 103.4375 62.0625 C103.2828125 63.7021875 103.2828125 63.7021875 103.125 65.375 C102.425568 69.12649892 102.17755005 69.76085795 99.4375 72.0625 C98.4475 74.0425 98.4475 74.0425 97.4375 76.0625 C86.2175 76.0625 74.9975 76.0625 63.4375 76.0625 C63.4375 74.4125 63.4375 72.7625 63.4375 71.0625 C64.47197266 70.95035156 64.47197266 70.95035156 65.52734375 70.8359375 C73.73241422 69.68790295 80.1252627 67.4409081 85.2578125 60.65625 C91.99339514 49.85328654 92.67872061 39.25711761 90.875 26.75 C88.94415891 18.85588099 84.3573174 12.7265357 77.4375 8.5 C68.04815367 4.85438768 68.04815367 4.85438768 47.4375 5.0625 C47.4375 28.4925 47.4375 51.9225 47.4375 76.0625 C40.8375 76.0625 34.2375 76.0625 27.4375 76.0625 C23.51101656 69.21398238 20.38229196 62.52941119 17.65625 55.12890625 C16.26142823 51.6194989 14.52335566 48.48042626 12.6171875 45.23046875 C11.36692166 42.93279478 10.42862592 40.63185832 9.5 38.1875 C7.69761508 33.4735702 5.36682236 29.20993509 2.890625 24.8203125 C1.03856277 21.3053772 -0.36012142 17.69542992 -1.703125 13.9609375 C-2.40554101 11.87831147 -2.40554101 11.87831147 -4.5625 11.0625 C-4.67980469 11.75601563 -4.79710937 12.44953125 -4.91796875 13.1640625 C-6.73102479 21.31732058 -10.28685307 28.93642178 -14.5625 36.0625 C-15.59351947 38.38229381 -16.59186517 40.71679915 -17.5625 43.0625 C-18.24518962 44.62710774 -18.93288126 46.1895404 -19.625 47.75 C-19.94597656 48.47574219 -20.26695312 49.20148438 -20.59765625 49.94921875 C-21.24412758 51.36517418 -21.93129134 52.76320354 -22.65625 54.140625 C-23.73232285 56.17827267 -23.73232285 56.17827267 -24 59.125 C-24.5625 62.0625 -24.5625 62.0625 -25.9296875 63.390625 C-28.08592039 65.59844241 -29.02203735 67.92900473 -30.25 70.75 C-31.013125 72.503125 -31.77625 74.25625 -32.5625 76.0625 C-39.1625 76.0625 -45.7625 76.0625 -52.5625 76.0625 C-52.5625 74.4125 -52.5625 72.7625 -52.5625 71.0625 C-44.1475 70.5675 -44.1475 70.5675 -35.5625 70.0625 C-34.510625 67.79375 -33.45875 65.525 -32.375 63.1875 C-30.27681828 58.67085186 -28.14502541 54.18364339 -25.875 49.75 C-23.45594136 44.9670404 -21.50693838 40.05297874 -19.5625 35.0625 C-15.09842994 23.82129389 -15.09842994 23.82129389 -12.0625 18.625 C-9.29677824 13.87250976 -7.46300607 8.84109886 -5.578125 3.6875 C-4.17978525 0.07332957 -4.17978525 0.07332957 0 0 Z " fill="#EDEDED" transform="translate(309.5625,141.9375)"/>
<path d="M0 0 C2.97 0 5.94 0 9 0 C9 23.76 9 47.52 9 72 C14.28 72 19.56 72 25 72 C25 72.99 25 73.98 25 75 C17.41 75 9.82 75 2 75 C2 54.21 2 33.42 2 12 C0.02 12.33 -1.96 12.66 -4 13 C-4.5497272 7.36529617 -2.95047835 4.61012242 0 0 Z " fill="#F9F9F9" transform="translate(541,142)"/>
<path d="M0 0 C0.33 0 0.66 0 1 0 C1 23.43 1 46.86 1 71 C6.28 71 11.56 71 17 71 C17 72.65 17 74.3 17 76 C8.42 76 -0.16 76 -9 76 C-9.33 56.2 -9.66 36.4 -10 16 C-12.62134316 20.33708146 -12.62134316 20.33708146 -14.4296875 24.8046875 C-16.23990609 29.83412143 -18.71058134 34.46345951 -21.21484375 39.17578125 C-23.25842568 43.1328294 -24.53731222 46.49930974 -25 51 C-25.66 51 -26.32 51 -27 51 C-27.99 53.97 -28.98 56.94 -30 60 C-30.66 59.01 -31.32 58.02 -32 57 C-33.485 57.495 -33.485 57.495 -35 58 C-33.49103909 52.95869879 -31.82572385 48.55269099 -29.08203125 44.03125 C-27.73915387 41.51032496 -26.79769381 38.93135222 -25.8125 36.25 C-22.46000958 27.23622859 -18.19792909 18.64424822 -14 10 C-13.34 10.66 -12.68 11.32 -12 12 C-10.35 12 -8.7 12 -7 12 C-7 32.79 -7 53.58 -7 75 C0.59 75 8.18 75 16 75 C16 74.01 16 73.02 16 72 C10.72 72 5.44 72 0 72 C0 48.24 0 24.48 0 0 Z " fill="#C1C1C1" transform="translate(550,142)"/>
<path d="M0 0 C0.66 0.66 1.32 1.32 2 2 C3.32 2 4.64 2 6 2 C5.67 2.66 5.34 3.32 5 4 C4.34 3.67 3.68 3.34 3 3 C2.88269531 3.69351563 2.76539063 4.38703125 2.64453125 5.1015625 C0.83147521 13.25482058 -2.72435307 20.87392178 -7 28 C-8.03101947 30.31979381 -9.02936517 32.65429915 -10 35 C-10.68268962 36.56460774 -11.37038126 38.1270404 -12.0625 39.6875 C-12.38347656 40.41324219 -12.70445312 41.13898438 -13.03515625 41.88671875 C-13.68162758 43.30267418 -14.36879134 44.70070354 -15.09375 46.078125 C-16.16982285 48.11577267 -16.16982285 48.11577267 -16.4375 51.0625 C-17 54 -17 54 -18.3671875 55.328125 C-20.52342039 57.53594241 -21.45953735 59.86650473 -22.6875 62.6875 C-23.450625 64.440625 -24.21375 66.19375 -25 68 C-31.6 68 -38.2 68 -45 68 C-45 66.35 -45 64.7 -45 63 C-36.585 62.505 -36.585 62.505 -28 62 C-26.948125 59.73125 -25.89625 57.4625 -24.8125 55.125 C-22.71431828 50.60835186 -20.58252541 46.12114339 -18.3125 41.6875 C-15.89344136 36.9045404 -13.94443838 31.99047874 -12 27 C-9.38150831 20.40624041 -6.62774331 14.122071 -3.0703125 7.98046875 C-1.68628483 5.41951243 -0.78871676 2.79635942 0 0 Z " fill="#D9D9D9" transform="translate(302,150)"/>
<path d="M0 0 C1.125 3.75 1.125 3.75 0 6 C1.32 6 2.64 6 4 6 C3 8 3 8 1.57666016 9.84033203 C-1.11741999 13.53061276 -2.76585447 17.71891016 -4.625 21.875 C-5.03234375 22.76058594 -5.4396875 23.64617187 -5.859375 24.55859375 C-7.87427504 29.03540808 -9.52668574 33.05468209 -10 38 C-10.66 38 -11.32 38 -12 38 C-12.2475 39.010625 -12.495 40.02125 -12.75 41.0625 C-13.53051426 43.84764442 -14.55091239 46.09998637 -16.0625 48.5625 C-17.93642045 51.88719757 -18.63334519 54.2417882 -19 58 C-19.66 58 -20.32 58 -21 58 C-21.33 60.31 -21.66 62.62 -22 65 C-22.66 65 -23.32 65 -24 65 C-24 63.35 -24 61.7 -24 60 C-24.99 60.66 -25.98 61.32 -27 62 C-25.44882223 56.91558397 -23.66524334 52.13765428 -21.3984375 47.328125 C-18.87179868 41.90760781 -16.40790598 36.46346889 -13.984375 30.99609375 C-13.46648911 29.82836174 -13.46648911 29.82836174 -12.93814087 28.63703918 C-11.87468491 26.23752076 -10.81218436 23.83758157 -9.75 21.4375 C-8.32920697 18.22738385 -6.90715981 15.01782751 -5.484375 11.80859375 C-5.16353943 11.08256454 -4.84270386 10.35653534 -4.512146 9.60850525 C-3.07587317 6.36900558 -1.62864832 3.14800843 0 0 Z " fill="#DCDCDC" transform="translate(434,146)"/>
<path d="M0 0 C0.99 0 1.98 0 3 0 C4.33838733 2.45570175 5.67086232 4.91429916 7 7.375 C7.3815625 8.07367188 7.763125 8.77234375 8.15625 9.4921875 C11 14.7734375 11 14.7734375 11 17 C11.99 17 12.98 17 14 17 C14 13.04 14 9.08 14 5 C15.32 4.67 16.64 4.34 18 4 C18 10.27 18 16.54 18 23 C10 23 10 23 8 22 C7.53189478 20.09414303 7.0680429 18.1870696 6.6328125 16.2734375 C5.61673583 12.62308798 4.03965073 9.19492165 2 6 C1.34 5.67 0.68 5.34 0 5 C-0.17015625 5.64066406 -0.3403125 6.28132812 -0.515625 6.94140625 C-2.07404888 12.50365317 -3.91921472 17.11323714 -7 22 C-7.66 22 -8.32 22 -9 22 C-6.66062389 14.33204498 -3.45231194 7.22862726 0 0 Z " fill="#D7D7D7" transform="translate(578,142)"/>
<path d="M0 0 C0.33 0 0.66 0 1 0 C0.98839844 0.81984375 0.97679687 1.6396875 0.96484375 2.484375 C0.95582031 3.56203125 0.94679688 4.6396875 0.9375 5.75 C0.92589844 6.81734375 0.91429687 7.8846875 0.90234375 8.984375 C0.85906395 11.87099781 0.85906395 11.87099781 1.63671875 14.00390625 C2.98936138 21.43616845 -4.31300036 31.78477204 -8 38 C-11.96 38 -15.92 38 -20 38 C-17.41867134 35.41867134 -15.49968915 33.60955893 -12.6875 31.5625 C-3.96879601 24.04637587 -1.24407947 13.78310102 -0.19140625 2.82421875 C-0.12824219 1.89222656 -0.06507813 0.96023437 0 0 Z " fill="#282828" transform="translate(412,176)"/>
<path d="M0 0 C3.86107457 2.57404971 3.94319692 4.61020259 5 9 C4.34 9.66 3.68 10.32 3 11 C2.66914227 13.26267725 2.66914227 13.26267725 2.68115234 15.90869141 C2.66128265 16.92959869 2.64141296 17.95050598 2.62094116 19.00234985 C2.60938995 20.10759003 2.59783875 21.2128302 2.5859375 22.3515625 C2.56657135 23.4807309 2.5472052 24.60989929 2.5272522 25.77328491 C2.46732931 29.39044572 2.42101998 33.00763813 2.375 36.625 C2.33683195 39.07293078 2.29778092 41.52084796 2.2578125 43.96875 C2.16161741 49.97904624 2.07660735 55.98942393 2 62 C1.34 62 0.68 62 0 62 C0 41.54 0 21.08 0 0 Z " fill="#3F3F3F" transform="translate(477,156)"/>
<path d="M0 0 C1.125 3.75 1.125 3.75 0 6 C1.32 6 2.64 6 4 6 C3 8 3 8 1.57885742 9.82714844 C-0.05319485 12.0732077 -1.14001424 14.22959741 -2.26171875 16.765625 C-2.65810547 17.65507812 -3.05449219 18.54453125 -3.46289062 19.4609375 C-3.86701172 20.38132813 -4.27113281 21.30171875 -4.6875 22.25 C-5.10322266 23.18585938 -5.51894531 24.12171875 -5.94726562 25.0859375 C-6.96939137 27.38865756 -7.98678844 29.69334715 -9 32 C-9.99 32 -10.98 32 -12 32 C-13.21789915 29.11175061 -12.99469732 27.98514817 -11.92016602 24.97558594 C-11.37030029 23.82348633 -10.82043457 22.67138672 -10.25390625 21.484375 C-9.96394272 20.86854553 -9.67397919 20.25271606 -9.37522888 19.6182251 C-8.44857626 17.65674424 -7.50585593 15.70349387 -6.5625 13.75 C-5.93056516 12.41978121 -5.29969289 11.08905708 -4.66992188 9.7578125 C-3.12555783 6.49925904 -1.56669165 3.24788812 0 0 Z " fill="#E2E2E2" transform="translate(434,146)"/>
<path d="M0 0 C0.99 0 1.98 0 3 0 C3 6.27 3 12.54 3 19 C0.36 19 -2.28 19 -5 19 C-4.34 18.67 -3.68 18.34 -3 18 C-3.33 16.35 -3.66 14.7 -4 13 C-3.01 13 -2.02 13 -1 13 C-1.01160156 12.14535156 -1.02320313 11.29070312 -1.03515625 10.41015625 C-1.04869141 8.75306641 -1.04869141 8.75306641 -1.0625 7.0625 C-1.07410156 5.96035156 -1.08570313 4.85820312 -1.09765625 3.72265625 C-1 1 -1 1 0 0 Z " fill="#858585" transform="translate(593,146)"/>
<path d="M0 0 C0.33 0 0.66 0 1 0 C1.45402536 5.26993722 -0.04792691 8.84008491 -2.5 13.375 C-2.83386719 14.01566406 -3.16773438 14.65632812 -3.51171875 15.31640625 C-4.33026451 16.88333671 -5.16364513 18.44250241 -6 20 C-6.99 20 -7.98 20 -9 20 C-7.96232949 13.93267948 -6.66038099 8.5626148 -4 3 C-3.01 3 -2.02 3 -1 3 C-0.67 2.01 -0.34 1.02 0 0 Z " fill="#E2E2E2" transform="translate(292,178)"/>
<path d="M0 0 C0.144375 0.639375 0.28875 1.27875 0.4375 1.9375 C0.81007181 3.97545146 0.81007181 3.97545146 2 5 C2.3125 8.375 2.3125 8.375 2 12 C0.125 13.9375 0.125 13.9375 -2 15 C-2.66 15 -3.32 15 -4 15 C-4.33 15.99 -4.66 16.98 -5 18 C-5.66 18 -6.32 18 -7 18 C-5.06375702 11.79522136 -2.74390859 5.89174281 0 0 Z " fill="#D8D8D8" transform="translate(283,192)"/>
<path d="M0 0 C2 3 2 3 2 5 C1.34 5 0.68 5 0 5 C-0.17015625 5.64066406 -0.3403125 6.28132812 -0.515625 6.94140625 C-2.07404888 12.50365317 -3.91921472 17.11323714 -7 22 C-7.66 22 -8.32 22 -9 22 C-6.66062389 14.33204498 -3.45231194 7.22862726 0 0 Z " fill="#8B8B8B" transform="translate(578,142)"/>
<path d="M0 0 C1.32 0.33 2.64 0.66 4 1 C3.01 3.97 2.02 6.94 1 10 C0.01 10 -0.98 10 -2 10 C-2.6875 8.375 -2.6875 8.375 -3 6 C-1.5625 2.75 -1.5625 2.75 0 0 Z " fill="#DADADA" transform="translate(424,168)"/>
<path d="M0 0 C0.33 1.32 0.66 2.64 1 4 C2.32 3.01 3.64 2.02 5 1 C5 2.32 5 3.64 5 5 C4.34 5 3.68 5 3 5 C2.67 7.31 2.34 9.62 2 12 C1.34 12 0.68 12 0 12 C0 10.35 0 8.7 0 7 C-0.99 7.66 -1.98 8.32 -3 9 C-2.01 6.03 -1.02 3.06 0 0 Z " fill="#A4A4A4" transform="translate(410,199)"/>
<path d="M0 0 C0.33 0 0.66 0 1 0 C0.98839844 0.81984375 0.97679687 1.6396875 0.96484375 2.484375 C0.95582031 3.56203125 0.94679688 4.6396875 0.9375 5.75 C0.92589844 6.81734375 0.91429687 7.8846875 0.90234375 8.984375 C0.88239399 11.89682855 0.88239399 11.89682855 1.59375 14.21875 C2 16 2 16 0.5625 18.75 C-0.2109375 19.86375 -0.2109375 19.86375 -1 21 C-2.22972123 18.54055753 -1.9675924 17.36110944 -1.66015625 14.6484375 C-1.56669922 13.79765625 -1.47324219 12.946875 -1.37695312 12.0703125 C-1.27318359 11.18085938 -1.16941406 10.29140625 -1.0625 9.375 C-0.96259766 8.4778125 -0.86269531 7.580625 -0.75976562 6.65625 C-0.51185297 4.43684151 -0.25838006 2.21821023 0 0 Z " fill="#202020" transform="translate(412,176)"/>
<path d="M0 0 C0.66 0.66 1.32 1.32 2 2 C3.32 2 4.64 2 6 2 C5.67 2.66 5.34 3.32 5 4 C4.34 3.67 3.68 3.34 3 3 C2.67 4.65 2.34 6.3 2 8 C1.01 8 0.02 8 -1 8 C-1.33 8.99 -1.66 9.98 -2 11 C-2.66 11 -3.32 11 -4 11 C-3.52269162 9.5410574 -3.04308958 8.08286504 -2.5625 6.625 C-2.29566406 5.81289062 -2.02882813 5.00078125 -1.75390625 4.1640625 C-1 2 -1 2 0 0 Z " fill="#CCCCCC" transform="translate(302,150)"/>
<path d="M0 0 C1.125 3.75 1.125 3.75 0 6 C1.32 6 2.64 6 4 6 C3.67 6.66 3.34 7.32 3 8 C2.0409375 8.2165625 2.0409375 8.2165625 1.0625 8.4375 C-1.38210855 8.86165035 -1.38210855 8.86165035 -3 12 C-3.66 12 -4.32 12 -5 12 C-3.68938409 7.76570244 -2.05643741 3.92592596 0 0 Z " fill="#BABABA" transform="translate(434,146)"/>
<path d="M0 0 C0.33 1.32 0.66 2.64 1 4 C1.33 4.33 1.66 4.66 2 5 C2.04092937 7.33297433 2.04241723 9.66705225 2 12 C1.34 12 0.68 12 0 12 C0 10.68 0 9.36 0 8 C-0.99 8.33 -1.98 8.66 -3 9 C-2.01 6.03 -1.02 3.06 0 0 Z " fill="#ADADAD" transform="translate(283,192)"/>
<path d="M0 0 C1.0326802 2.78823655 1.04509293 3.8677274 0.0625 6.75 C-0.288125 7.4925 -0.63875 8.235 -1 9 C-1.99 9 -2.98 9 -4 9 C-4 7.68 -4 6.36 -4 5 C-3.34 5 -2.68 5 -2 5 C-1.7834375 4.0409375 -1.7834375 4.0409375 -1.5625 3.0625 C-1 1 -1 1 0 0 Z " fill="#F5F5F5" transform="translate(302,156)"/>
<path d="M0 0 C0.625 1.8125 0.625 1.8125 1 4 C0.01 5.485 0.01 5.485 -1 7 C-1.33 6.34 -1.66 5.68 -2 5 C-2.66 6.32 -3.32 7.64 -4 9 C-4.66 9 -5.32 9 -6 9 C-4.83857315 4.64464931 -3.92300495 2.35380297 0 0 Z " fill="#D7D7D7" transform="translate(410,205)"/>
<path d="M0 0 C0.33 1.32 0.66 2.64 1 4 C1.66 4 2.32 4 3 4 C2.67 5.98 2.34 7.96 2 10 C1.34 9.01 0.68 8.02 0 7 C-0.99 7.33 -1.98 7.66 -3 8 C-1.125 2.25 -1.125 2.25 0 0 Z " fill="#B7B7B7" transform="translate(297,161)"/>
<path d="M0 0 C1.37562854 1.28965176 2.70766393 2.62689293 4 4 C4 4.66 4 5.32 4 6 C3.34 6 2.68 6 2 6 C2 5.34 2 4.68 2 4 C1.54625 4.495 1.0925 4.99 0.625 5.5 C-1 7 -1 7 -3 7 C-1.125 1.125 -1.125 1.125 0 0 Z " fill="#464646" transform="translate(436,153)"/>
<path d="M0 0 C0.6875 1.75 0.6875 1.75 1 4 C-0.3125 6.25 -0.3125 6.25 -2 8 C-2.66 8 -3.32 8 -4 8 C-3.6875 5.125 -3.6875 5.125 -3 2 C-2.01 1.34 -1.02 0.68 0 0 Z " fill="#F2F2F2" transform="translate(287,190)"/>
<path d="M0 0 C2.76223278 2.76223278 2.57856291 5.20706617 3 9 C1.68 9 0.36 9 -1 9 C-0.67 6.03 -0.34 3.06 0 0 Z " fill="#969696" transform="translate(587,155)"/>
<path d="M0 0 C0.99 0.33 1.98 0.66 3 1 C3 3.31 3 5.62 3 8 C2.34 8 1.68 8 1 8 C1 6.68 1 5.36 1 4 C0.01 4.33 -0.98 4.66 -2 5 C-1.34 3.35 -0.68 1.7 0 0 Z " fill="#B3B3B3" transform="translate(421,176)"/>
<path d="M0 0 C-0.33 2.31 -0.66 4.62 -1 7 C-1.99 6.67 -2.98 6.34 -4 6 C-4 4.68 -4 3.36 -4 2 C-1 0 -1 0 0 0 Z " fill="#EDEDED" transform="translate(298,167)"/>
<path d="M0 0 C1.32 1.32 2.64 2.64 4 4 C3.34 5.32 2.68 6.64 2 8 C-0.1519437 4.77208445 -0.20086443 3.71599191 0 0 Z " fill="#181818" transform="translate(478,159)"/>
<path d="M0 0 C1.32 0.66 2.64 1.32 4 2 C3.67 2.99 3.34 3.98 3 5 C1.33333333 5 -0.33333333 5 -2 5 C-1.34 3.35 -0.68 1.7 0 0 Z " fill="#C8C8C8" transform="translate(286,187)"/>
<path d="M0 0 C0.99 0.33 1.98 0.66 3 1 C3 1.99 3 2.98 3 4 C2.01 4 1.02 4 0 4 C0 4.99 0 5.98 0 7 C-0.66 7 -1.32 7 -2 7 C-1.34 4.69 -0.68 2.38 0 0 Z " fill="#434343" transform="translate(305,153)"/>
</svg>
