<?xml version="1.0" encoding="UTF-8"?>
<svg version="1.1" xmlns="http://www.w3.org/2000/svg" width="529" height="224">
<path d="M0 0 C174.57 0 349.14 0 529 0 C529 73.92 529 147.84 529 224 C354.43 224 179.86 224 0 224 C0 150.08 0 76.16 0 0 Z " fill="#040404" transform="translate(0,0)"/>
<path d="M0 0 C3.4777493 1.56011183 6.27224027 3.63172326 9.25 6 C10.14203125 6.70125 11.0340625 7.4025 11.953125 8.125 C12.62859375 8.74375 13.3040625 9.3625 14 10 C14 10.66 14 11.32 14 12 C10.37 14.97 6.74 17.94 3 21 C22.8 21.495 22.8 21.495 43 22 C43 27.61 43 33.22 43 39 C50.41597213 38.02716047 50.41597213 38.02716047 54.875 33.0625 C55.63554687 32.16660156 56.39609375 31.27070312 57.1796875 30.34765625 C59.00693834 28.14832813 59.00693834 28.14832813 60 26 C63.45992428 27.42291258 65.02648569 29.05963093 67.125 32.125 C68.55696719 34.27359999 68.55696719 34.27359999 70 36 C70.66 36 71.32 36 72 36 C73.38903267 34.37946188 74.71332828 32.70294787 76 31 C77.28667172 29.29705213 78.61096733 27.62053812 80 26 C80.66 26 81.32 26 82 26 C83.39131742 27.59711646 84.71517335 29.25352684 86 30.9375 C88.54336771 34.51216924 88.54336771 34.51216924 92 37 C92.26683594 36.41734375 92.53367187 35.8346875 92.80859375 35.234375 C94.02386752 32.95523863 95.37069172 31.19537168 97.0625 29.25 C97.85333984 28.32960938 97.85333984 28.32960938 98.66015625 27.390625 C99.10230469 26.93171875 99.54445313 26.4728125 100 26 C100.33 26 100.66 26 101 26 C101.13559675 28.56428515 101.23433188 31.12135216 101.3125 33.6875 C101.3753418 34.7693457 101.3753418 34.7693457 101.43945312 35.87304688 C101.53489978 40.05361054 101.41237875 41.50623071 98.625 44.84375 C97.75875 45.5553125 96.8925 46.266875 96 47 C94.64444707 48.64864545 93.30368347 50.31003995 92 52 C88.78956118 50.61811547 86.95063635 49.07578097 84.75 46.375 C84.22921875 45.74335937 83.7084375 45.11171875 83.171875 44.4609375 C82.78515625 43.97882813 82.3984375 43.49671875 82 43 C78.78956118 44.38188453 76.95063635 45.92421903 74.75 48.625 C74.22921875 49.25664063 73.7084375 49.88828125 73.171875 50.5390625 C72.78515625 51.02117187 72.3984375 51.50328125 72 52 C68.78956118 50.61811547 66.95063635 49.07578097 64.75 46.375 C64.22921875 45.74335937 63.7084375 45.11171875 63.171875 44.4609375 C62.78515625 43.97882813 62.3984375 43.49671875 62 43 C59.41674065 44.0689349 58.1864074 44.70480939 56.66796875 47.109375 C55 49 55 49 51.86328125 49.390625 C50.69152344 49.34421875 49.51976562 49.2978125 48.3125 49.25 C46.54326172 49.19585937 46.54326172 49.19585937 44.73828125 49.140625 C43.83464844 49.09421875 42.93101562 49.0478125 42 49 C42 50.32 42 51.64 42 53 C39.03 53 36.06 53 33 53 C33 51.68 33 50.36 33 49 C32.17172195 49.01332367 31.34344391 49.02664734 30.49006653 49.04037476 C22.67748347 49.16068628 14.86521227 49.25199167 7.05191517 49.31087303 C3.03510273 49.34216304 -0.98094319 49.38459034 -4.99731445 49.45263672 C-8.87475912 49.5179169 -12.75146748 49.55372358 -16.62941933 49.56926346 C-18.10747176 49.58033469 -19.58548468 49.60195561 -21.06322289 49.63438034 C-32.69212835 49.87935324 -32.69212835 49.87935324 -36.04605103 47.62432861 C-37.4465332 45.96337891 -37.4465332 45.96337891 -39 43 C-41.51616768 44.07835758 -42.96811204 44.9635043 -44.79095459 47.04974365 C-47.58030267 49.51232037 -48.91862845 49.48721956 -52.59472656 49.45410156 C-53.71558655 49.45379944 -54.83644653 49.45349731 -55.99127197 49.45318604 C-57.19555847 49.43254089 -58.39984497 49.41189575 -59.640625 49.390625 C-60.87794373 49.38496521 -62.11526245 49.37930542 -63.39007568 49.37347412 C-66.67177936 49.35488251 -69.95269281 49.31897498 -73.23413086 49.2746582 C-76.58570067 49.23366165 -79.93730444 49.21579501 -83.2890625 49.1953125 C-89.85968391 49.15119904 -96.42977732 49.08425077 -103 49 C-103 45.7 -103 42.4 -103 39 C-101.68 39 -100.36 39 -99 39 C-99 34.05 -99 29.1 -99 24 C-95.7 24 -92.4 24 -89 24 C-89 28.95 -89 33.9 -89 39 C-83.7697587 39.15493602 -78.54650402 39.2290591 -73.31396484 39.23193359 C-71.53894864 39.24385943 -69.76393274 39.2769632 -67.98974609 39.33251953 C-56.97232902 39.98727246 -56.97232902 39.98727246 -47.54199219 35.24414062 C-44.97258091 32.38149564 -42.92763335 29.3222921 -41 26 C-37.23226369 28.87065624 -34.87925533 31.1444918 -32.50927734 35.25 C-30.47960695 38.03957807 -29.46708697 38.882513 -26.0803833 39.734375 C-22.32494739 40.02327 -18.61324392 40.05745774 -14.8515625 40 C-13.47005941 40.00752526 -12.0885714 40.01856519 -10.7071228 40.03295898 C-7.08652315 40.06130662 -3.46769897 40.0421633 0.15283203 40.01287842 C3.85330604 39.99143258 7.55346459 40.0152406 11.25390625 40.03515625 C18.50304633 40.06754358 25.75090856 40.04972663 33 40 C33 37.36 33 34.72 33 32 C14.19 32 -4.62 32 -24 32 C-22.68 30.35 -21.36 28.7 -20 27 C-19.34 27 -18.68 27 -18 27 C-18 26.34 -18 25.68 -18 25 C-16.30096977 23.48259024 -14.53927277 22.034872 -12.75 20.625 C-9.30145932 17.89718607 -6.04493931 15.17543671 -3 12 C-3.495 11.1028125 -3.495 11.1028125 -4 10.1875 C-5 8 -5 8 -5 5 C-2.5 2.3125 -2.5 2.3125 0 0 Z " fill="#F3F3F3" transform="translate(246,47)"/>
<path d="M0 0 C12.54 0 25.08 0 38 0 C38 6.27 38 12.54 38 19 C36.02 20.65 34.04 22.3 32 24 C32.67206394 25.93299345 32.67206394 25.93299345 34 28 C34.845625 28.33 35.69125 28.66 36.5625 29 C39 31 39 31 39.4074707 33.11401367 C39.49323461 35.82451596 39.43381882 38.47747367 39.3125 41.1875 C39.209375 44.425625 39.10625 47.66375 39 51 C26.13 51 13.26 51 0 51 C0 34.17 0 17.34 0 0 Z " fill="#F1F1F1" transform="translate(143,116)"/>
<path d="M0 0 C13.2 0 26.4 0 40 0 C40 16.83 40 33.66 40 51 C36.7 51 33.4 51 30 51 C29.67 45.39 29.34 39.78 29 34 C27.72125 35.65 26.4425 37.3 25.125 39 C23.80144783 40.70780925 22.43581474 42.38542921 21 44 C20.34 44 19.68 44 19 44 C17.52734375 42.28515625 17.52734375 42.28515625 15.9375 40.0625 C14.10094469 37.41985962 14.10094469 37.41985962 12 35 C11.67 40.28 11.34 45.56 11 51 C7.37 51 3.74 51 0 51 C0 34.17 0 17.34 0 0 Z " fill="#ECECEC" transform="translate(189,116)"/>
<path d="M0 0 C10.56 0 21.12 0 32 0 C32 3.3 32 6.6 32 10 C24.74 10 17.48 10 10 10 C10 13.3 10 16.6 10 20 C17.26 20 24.52 20 32 20 C32 30.23 32 40.46 32 51 C21.11 51 10.22 51 -1 51 C-1 47.7 -1 44.4 -1 41 C6.59 41 14.18 41 22 41 C22 37.37 22 33.74 22 30 C14.74 30 7.48 30 0 30 C0 20.1 0 10.2 0 0 Z " fill="#EFEFEF" transform="translate(237,116)"/>
<path d="M0 0 C3.3 0 6.6 0 10 0 C10.13492038 3.41798296 10.23407458 6.83065162 10.3125 10.25 C10.35439453 11.21808594 10.39628906 12.18617187 10.43945312 13.18359375 C10.56338025 20.3713669 10.56338025 20.3713669 7.60546875 23.671875 C5 25 5 25 3 25 C4.13668215 27.89337275 4.83220895 28.89973462 7.5625 30.53125 C10.30806422 33.31201376 10.36540673 33.8301991 10.48828125 37.546875 C10.45516964 39.28192356 10.39571192 41.01663171 10.3125 42.75 C10.28994141 43.63816406 10.26738281 44.52632812 10.24414062 45.44140625 C10.1853524 47.62832829 10.09567398 49.81438097 10 52 C6.7 52 3.4 52 0 52 C0 47.05 0 42.1 0 37 C-1.32 36.34 -2.64 35.68 -4 35 C-6.64 32.69 -9.28 30.38 -12 28 C-12.33 35.92 -12.66 43.84 -13 52 C-16.3 52 -19.6 52 -23 52 C-23 35.17 -23 18.34 -23 1 C-19.7 1 -16.4 1 -13 1 C-12.67 8.92 -12.34 16.84 -12 25 C-4.78187499 20.78067675 -4.78187499 20.78067675 -0.38085938 14.00341797 C0.33937915 9.33766227 0.24811745 4.70269127 0 0 Z " fill="#EDEDED" transform="translate(299,115)"/>
<path d="M0 0 C10.56 0 21.12 0 32 0 C32 3.3 32 6.6 32 10 C24.74 10 17.48 10 10 10 C12.00767443 16.0230233 12.37510256 16.79761593 17.125 20.1875 C19.8828125 22.16796875 19.8828125 22.16796875 22 24 C22 27 22 27 19.8828125 29.26171875 C18.97273438 30.06222656 18.06265625 30.86273438 17.125 31.6875 C16.22007812 32.49574219 15.31515625 33.30398437 14.3828125 34.13671875 C12 36 12 36 10 36 C10 37.65 10 39.3 10 41 C17.26 41 24.52 41 32 41 C32 44.3 32 47.6 32 51 C21.44 51 10.88 51 0 51 C-0.12375 47.968125 -0.2475 44.93625 -0.375 41.8125 C-0.45693604 40.39287964 -0.45693604 40.39287964 -0.54052734 38.94458008 C-0.66205752 32.7890112 -0.66205752 32.7890112 1.36230469 30.37646484 C2.8671946 29.19670547 4.43114318 28.09325849 6 27 C6 26.01 6 25.02 6 24 C5.01773437 23.31550781 4.03546875 22.63101563 3.0234375 21.92578125 C0.91293228 20.27124938 0.10509658 19.46319191 -0.49511719 16.81787109 C-0.58998578 14.24570816 -0.52337215 11.75818967 -0.375 9.1875 C-0.25125 6.155625 -0.1275 3.12375 0 0 Z " fill="#F2F2F2" transform="translate(315,116)"/>
<path d="M0 0 C3.3 0 6.6 0 10 0 C10 13.53 10 27.06 10 41 C16.27 41 22.54 41 29 41 C29 38.69 29 36.38 29 34 C32.3 34 35.6 34 39 34 C39 39.94 39 45.88 39 52 C24.81 52 10.62 52 -4 52 C-4 48.37 -4 44.74 -4 41 C-2.68 41 -1.36 41 0 41 C0 27.47 0 13.94 0 0 Z " fill="#E7E7E7" transform="translate(356,45)"/>
<path d="M0 0 C14.52 0 29.04 0 44 0 C44 3.3 44 6.6 44 10 C39.05 10 34.1 10 29 10 C29.144375 12.206875 29.28875 14.41375 29.4375 16.6875 C29.47802584 23.38101782 29.47802584 23.38101782 27.4765625 25.97265625 C25.5625 27.25 25.5625 27.25 22 29 C21.67 29.66 21.34 30.32 21 31 C21.5775 31.268125 22.155 31.53625 22.75 31.8125 C23.4925 32.204375 24.235 32.59625 25 33 C25.70125 33.3609375 26.4025 33.721875 27.125 34.09375 C29 36 29 36 29.390625 39.57421875 C29.3641199 40.94585748 29.3165309 42.31721938 29.25 43.6875 C29.23195313 44.38939453 29.21390625 45.09128906 29.1953125 45.81445312 C29.14826213 47.54355436 29.07651873 49.27195205 29 51 C25.7 51 22.4 51 19 51 C19.0825 49.55625 19.165 48.1125 19.25 46.625 C18.85231619 41.90671745 17.2185329 39.78319829 13.63769531 36.72021484 C11.13691835 34.74157024 8.60187131 32.84446382 6 31 C7.49801352 27.38522825 9.57537417 25.31379537 12.5 22.75 C13.69109375 21.69039062 13.69109375 21.69039062 14.90625 20.609375 C17 19 17 19 19 19 C19 16.03 19 13.06 19 10 C12.73 10 6.46 10 0 10 C0 6.7 0 3.4 0 0 Z " fill="#EFEFEF" transform="translate(351,116)"/>
<path d="M0 0 C7.3452676 -0.13921237 14.69024942 -0.24572638 22.03657055 -0.31087303 C25.44811385 -0.34214605 28.85875267 -0.38453896 32.26977539 -0.45263672 C36.19406181 -0.53048816 40.11798604 -0.55945163 44.04296875 -0.5859375 C45.26396774 -0.61690521 46.48496674 -0.64787292 47.7429657 -0.67977905 C56.08561769 -0.68309318 56.08561769 -0.68309318 58.84146118 1.37567139 C60.18481445 3.03662109 60.18481445 3.03662109 62 6 C62.66 6 63.32 6 64 6 C64.67417969 5.01773438 65.34835938 4.03546875 66.04296875 3.0234375 C67.68007391 0.97810817 68.51686038 0.11432989 71.09228516 -0.49511719 C73.52267715 -0.58970872 75.88502306 -0.52444215 78.3125 -0.375 C79.14845703 -0.34792969 79.98441406 -0.32085937 80.84570312 -0.29296875 C82.89825247 -0.22259563 84.94946591 -0.11498322 87 0 C87 2.97 87 5.94 87 9 C85.78376953 8.88205078 85.78376953 8.88205078 84.54296875 8.76171875 C78.03189201 8.56161302 78.03189201 8.56161302 72.3046875 11.32324219 C68.781335 14.89127488 65.85386693 18.88791518 63 23 C60.14367687 20.17287267 57.32527982 17.34560599 54.6875 14.3125 C54.17574219 13.73113281 53.66398437 13.14976563 53.13671875 12.55078125 C52 11 52 11 52 9 C34.84 9 17.68 9 0 9 C0 6.03 0 3.06 0 0 Z " fill="#F9F9F9" transform="translate(143,46)"/>
<path d="M0 0 C7.45619554 -0.15216139 14.91199068 -0.25722075 22.36938477 -0.32958984 C24.9059953 -0.35975862 27.44250156 -0.40069969 29.97875977 -0.45263672 C33.6254244 -0.52544153 37.27070987 -0.55945699 40.91796875 -0.5859375 C42.61822456 -0.63238907 42.61822456 -0.63238907 44.35282898 -0.67977905 C52.11228664 -0.68309423 52.11228664 -0.68309423 54.78775024 1.37567139 C56.13012695 3.03662109 56.13012695 3.03662109 58 6 C58.66 6 59.32 6 60 6 C60.598125 5.01 61.19625 4.02 61.8125 3 C63.09375 1.3359375 63.09375 1.3359375 65 0 C69.3743229 -0.54148172 73.61392166 -0.34677633 78 0 C78 2.97 78 5.94 78 9 C76.865625 8.938125 75.73125 8.87625 74.5625 8.8125 C71.08311588 9.1833047 70.06916073 9.92734175 67.60546875 12.515625 C66.05456771 14.52176565 64.54374409 16.55964188 63.078125 18.62890625 C62.39234375 19.41136719 61.7065625 20.19382812 61 21 C59.68 21 58.36 21 57 21 C55.87609246 19.22342998 54.81444424 17.40723141 53.78515625 15.57421875 C50.39064234 11.23489035 48.26343873 9.70994667 42.77294922 8.99853516 C36.32783099 8.55456684 29.89176307 8.67946572 23.4375 8.8125 C21.16602546 8.81946424 18.89452996 8.82146719 16.62304688 8.81835938 C11.08013971 8.82153529 5.54182406 8.8924195 0 9 C0 6.03 0 3.06 0 0 Z " fill="#FAFAFA" transform="translate(268,46)"/>
<path d="M0 0 C5.94 0 11.88 0 18 0 C16.88876515 5.55617425 16.15882003 6.18688458 12 9.625 C8.11424871 12.69215108 8.11424871 12.69215108 6 17 C6.56203125 17.26167969 7.1240625 17.52335937 7.703125 17.79296875 C10.22791271 19.11977046 12.45389843 20.62043822 14.75 22.3125 C15.54921875 22.88613281 16.3484375 23.45976562 17.171875 24.05078125 C19 26 19 26 19 31 C12.73 31 6.46 31 0 31 C0 20.77 0 10.54 0 0 Z " fill="#0F0F0F" transform="translate(153,126)"/>
<path d="M0 0 C2.64 0 5.28 0 8 0 C8 16.17 8 32.34 8 49 C5.36 49 2.72 49 0 49 C0 32.83 0 16.66 0 0 Z " fill="#FDFDFD" transform="translate(277,117)"/>
<path d="M0 0 C6.27 0 12.54 0 19 0 C19 9.02839117 19 9.02839117 14.625 13.5 C13.40683594 14.78390625 13.40683594 14.78390625 12.1640625 16.09375 C10 18 10 18 8 18 C6.0546875 16.09375 6.0546875 16.09375 3.875 13.5 C2.78832031 12.24703125 2.78832031 12.24703125 1.6796875 10.96875 C0 8 0 8 0 0 Z " fill="#0C0C0C" transform="translate(200,126)"/>
<path d="M0 0 C7.59 0 15.18 0 23 0 C23 3.3 23 6.6 23 10 C15.41 10 7.82 10 0 10 C0 6.7 0 3.4 0 0 Z " fill="#ECECEC" transform="translate(372,45)"/>
<path d="M0 0 C1.9375 0.9375 1.9375 0.9375 3.4375 2.5625 C3.9325 3.01625 4.4275 3.47 4.9375 3.9375 C7.59444438 3.77144098 8.70133679 3.14836001 10.6875 1.375 C11.1 0.900625 11.5125 0.42625 11.9375 -0.0625 C14.89159701 1.30904504 17.37758376 2.92613724 19.9375 4.9375 C18.49496343 8.30341866 16.60485273 10.44797079 13.9375 12.9375 C11.05312221 11.64450306 9.06530579 10.27808637 6.9375 7.9375 C4.46949953 9.08923355 2.88966435 9.98533565 0.9375 11.9375 C-2.43189433 11.60056057 -4.49160583 10.04930592 -7.0625 7.9375 C-6.49166739 3.94167175 -4.5021101 -0.13642758 0 0 Z " fill="#E5E5E5" transform="translate(173.0625,68.0625)"/>
<path d="M0 0 C3.3 0 6.6 0 10 0 C10.33 7.92 10.66 15.84 11 24 C13.64 21.69 16.28 19.38 19 17 C19.66 17.33 20.32 17.66 21 18 C19.52386015 19.50297876 18.04400843 21.00231285 16.5625 22.5 C15.73878906 23.3353125 14.91507812 24.170625 14.06640625 25.03125 C12 27 12 27 11 27 C10.67 34.92 10.34 42.84 10 51 C6.7 51 3.4 51 0 51 C0 34.17 0 17.34 0 0 Z M1 1 C1 17.17 1 33.34 1 50 C3.64 50 6.28 50 9 50 C9 33.83 9 17.66 9 1 C6.36 1 3.72 1 1 1 Z " fill="#C3C3C3" transform="translate(276,116)"/>
<path d="M0 0 C1.7143618 1.95927063 3.38405168 3.95880212 5 6 C3.50902342 9.7952131 1.24299151 11.61042731 -2 14 C-3.98 12.02 -5.96 10.04 -8 8 C-6.48291727 4.46014029 -4.24676932 0 0 0 Z " fill="#EDEDED" transform="translate(376,99)"/>
<path d="M0 0 C2.49261932 1.32939697 3.05216513 2.30708588 3.875 5 C3.55597423 8.34977063 3.28320361 9.59179639 0.875 12 C-2.49439433 11.66306057 -4.55410583 10.11180592 -7.125 8 C-6.54231225 3.92118577 -4.53339087 0 0 0 Z " fill="#ECECEC" transform="translate(173.125,68)"/>
<path d="M0 0 C-1 2 -2 4 -3 6 C-3.23188428 8.54786428 -3.41866375 11.0725115 -3.5625 13.625 C-3.706875 16.05875 -3.85125 18.4925 -4 21 C5.9 21 15.8 21 26 21 C26 18.03 26 15.06 26 12 C26.33 12 26.66 12 27 12 C27 15.3 27 18.6 27 22 C16.44 22 5.88 22 -5 22 C-5.061875 18.926875 -5.12375 15.85375 -5.1875 12.6875 C-5.21481201 11.72287842 -5.24212402 10.75825684 -5.27026367 9.7644043 C-5.27775635 9.00039307 -5.28524902 8.23638184 -5.29296875 7.44921875 C-5.3086792 6.66893311 -5.32438965 5.88864746 -5.34057617 5.0847168 C-4.8182622 1.88755625 -3.33053843 0 0 0 Z " fill="#979797" transform="translate(320,145)"/>
<path d="M0 0 C0.33 0 0.66 0 1 0 C1 5.28 1 10.56 1 16 C0.34 16 -0.32 16 -1 16 C-1.33 12.7 -1.66 9.4 -2 6 C-3.98 6.99 -3.98 6.99 -6 8 C-5.02471263 6.66382648 -4.04466681 5.3311249 -3.0625 4 C-2.24458984 2.88625 -2.24458984 2.88625 -1.41015625 1.75 C-0.94480469 1.1725 -0.47945313 0.595 0 0 Z " fill="#C1C1C1" transform="translate(346,73)"/>
<path d="M0 0 C0.33 0 0.66 0 1 0 C1.17545258 3.207633 1.28121626 6.41402324 1.375 9.625 C1.45041016 10.98044922 1.45041016 10.98044922 1.52734375 12.36328125 C1.67193855 18.96644373 1.67193855 18.96644373 -0.29199219 21.98730469 C-1.8984375 23.6484375 -1.8984375 23.6484375 -5 26 C-5.66 26 -6.32 26 -7 26 C-5.43653459 22.22162525 -5.43653459 22.22162525 -2.96875 20.96875 C0.28275318 17.71724682 -0.32110792 13.73088778 -0.25 9.3125 C-0.22035156 8.41982422 -0.19070312 7.52714844 -0.16015625 6.60742188 C-0.08948573 4.40485723 -0.03678061 2.20334869 0 0 Z " fill="#474747" transform="translate(181,116)"/>
<path d="M0 0 C-1 2 -2 4 -3 6 C-3.23172827 8.54615009 -3.41894529 11.07396225 -3.5625 13.625 C-3.60568359 14.33140625 -3.64886719 15.0378125 -3.69335938 15.765625 C-3.79944751 17.51018537 -3.90022889 19.25506697 -4 21 C-4.33 21 -4.66 21 -5 21 C-5.08086376 18.06195004 -5.1404283 15.12611925 -5.1875 12.1875 C-5.21263672 11.35412109 -5.23777344 10.52074219 -5.26367188 9.66210938 C-5.27333984 8.85966797 -5.28300781 8.05722656 -5.29296875 7.23046875 C-5.3086792 6.49207764 -5.32438965 5.75368652 -5.34057617 4.99291992 C-4.80256652 1.84469572 -3.26358412 0 0 0 Z " fill="#C3C3C3" transform="translate(320,145)"/>
<path d="M0 0 C0.66 0.33 1.32 0.66 2 1 C-0.97 3.97 -3.94 6.94 -7 10 C-7.33 9.01 -7.66 8.02 -8 7 C-5.36 4.69 -2.72 2.38 0 0 Z " fill="#D4D4D4" transform="translate(295,133)"/>
<path d="M0 0 C0.66 0.99 1.32 1.98 2 3 C-0.31 4.98 -2.62 6.96 -5 9 C-5.66 8.67 -6.32 8.34 -7 8 C-4.69 5.36 -2.38 2.72 0 0 Z " fill="#232323" transform="translate(212,61)"/>
<path d="M0 0 C-1.11666174 3.34998521 -1.74694925 3.79340222 -4.5625 5.6875 C-5.20316406 6.12449219 -5.84382813 6.56148438 -6.50390625 7.01171875 C-6.99761719 7.33785156 -7.49132812 7.66398437 -8 8 C-6.48291727 4.46014029 -4.24676932 0 0 0 Z " fill="#CDCDCD" transform="translate(376,99)"/>
</svg>
