<?xml version="1.0" encoding="UTF-8"?>
<svg version="1.1" xmlns="http://www.w3.org/2000/svg" width="720" height="316">
<path d="M0 0 C237.6 0 475.2 0 720 0 C720 104.28 720 208.56 720 316 C482.4 316 244.8 316 0 316 C0 211.72 0 107.44 0 0 Z " fill="#030303" transform="translate(0,0)"/>
<path d="M0 0 C2.37597656 0.40380859 2.37597656 0.40380859 5.37597656 2.40380859 C5.74512005 4.4302845 5.74512005 4.4302845 5.73674011 6.97219849 C5.74086411 7.93416138 5.7449881 8.89612427 5.74923706 9.88723755 C5.73845123 10.94603119 5.72766541 12.00482483 5.71655273 13.09570312 C5.71720985 14.76400177 5.71720985 14.76400177 5.71788025 16.46600342 C5.71578378 20.15638552 5.69241183 23.84631798 5.66894531 27.53662109 C5.66335242 30.08966829 5.65908088 32.6427187 5.65608215 35.19577026 C5.64578302 41.23775836 5.62211903 47.2795523 5.59203368 53.32146251 C5.55852801 60.19922693 5.54201335 67.07699901 5.52694738 73.95482469 C5.49557038 88.10457599 5.442786 102.25418342 5.37597656 116.40380859 C6.36597656 116.40380859 7.35597656 116.40380859 8.37597656 116.40380859 C8.4676712 115.82315643 8.55936584 115.24250427 8.65383911 114.64425659 C9.55579766 111.8459095 10.83060234 110.60652229 12.93017578 108.55664062 C13.68120575 107.81552032 14.43223572 107.07440002 15.20602417 106.31082153 C16.02265533 105.51908539 16.8392865 104.72734924 17.68066406 103.91162109 C18.5155838 103.08806122 19.35050354 102.26450134 20.21072388 101.41598511 C23.78580335 97.88998051 27.37821132 94.38182022 30.96923828 90.87207031 C33.58752165 88.30808643 36.19674364 85.73512588 38.80566406 83.16162109 C39.61824677 82.37393341 40.43082947 81.58624573 41.26803589 80.77468872 C46.71217627 75.40178455 50.39631603 71.41113868 50.71655273 63.5 C50.71608135 61.585058 50.69934539 59.67007183 50.66894531 57.75537109 C50.66470047 56.74284271 50.66045563 55.73031433 50.65608215 54.68710327 C50.63934958 51.46739611 50.60170682 48.24832515 50.56347656 45.02880859 C50.54842274 42.84001558 50.53473556 40.65121271 50.52246094 38.46240234 C50.48946388 33.10932234 50.43931852 27.75661093 50.37597656 22.40380859 C47.4302004 25.29132355 44.4958805 28.19021942 41.56347656 31.09130859 C40.73009766 31.90792969 39.89671875 32.72455078 39.03808594 33.56591797 C38.23564453 34.36191406 37.43320313 35.15791016 36.60644531 35.97802734 C35.8680542 36.70594482 35.12966309 37.4338623 34.36889648 38.18383789 C28.88432319 44.2932615 28.2465466 49.32724958 28.23535156 57.27490234 C28.21702935 58.83416181 28.19745958 60.39340703 28.17675781 61.95263672 C28.14777084 64.39957921 28.12597571 66.84559908 28.12548828 69.29272461 C28.12214874 71.66260731 28.08758648 74.03038603 28.04785156 76.39990234 C28.05492126 77.12712997 28.06199097 77.8543576 28.0692749 78.60362244 C27.97546636 82.53209954 27.47596286 84.27639967 25.02148438 87.40405273 C22.37597656 89.40380859 22.37597656 89.40380859 19.37597656 89.40380859 C18.49902584 80.50342853 18.13307908 71.65791241 18.06347656 62.71630859 C18.03447266 61.46269531 18.00546875 60.20908203 17.97558594 58.91748047 C17.86796943 43.18063566 25.0723673 34.49523073 35.71972656 23.59130859 C36.59628906 22.70443359 37.47285156 21.81755859 38.37597656 20.90380859 C39.25253906 19.98599609 40.12910156 19.06818359 41.03222656 18.12255859 C41.88816406 17.25630859 42.74410156 16.39005859 43.62597656 15.49755859 C44.77839844 14.31709961 44.77839844 14.31709961 45.95410156 13.11279297 C48.37597656 11.40380859 48.37597656 11.40380859 51.36035156 10.77294922 C54.72413679 11.47664263 56.39177486 12.5154893 58.42715454 15.30966187 C60.48188625 19.84466378 60.10505358 24.81439973 60.07519531 29.70458984 C60.08235062 30.89553757 60.08950592 32.08648529 60.09687805 33.31352234 C60.1046501 35.82920585 60.09965363 38.34495688 60.08276367 40.8605957 C60.06359133 44.69336618 60.10288271 48.52248418 60.14746094 52.35498047 C60.14775142 54.80485241 60.14460827 57.25472764 60.13769531 59.70458984 C60.16061897 61.41126579 60.16061897 61.41126579 60.18400574 63.15242004 C59.99378118 76.26350277 52.37893039 82.85096509 43.45410156 91.65380859 C42.50281158 92.60203287 41.55211835 93.55085616 40.60198975 94.50024414 C38.62640616 96.47126332 36.64606584 98.43731729 34.66162109 100.39941406 C32.11704877 102.9154729 29.58145111 105.44034483 27.04887772 107.96847534 C25.0934572 109.91974719 23.13522275 111.86817253 21.17592621 113.81555176 C19.7848652 115.19815599 18.39477587 116.58173763 17.00469971 117.96533203 C16.16332458 118.79709961 15.32194946 119.62886719 14.45507812 120.48583984 C13.7137262 121.22036377 12.97237427 121.9548877 12.20855713 122.71166992 C9.63820379 125.08504131 8.56180206 125.38316132 5.00097656 125.77880859 C1.37597656 125.40380859 1.37597656 125.40380859 -0.82220459 123.52400208 C-3.41144673 119.04023477 -3.15336529 115.1973938 -3.078125 110.10571289 C-3.07870911 109.07110428 -3.07929321 108.03649567 -3.07989502 106.97053528 C-3.07711172 103.55602288 -3.04600684 100.14238697 -3.01464844 96.72802734 C-3.00718696 94.35863217 -3.00149359 91.98923082 -2.99749756 89.61982727 C-2.98223409 83.38734869 -2.9429455 77.1552437 -2.89868164 70.9229126 C-2.8577447 64.5617783 -2.83948987 58.20058356 -2.81933594 51.83935547 C-2.77645245 39.36067581 -2.70819199 26.88227329 -2.62402344 14.40380859 C-3.87982446 15.49338428 -5.13427749 16.58451368 -6.38818359 17.67626953 C-7.08690582 18.28372009 -7.78562805 18.89117065 -8.50552368 19.51702881 C-11.79094871 22.44309643 -14.89912566 25.53365005 -17.99902344 28.65380859 C-18.61390625 29.26482422 -19.22878906 29.87583984 -19.86230469 30.50537109 C-20.45140625 31.09576172 -21.04050781 31.68615234 -21.64746094 32.29443359 C-22.17259277 32.82069336 -22.69772461 33.34695312 -23.23876953 33.88916016 C-26.02048864 36.93071556 -26.87360126 38.85416724 -26.85107422 42.87524414 C-26.85092316 43.77595139 -26.85077209 44.67665863 -26.85061646 45.60466003 C-26.84029388 46.57349625 -26.82997131 47.54233246 -26.81933594 48.54052734 C-26.81650604 49.53510452 -26.81367615 50.5296817 -26.8107605 51.55439758 C-26.79955833 54.7334899 -26.77445358 57.91230131 -26.74902344 61.09130859 C-26.73899369 63.2456014 -26.72986783 65.39989862 -26.72167969 67.55419922 C-26.6996189 72.83749831 -26.666141 78.12063339 -26.62402344 83.40380859 C-22.51207774 82.58066079 -20.78365501 80.87930626 -17.87402344 77.84130859 C-17.07480469 77.01501953 -16.27558594 76.18873047 -15.45214844 75.33740234 C-14.84886719 74.69931641 -14.24558594 74.06123047 -13.62402344 73.40380859 C-12.13902344 73.89880859 -12.13902344 73.89880859 -10.62402344 74.40380859 C-10.12722179 77.8814201 -9.85945664 80.03667665 -10.62402344 83.40380859 C-13.59515119 87.34730543 -17.16274009 91.17316692 -21.62402344 93.40380859 C-25.74279545 93.79237199 -27.91301626 93.86201322 -31.43652344 91.59130859 C-34.76547146 88.26236057 -35.87414575 86.26736406 -35.8828125 81.64453125 C-35.88911682 80.67987946 -35.89542114 79.71522766 -35.9019165 78.72134399 C-35.89786804 77.68069794 -35.89381958 76.64005188 -35.88964844 75.56787109 C-35.89251862 73.96061661 -35.89251862 73.96061661 -35.89544678 72.32089233 C-35.89680849 70.05295578 -35.89311301 67.78501144 -35.88476562 65.51708984 C-35.87408704 62.04946294 -35.88465078 58.58235661 -35.89746094 55.11474609 C-35.89613893 52.91161995 -35.89357568 50.70849413 -35.88964844 48.50537109 C-35.8936969 47.4687735 -35.89774536 46.4321759 -35.9019165 45.36416626 C-35.89561218 44.39321014 -35.88930786 43.42225403 -35.8828125 42.421875 C-35.88122131 41.57154694 -35.87963013 40.72121887 -35.87799072 39.84512329 C-35.3447862 34.71958108 -33.1403257 31.52034361 -29.70214844 27.81787109 C-28.89712891 26.94936523 -28.09210938 26.08085938 -27.26269531 25.18603516 C-26.39193359 24.26790039 -25.52117187 23.34976563 -24.62402344 22.40380859 C-23.72748047 21.45731445 -22.8309375 20.51082031 -21.90722656 19.53564453 C-19.56799443 17.0840184 -17.2013577 14.66099036 -14.8203125 12.25 C-13.84363572 11.25650671 -12.87238936 10.25764984 -11.90625 9.25390625 C-10.48554508 7.77863183 -9.04924236 6.3203247 -7.60839844 4.86474609 C-6.77018555 4.00671387 -5.93197266 3.14868164 -5.06835938 2.26464844 C-2.62402344 0.40380859 -2.62402344 0.40380859 0 0 Z " fill="#F2F2F2" transform="translate(167.6240234375,97.59619140625)"/>
<path d="M0 0 C0.86132034 -0.00960754 1.72264069 -0.01921509 2.61006165 -0.02911377 C3.53820175 -0.03336365 4.46634186 -0.03761353 5.42260742 -0.04199219 C6.38075851 -0.04769226 7.33890961 -0.05339233 8.32609558 -0.05926514 C10.3544301 -0.06871263 12.38277995 -0.07524813 14.41113281 -0.07910156 C17.50572687 -0.08879717 20.5996539 -0.11981896 23.6940918 -0.15136719 C25.66609307 -0.15789849 27.63809908 -0.16314846 29.61010742 -0.16699219 C30.53217484 -0.17933899 31.45424225 -0.19168579 32.4042511 -0.20440674 C39.12473587 -0.18124485 43.31712285 1.035231 48.46557617 5.59863281 C52.42439494 10.10728752 52.99129517 13.07395737 52.96557617 19.09863281 C52.97331055 20.90654297 52.97331055 20.90654297 52.98120117 22.75097656 C52.4962056 28.97746382 50.35538661 32.06083522 45.71557617 36.16113281 C40.94942853 39.98337487 36.21370608 39.61254978 30.37573242 39.59472656 C28.87616249 39.60258934 28.87616249 39.60258934 27.34629822 39.61061096 C25.23575772 39.61702348 23.12518145 39.61570417 21.01464844 39.60717773 C17.79256274 39.59867106 14.57225234 39.62743551 11.3503418 39.65917969 C9.29630587 39.66079197 7.24226681 39.66021366 5.18823242 39.65722656 C3.74892113 39.67407753 3.74892113 39.67407753 2.28053284 39.69126892 C-4.65147387 39.61936326 -7.71276345 38.20119723 -12.96411133 33.73144531 C-17.72679464 27.97264522 -16.88699495 21.25808164 -16.28442383 14.16113281 C-15.83509913 9.53950734 -14.29261517 6.88289338 -10.84692383 3.78613281 C-7.34694305 0.95893452 -4.47698808 0.04038716 0 0 Z " fill="#0A0A0A" transform="translate(450.284423828125,140.8388671875)"/>
<path d="M0 0 C0.95819641 -0.01929062 1.91639282 -0.03858124 2.90362549 -0.05845642 C7.28548278 -0.116328 11.66717867 -0.16547278 16.04931641 -0.19628906 C18.3577368 -0.21787067 20.66607533 -0.25197502 22.97412109 -0.29882812 C26.30831318 -0.36587464 29.64081454 -0.39329651 32.97558594 -0.41235352 C34.51499847 -0.4540995 34.51499847 -0.4540995 36.08551025 -0.49668884 C42.23455484 -0.47911522 45.60726852 0.35615003 50.04071045 4.72276306 C51.81299899 6.86084244 52.26756669 8.17284908 52.64746094 10.95874023 C52.16031458 15.18067531 50.26888358 17.37687671 47.27246094 20.20874023 C44.62013535 22.08373147 41.84225739 23.59315948 38.95996094 25.08374023 C38.23873047 25.48592773 37.5175 25.88811523 36.77441406 26.30249023 C31.67381049 28.99231526 28.02468739 29.63771983 22.27246094 29.20874023 C22.27246094 27.88874023 22.27246094 26.56874023 22.27246094 25.20874023 C33.65746094 19.26874023 33.65746094 19.26874023 45.27246094 13.20874023 C44.82716113 8.57854037 44.82716113 8.57854037 43.27246094 7.20874023 C41.80101519 7.08968744 40.32397832 7.03867433 38.84790039 7.01586914 C37.90634598 6.99980621 36.96479156 6.98374329 35.9947052 6.9671936 C31.66940908 6.92282593 27.34426942 6.88165205 23.01879883 6.85864258 C20.73842142 6.84210518 18.45809536 6.81484475 16.17797852 6.77661133 C12.89279233 6.72178274 9.60882464 6.69995574 6.32324219 6.68530273 C5.30740555 6.66263336 4.29156891 6.63996399 3.24494934 6.61660767 C-1.30861976 6.63016416 -4.69297364 6.65446209 -8.37280273 9.53051758 C-11.3660969 12.93502116 -11.47816124 14.72499487 -11.35253906 19.20874023 C-11.34480469 20.40499023 -11.33707031 21.60124023 -11.32910156 22.83374023 C-10.63649001 26.71956091 -9.46646113 28.41852749 -6.72753906 31.20874023 C-4.15067496 32.49717228 -2.24535147 32.36877457 0.64013672 32.4140625 C1.76114777 32.43400772 2.88215881 32.45395294 4.03713989 32.47450256 C5.8590535 32.4995713 5.8590535 32.4995713 7.71777344 32.52514648 C9.57799637 32.55631813 9.57799637 32.55631813 11.47579956 32.58811951 C14.77357916 32.64251729 18.07138814 32.69274119 21.3692627 32.7409668 C24.73418746 32.79119258 28.09902144 32.84687301 31.46386719 32.90209961 C38.06665948 33.00935581 44.66951965 33.11111213 51.27246094 33.20874023 C51.31518194 34.87485929 51.31309926 36.54256908 51.27246094 38.20874023 C49.58412665 39.89707453 47.46015606 39.37087207 45.14526367 39.40161133 C44.04999863 39.41767426 42.95473358 39.43373718 41.82627869 39.45028687 C36.78775534 39.49467166 31.7493667 39.53584018 26.71069336 39.55883789 C24.05544263 39.5721267 21.40202385 39.60259425 18.74682617 39.64086914 C14.9205006 39.69576621 11.09522165 39.7175375 7.26855469 39.73217773 C5.49779823 39.76618179 5.49779823 39.76618179 3.69126892 39.8008728 C-3.38574037 39.78282108 -8.32682713 38.99451776 -13.72753906 34.20874023 C-18.38167757 28.74012749 -18.16889746 23.63808879 -18.16113281 16.61108398 C-17.47089615 11.1949026 -15.45964242 7.33946468 -11.22753906 3.89624023 C-10.63972656 3.40510742 -10.05191406 2.91397461 -9.44628906 2.40795898 C-6.3800223 0.26854104 -3.6216485 0.06823214 0 0 Z " fill="#E9E9E9" transform="translate(371.7275390625,140.791259765625)"/>
<path d="M0 0 C0.86132034 -0.00960754 1.72264069 -0.01921509 2.61006165 -0.02911377 C3.53820175 -0.03336365 4.46634186 -0.03761353 5.42260742 -0.04199219 C6.38075851 -0.04769226 7.33890961 -0.05339233 8.32609558 -0.05926514 C10.3544301 -0.06871263 12.38277995 -0.07524813 14.41113281 -0.07910156 C17.50572687 -0.08879717 20.5996539 -0.11981896 23.6940918 -0.15136719 C25.66609307 -0.15789849 27.63809908 -0.16314846 29.61010742 -0.16699219 C30.53217484 -0.17933899 31.45424225 -0.19168579 32.4042511 -0.20440674 C39.12473587 -0.18124485 43.31712285 1.035231 48.46557617 5.59863281 C52.42439494 10.10728752 52.99129517 13.07395737 52.96557617 19.09863281 C52.97331055 20.90654297 52.97331055 20.90654297 52.98120117 22.75097656 C52.4962056 28.97746382 50.35538661 32.06083522 45.71557617 36.16113281 C40.94942853 39.98337487 36.21370608 39.61254978 30.37573242 39.59472656 C28.87616249 39.60258934 28.87616249 39.60258934 27.34629822 39.61061096 C25.23575772 39.61702348 23.12518145 39.61570417 21.01464844 39.60717773 C17.79256274 39.59867106 14.57225234 39.62743551 11.3503418 39.65917969 C9.29630587 39.66079197 7.24226681 39.66021366 5.18823242 39.65722656 C3.74892113 39.67407753 3.74892113 39.67407753 2.28053284 39.69126892 C-4.65147387 39.61936326 -7.71276345 38.20119723 -12.96411133 33.73144531 C-17.72679464 27.97264522 -16.88699495 21.25808164 -16.28442383 14.16113281 C-15.83509913 9.53950734 -14.29261517 6.88289338 -10.84692383 3.78613281 C-7.34694305 0.95893452 -4.47698808 0.04038716 0 0 Z M-10.28442383 12.16113281 C-11.11391262 15.63120111 -11.11391262 15.63120111 -10.84692383 19.22363281 C-10.82758789 20.41085938 -10.80825195 21.59808594 -10.78833008 22.82128906 C-10.25285715 26.37035381 -9.43222694 28.31262798 -7.28442383 31.16113281 C-4.19070039 33.2236151 -3.49241887 33.4164643 0.01586914 33.45166016 C0.88041718 33.46441986 1.74496521 33.47717957 2.63571167 33.49032593 C3.56698883 33.49255157 4.49826599 33.49477722 5.45776367 33.49707031 C6.41828644 33.50372711 7.3788092 33.51038391 8.36843872 33.51724243 C10.40096115 33.52736967 12.43351682 33.53205943 14.46606445 33.53173828 C17.57192994 33.53610659 20.67636888 33.57241213 23.78198242 33.61035156 C25.75723798 33.6162207 27.73250029 33.62018944 29.70776367 33.62207031 C31.09860672 33.64362686 31.09860672 33.64362686 32.51754761 33.6656189 C36.77618916 33.63552823 39.08264262 33.55844173 42.76049805 31.24975586 C47.19871682 26.50837704 47.13988447 22.33764176 47.03979492 16.01660156 C46.62053684 12.32409967 45.52520679 10.56938763 42.71557617 8.16113281 C39.63729561 6.10894577 38.92183067 5.9018464 35.43115234 5.83886719 C34.569832 5.8196521 33.70851166 5.80043701 32.8210907 5.78063965 C31.89295059 5.77213989 30.96481049 5.76364014 30.00854492 5.75488281 C29.05039383 5.74348267 28.09224274 5.73208252 27.10505676 5.72033691 C25.07675591 5.70144223 23.04839374 5.68837102 21.02001953 5.68066406 C17.92460288 5.6612677 14.83185261 5.5992365 11.73706055 5.53613281 C9.76507109 5.52307029 7.79306266 5.51257031 5.82104492 5.50488281 C4.89897751 5.48018921 3.9769101 5.45549561 3.02690125 5.43005371 C-3.60625985 5.47577558 -6.24459199 6.8408076 -10.28442383 12.16113281 Z " fill="#EDEDED" transform="translate(450.284423828125,140.8388671875)"/>
<path d="M0 0 C6.94175337 3.23670959 12.86062294 8.42121915 18.68359375 13.3203125 C23.81525402 17.54870843 29.25194093 21.39299487 34.62695312 25.30297852 C35.81901367 26.17200806 35.81901367 26.17200806 37.03515625 27.05859375 C37.7506665 27.57736084 38.46617676 28.09612793 39.20336914 28.63061523 C41 30 41 30 43 32 C46.30683466 31.71016731 46.30683466 31.71016731 49 30 C49.1340473 27.95196089 49.20358567 25.89963723 49.24609375 23.84765625 C49.27896484 22.59662109 49.31183594 21.34558594 49.34570312 20.05664062 C49.40680931 17.39787139 49.46411256 14.73901198 49.51757812 12.08007812 C49.55173828 10.82775391 49.58589844 9.57542969 49.62109375 8.28515625 C49.65867798 6.55084351 49.65867798 6.55084351 49.69702148 4.78149414 C50 2 50 2 52 0 C54.125 0.375 54.125 0.375 56 1 C56.14876435 5.46560056 56.25740399 9.92987491 56.32958984 14.3972168 C56.35969086 15.91537611 56.40058346 17.43336251 56.45263672 18.95092773 C56.52576394 21.13829199 56.55951745 23.3233517 56.5859375 25.51171875 C56.6173584 26.82615967 56.6487793 28.14060059 56.68115234 29.49487305 C55.97651506 33.12085064 55.73803636 33.66201373 53.1081543 35.91552734 C49.29748677 38.471138 47.32580407 39.03375538 42.83203125 38.8046875 C37.21819689 37.20958422 32.99072052 33.09463009 28.63037109 29.36816406 C26.14581921 27.2831942 23.54427408 25.36617206 20.9375 23.4375 C19.48150391 22.34888672 19.48150391 22.34888672 17.99609375 21.23828125 C17.00738281 20.49964844 16.01867187 19.76101562 15 19 C12.83262947 17.37593786 10.66630739 15.75047984 8.5 14.125 C7.5409375 13.40570313 6.581875 12.68640625 5.59375 11.9453125 C3 10 3 10 0.96875 8.1796875 C-1.35389001 6.48816937 -1.35389001 6.48816937 -6 8 C-6.33 17.9 -6.66 27.8 -7 38 C-9.475 38.495 -9.475 38.495 -12 39 C-15.61200164 35.38799836 -14.45199654 29.73657335 -14.48046875 24.84350586 C-14.49976207 22.83724213 -14.56211723 20.8315427 -14.625 18.82617188 C-14.71287629 7.94598865 -14.71287629 7.94598865 -11.09375 3.63671875 C-7.50620366 0.2168607 -4.98488639 -0.3834528 0 0 Z " fill="#EAEAEA" transform="translate(287,141)"/>
<path d="M0 0 C2.31429611 1.31271854 4.22995533 2.5767676 6.3125 4.1875 C7.20557861 4.8515686 7.20557861 4.8515686 8.11669922 5.52905273 C10.09004452 7.00384997 12.04558694 8.50022188 14 10 C15.42290913 11.08108194 16.8460919 12.1618038 18.26953125 13.2421875 C29.8159493 22.03643498 29.8159493 22.03643498 34.5703125 25.86328125 C35.11220215 26.29116943 35.6540918 26.71905762 36.21240234 27.15991211 C37.64455322 28.29167059 39.06496367 29.43824205 40.484375 30.5859375 C42.92339884 32.26309517 42.92339884 32.26309517 45.765625 31.7890625 C47.94298939 31.20077411 47.94298939 31.20077411 49 30 C49.1584265 27.9291528 49.25124422 25.85321971 49.31640625 23.77734375 C49.37924805 21.88725586 49.37924805 21.88725586 49.44335938 19.95898438 C49.48317596 18.61849264 49.52288814 17.2779978 49.5625 15.9375 C49.60568042 14.59308477 49.64929456 13.2486834 49.69335938 11.90429688 C49.79985358 8.6029766 49.9018646 5.30157764 50 2 C51.65614657 1.61781233 53.32457024 1.28604898 55 1 C57.75389164 3.75389164 56.28494749 11.98260614 56.3125 15.6875 C56.35600586 17.60852539 56.35600586 17.60852539 56.40039062 19.56835938 C56.47939324 31.25466876 56.47939324 31.25466876 52 36 C49.56743172 38.43256828 48.7375196 38.36372649 45.37890625 38.47265625 C39.47771584 38.34651261 36.33358782 36.15671677 31.9375 32.4375 C30.9007312 31.61040527 30.9007312 31.61040527 29.84301758 30.76660156 C27.87929002 29.19635802 25.93957349 27.59988316 24 26 C22.40071665 24.7437582 20.79761098 23.49233383 19.1875 22.25 C18.51589844 21.72277344 17.84429688 21.19554687 17.15234375 20.65234375 C13.68362821 17.98942783 10.13035906 15.44445365 6.578125 12.89453125 C4.78476394 11.57668259 3.04191136 10.18844256 1.34375 8.75 C-0.88173417 6.69198574 -0.88173417 6.69198574 -3.75 7.1875 C-5.93976633 7.79813062 -5.93976633 7.79813062 -7 9 C-7.15858842 11.14386657 -7.25129298 13.29266838 -7.31640625 15.44140625 C-7.35830078 16.74658203 -7.40019531 18.05175781 -7.44335938 19.39648438 C-7.48317608 20.7851533 -7.52288825 22.17382522 -7.5625 23.5625 C-7.60567989 24.95509183 -7.649294 26.34767028 -7.69335938 27.74023438 C-7.79985876 31.16004801 -7.90186923 34.57993763 -8 38 C-9.875 38.625 -9.875 38.625 -12 39 C-15.33742438 35.66257562 -14.32978986 31.34743217 -14.37109375 26.80859375 C-14.37093262 26.1419873 -14.37077148 25.47538086 -14.37060547 24.78857422 C-14.37495487 22.7709358 -14.41119474 20.75552884 -14.44921875 18.73828125 C-14.45308594 17.45824219 -14.45695313 16.17820313 -14.4609375 14.859375 C-14.46915527 13.68858398 -14.47737305 12.51779297 -14.48583984 11.31152344 C-13.89930184 7.31363327 -12.47721264 5.15197363 -10 2 C-6.76785886 -0.37023684 -3.93191353 -0.36258364 0 0 Z " fill="#EEEEEE" transform="translate(527,141)"/>
<path d="M0 0 C1.58325829 0.01273453 1.58325829 0.01273453 3.19850159 0.02572632 C6.55136584 0.05916446 9.90177582 0.13443011 13.25390625 0.2109375 C15.53447034 0.2410493 17.81507234 0.26842296 20.09570312 0.29296875 C25.67010034 0.35892387 31.24307793 0.45917622 36.81640625 0.5859375 C37.31140625 1.5759375 37.31140625 1.5759375 37.81640625 2.5859375 C21.31640625 2.5859375 4.81640625 2.5859375 -12.18359375 2.5859375 C-12.84359375 3.9059375 -13.50359375 5.2259375 -14.18359375 6.5859375 C-15.17359375 6.9159375 -16.16359375 7.2459375 -17.18359375 7.5859375 C-17.18359375 11.8759375 -17.18359375 16.1659375 -17.18359375 20.5859375 C-17.51359375 20.5859375 -17.84359375 20.5859375 -18.18359375 20.5859375 C-18.37388373 18.38099006 -18.508977 16.17123913 -18.62109375 13.9609375 C-18.70230469 12.73117188 -18.78351563 11.50140625 -18.8671875 10.234375 C-18.03648498 5.80079696 -16.81587546 4.58800595 -13.40904236 1.83334351 C-9.16459213 -0.54575107 -4.74805768 -0.14503323 0 0 Z " fill="#4E4E4E" transform="translate(378.18359375,146.4140625)"/>
<path d="M0 0 C0.71623535 0.09796875 1.4324707 0.1959375 2.17041016 0.296875 C1.55166016 0.379375 0.93291016 0.461875 0.29541016 0.546875 C-1.97525465 1.0706346 -1.97525465 1.0706346 -2.71240234 3.078125 C-4.0523317 5.73924344 -5.71876084 7.4515668 -7.82958984 9.546875 C-8.88146484 10.60648438 -8.88146484 10.60648438 -9.95458984 11.6875 C-11.82958984 13.296875 -11.82958984 13.296875 -13.82958984 13.296875 C-14.08788574 13.88114258 -14.34618164 14.46541016 -14.61230469 15.06738281 C-15.9263212 17.47404122 -17.35438999 19.05006837 -19.30615234 20.96875 C-19.97646484 21.63261719 -20.64677734 22.29648438 -21.33740234 22.98046875 C-22.03607422 23.66238281 -22.73474609 24.34429687 -23.45458984 25.046875 C-24.16099609 25.74425781 -24.86740234 26.44164063 -25.59521484 27.16015625 C-27.33557688 28.87699988 -29.08043965 30.58899332 -30.82958984 32.296875 C-31.48958984 31.966875 -32.14958984 31.636875 -32.82958984 31.296875 C-27.41174107 24.88689298 -21.64632236 18.83299457 -15.74951172 12.86669922 C-14.71062822 11.81107013 -13.67716525 10.7500817 -12.64892578 9.68408203 C-11.14556542 8.12611445 -9.62654243 6.58510806 -8.10302734 5.046875 C-7.21019043 4.13421875 -6.31735352 3.2215625 -5.39746094 2.28125 C-2.82958984 0.296875 -2.82958984 0.296875 0 0 Z " fill="#C4C4C4" transform="translate(167.82958984375,97.703125)"/>
<path d="M0 0 C0.81597656 0.165 1.63195312 0.33 2.47265625 0.5 C2.47265625 0.83 2.47265625 1.16 2.47265625 1.5 C1.04953125 1.87125 1.04953125 1.87125 -0.40234375 2.25 C-4.00533686 3.69119724 -4.05033423 4.15211176 -5.52734375 7.5 C-7.16338571 8.87073786 -8.83412436 10.20055256 -10.52734375 11.5 C-12.20838982 13.15216212 -13.8725729 14.82152183 -15.52734375 16.5 C-16.56427495 17.53858897 -17.60206563 18.5763204 -18.640625 19.61328125 C-19.16591797 20.13857422 -19.69121094 20.66386719 -20.23242188 21.20507812 C-22.6640625 23.63671875 -25.09570312 26.06835938 -27.52734375 28.5 C-27.52734375 24.89299626 -26.92441939 24.45998033 -24.5625 21.875 C-23.92199707 21.17117187 -23.28149414 20.46734375 -22.62158203 19.7421875 C-21.58493408 18.63230469 -21.58493408 18.63230469 -20.52734375 17.5 C-19.84269043 16.76007813 -19.15803711 16.02015625 -18.45263672 15.2578125 C-16.31599213 12.97872494 -14.14554162 10.73691142 -11.96484375 8.5 C-10.87139648 7.33791016 -10.87139648 7.33791016 -9.75585938 6.15234375 C-4.3295659 0.61371477 -4.3295659 0.61371477 0 0 Z " fill="#CCCCCC" transform="translate(219.52734375,108.5)"/>
<path d="M0 0 C1.32 0.99 2.64 1.98 4 3 C0.37 2.67 -3.26 2.34 -7 2 C-7.66 3.32 -8.32 4.64 -9 6 C-9.99 6.33 -10.98 6.66 -12 7 C-12.33 16.9 -12.66 26.8 -13 37 C-13.33 37 -13.66 37 -14 37 C-14.14935324 32.99848192 -14.2576761 28.99806236 -14.32958984 24.99438477 C-14.35959295 23.63537303 -14.40041185 22.27655219 -14.45263672 20.91821289 C-14.92971964 8.18196974 -14.92971964 8.18196974 -11.1015625 3.62890625 C-7.51919434 0.22886768 -4.97163413 -0.39773073 0 0 Z " fill="#A6A6A6" transform="translate(287,141)"/>
<path d="M0 0 C0.598125 0.226875 1.19625 0.45375 1.8125 0.6875 C0.8225 0.6875 -0.1675 0.6875 -1.1875 0.6875 C-3.28284185 4.14297603 -3.48821628 6.97947531 -3.6015625 10.984375 C-3.64023437 12.18964844 -3.67890625 13.39492187 -3.71875 14.63671875 C-3.7496875 15.89097656 -3.780625 17.14523438 -3.8125 18.4375 C-3.85117187 19.70722656 -3.88984375 20.97695312 -3.9296875 22.28515625 C-4.02394222 25.4191257 -4.10955166 28.55308949 -4.1875 31.6875 C-4.5175 31.6875 -4.8475 31.6875 -5.1875 31.6875 C-5.26170211 27.61247206 -5.3161257 23.53770608 -5.35229492 19.4621582 C-5.36737397 18.07602081 -5.3878405 16.68993106 -5.41381836 15.30395508 C-5.45023716 13.31091854 -5.46563018 11.31753277 -5.48046875 9.32421875 C-5.50403442 7.52537231 -5.50403442 7.52537231 -5.52807617 5.69018555 C-5.1875 2.6875 -5.1875 2.6875 -3.8059082 0.75317383 C-2.1875 -0.3125 -2.1875 -0.3125 0 0 Z " fill="#494949" transform="translate(524.1875,147.3125)"/>
<path d="M0 0 C0.825 0.165 1.65 0.33 2.5 0.5 C2.5 0.83 2.5 1.16 2.5 1.5 C1.076875 1.87125 1.076875 1.87125 -0.375 2.25 C-3.97799311 3.69119724 -4.02299048 4.15211176 -5.5 7.5 C-7.12626404 8.88232443 -8.7925002 10.21937515 -10.5 11.5 C-11.16 12.16 -11.82 12.82 -12.5 13.5 C-11.85049377 8.12510061 -9.44119226 5.75163149 -5.64453125 2.10546875 C-3.5 0.5 -3.5 0.5 0 0 Z " fill="#B9B9B9" transform="translate(219.5,108.5)"/>
<path d="M0 0 C0.33 0.66 0.66 1.32 1 2 C-0.07192184 3.3218362 -1.15802695 4.63217927 -2.25 5.9375 C-2.85328125 6.66839844 -3.4565625 7.39929688 -4.078125 8.15234375 C-6.10741134 10.10326334 -7.254407 10.61731779 -10 11 C-6.79239749 7.19364503 -3.59253891 3.45436433 0 0 Z " fill="#2F2F2F" transform="translate(194,205)"/>
<path d="M0 0 C0.33 0.99 0.66 1.98 1 3 C-1.64 5.31 -4.28 7.62 -7 10 C-7.66 9.67 -8.32 9.34 -9 9 C-6.03 6.03 -3.06 3.06 0 0 Z " fill="#3E3E3E" transform="translate(153,122)"/>
<path d="M0 0 C0.33 0.99 0.66 1.98 1 3 C-0.65 4.65 -2.3 6.3 -4 8 C-4.99 7.67 -5.98 7.34 -7 7 C-4.69 4.69 -2.38 2.38 0 0 Z " fill="#2C2C2C" transform="translate(215,184)"/>
<path d="M0 0 C0.33 0.99 0.66 1.98 1 3 C-1.97 5.475 -1.97 5.475 -5 8 C-5.66 7.67 -6.32 7.34 -7 7 C-4.69 4.69 -2.38 2.38 0 0 Z " fill="#363636" transform="translate(212,125)"/>
<path d="M0 0 C0.33 0.99 0.66 1.98 1 3 C-0.25 5.1875 -0.25 5.1875 -2 7 C-2.99 7 -3.98 7 -5 7 C-3.70700306 4.11562221 -2.34058637 2.12780579 0 0 Z " fill="#383838" transform="translate(204,133)"/>
</svg>
