<?xml version="1.0" encoding="UTF-8"?>
<svg version="1.1" xmlns="http://www.w3.org/2000/svg" width="666" height="348">
<path d="M0 0 C219.78 0 439.56 0 666 0 C666 114.84 666 229.68 666 348 C446.22 348 226.44 348 0 348 C0 233.16 0 118.32 0 0 Z " fill="#030303" transform="translate(0,0)"/>
<path d="M0 0 C1.22009766 -0.00515625 2.44019531 -0.0103125 3.69726562 -0.015625 C5.59702148 0.00757812 5.59702148 0.00757812 7.53515625 0.03125 C8.79779297 0.01578125 10.06042969 0.0003125 11.36132812 -0.015625 C13.1934082 -0.00789063 13.1934082 -0.00789063 15.0625 0 C16.72720337 0.00676758 16.72720337 0.00676758 18.42553711 0.01367188 C25.65810332 1.19377196 30.42092021 7.07236579 35.3671875 12.0703125 C36.08879562 12.79237885 36.81040375 13.51444519 37.55387878 14.25839233 C39.06979158 15.7773136 40.58328597 17.29865192 42.09448242 18.82226562 C44.41464201 21.16077123 46.74279419 23.49108624 49.07226562 25.8203125 C50.54604728 27.29900653 52.01937091 28.77815724 53.4921875 30.2578125 C54.1900386 30.95677643 54.88788971 31.65574036 55.60688782 32.37588501 C56.56875252 33.34731949 56.56875252 33.34731949 57.55004883 34.33837891 C58.11597244 34.90811432 58.68189606 35.47784973 59.26496887 36.06484985 C61.38349422 38.39593359 61.59622665 39.50633845 61.78125 42.73046875 C61.30090404 52.67465219 56.98975192 61.02300253 50.46484375 68.34765625 C38.92471325 77.13639324 26.82600149 76.30876159 12.91015625 76.34375 C10.74411576 76.36692227 8.57809761 76.39229322 6.41210938 76.41992188 C1.14061555 76.48241749 -4.13050887 76.51763713 -9.40234375 76.53125 C-10.03462891 78.13806641 -10.03462891 78.13806641 -10.6796875 79.77734375 C-11.23293694 81.17453302 -11.78632977 82.57166551 -12.33984375 83.96875 C-12.61763672 84.67580078 -12.89542969 85.38285156 -13.18164062 86.11132812 C-15.2890625 91.41796875 -15.2890625 91.41796875 -16.40234375 92.53125 C-18.40199357 92.61883003 -20.40470485 92.63821576 -22.40625 92.62890625 C-24.22866211 92.62407227 -24.22866211 92.62407227 -26.08789062 92.61914062 C-27.36728516 92.61076172 -28.64667969 92.60238281 -29.96484375 92.59375 C-31.24810547 92.58923828 -32.53136719 92.58472656 -33.85351562 92.58007812 C-37.03650397 92.56824545 -40.21940137 92.55176068 -43.40234375 92.53125 C-43.70260099 86.81206452 -43.51864693 82.70458114 -40.77734375 77.53125 C-38.27866572 72.50463542 -36.25774475 67.53583712 -34.46484375 62.21875 C-32.24765959 55.7009931 -29.6965493 49.42466689 -26.87402344 43.1472168 C-24.78024264 38.47130129 -22.98867357 33.75310471 -21.3046875 28.91796875 C-20.43618186 26.62075254 -19.42313529 24.51361897 -18.27734375 22.34375 C-16.89482813 19.71320472 -16.00257216 17.30363289 -15.33984375 14.40625 C-13.21181873 5.61041325 -9.57559242 0.0389676 0 0 Z " fill="#FBFBFB" transform="translate(368.40234375,124.46875)"/>
<path d="M0 0 C9.24 0 18.48 0 28 0 C28 9.83327442 23.57872661 18.06211683 19.12109375 26.671875 C17.35587366 30.33762822 16.23821565 34.12384666 15 38 C13.02 42.95 13.02 42.95 11 48 C20.24 48 29.48 48 39 48 C39.33 46.35 39.66 44.7 40 43 C41.02435336 40.39255508 42.08171401 37.82209659 43.1875 35.25 C46.82714041 26.62140298 49.97298606 17.85928256 53 9 C53.66 9 54.32 9 55 9 C55.185625 7.329375 55.185625 7.329375 55.375 5.625 C56 2 56 2 58 0 C60.70556641 -0.22705078 60.70556641 -0.22705078 64.1015625 -0.1953125 C65.31328125 -0.18886719 66.525 -0.18242188 67.7734375 -0.17578125 C69.04445313 -0.15902344 70.31546875 -0.14226562 71.625 -0.125 C72.90375 -0.11597656 74.1825 -0.10695313 75.5 -0.09765625 C78.66685167 -0.07402303 81.83333424 -0.04107629 85 0 C86.20679207 4.01906296 85.53218548 5.96387537 83.9375 9.875 C83.47214844 11.02871094 83.00679688 12.18242187 82.52734375 13.37109375 C81.04066834 16.90337368 79.5258913 20.42200498 78 23.9375 C75.48820909 29.73196393 73.30330707 35.58717978 71.21875 41.546875 C69.26598489 47.07970947 67.15160136 52.54210455 65 58 C64.69578125 58.84691406 64.3915625 59.69382813 64.078125 60.56640625 C61.57681345 67.05006907 57.28443363 71.85778318 51 75 C47.30002731 75.37579762 43.59140909 75.41741313 39.875 75.5 C38.8540625 75.55414063 37.833125 75.60828125 36.78125 75.6640625 C31.817067 75.75339227 28.06994721 75.68286927 24.1875 72.38671875 C22.77130221 70.9441935 21.37930147 69.47784395 20 68 C18.90497608 66.91817998 17.80436645 65.84199878 16.69970703 64.77001953 C13.47855857 61.64000897 10.29189555 58.4775919 7.11621094 55.30151367 C5.11411809 53.3016301 3.10412576 51.30991231 1.09375 49.31835938 C-0.18538407 48.04215584 -1.46404706 46.76547992 -2.7421875 45.48828125 C-3.34110809 44.89654617 -3.94002869 44.3048111 -4.55709839 43.69514465 C-5.38904221 42.85858589 -5.38904221 42.85858589 -6.23779297 42.00512695 C-6.72440399 41.51994095 -7.21101501 41.03475494 -7.71237183 40.53486633 C-10.62019128 37.06871494 -11.43428473 33.94435514 -11.32421875 29.40625 C-10.64903521 24.39524928 -8.7512634 19.71885885 -7 15 C-6.73832031 14.24074219 -6.47664063 13.48148438 -6.20703125 12.69921875 C-4.55840033 8.00836281 -2.53626973 4.43847203 0 0 Z " fill="#FAFAFA" transform="translate(263,125)"/>
<path d="M0 0 C1.11503906 -0.020625 2.23007813 -0.04125 3.37890625 -0.0625 C4.44753906 -0.06765625 5.51617187 -0.0728125 6.6171875 -0.078125 C8.09227783 -0.09214355 8.09227783 -0.09214355 9.59716797 -0.10644531 C12.125 0.25 12.125 0.25 13.89624023 1.41040039 C15.56296136 3.90568028 15.85654859 6.04707147 16.29296875 9.01171875 C16.46376953 10.12998047 16.63457031 11.24824219 16.81054688 12.40039062 C16.97619141 13.56763672 17.14183594 14.73488281 17.3125 15.9375 C17.48974609 17.11634766 17.66699219 18.29519531 17.84960938 19.50976562 C18.28581331 22.42172159 18.71045654 25.33489493 19.125 28.25 C19.82367188 27.53972656 20.52234375 26.82945312 21.2421875 26.09765625 C22.15226562 25.17855469 23.06234375 24.25945312 24 23.3125 C24.90492188 22.39597656 25.80984375 21.47945312 26.7421875 20.53515625 C30.63125469 16.80547706 33.61279307 17.1161351 38.7578125 17.15234375 C39.50964813 17.1537587 40.26148376 17.15517365 41.03610229 17.15663147 C43.4407751 17.16223535 45.84535527 17.17478843 48.25 17.1875 C49.87890491 17.1925145 51.50781127 17.1970775 53.13671875 17.20117188 C57.13284827 17.21220603 61.12890842 17.22947321 65.125 17.25 C64.5558379 20.97951723 63.08631848 22.62945228 60.40307617 25.21728516 C59.61523239 25.98553619 58.82738861 26.75378723 58.01567078 27.5453186 C57.15842911 28.36825409 56.30118744 29.19118958 55.41796875 30.0390625 C53.61611541 31.80295541 51.81469692 33.56729262 50.01367188 35.33203125 C47.16881944 38.10263179 44.31948641 40.8682595 41.46166992 43.62548828 C38.70447476 46.29158195 35.96664084 48.97642037 33.23046875 51.6640625 C31.95371529 52.88024765 31.95371529 52.88024765 30.65116882 54.1210022 C25.96592357 58.74668285 22.97173719 62.73882764 20.87519836 69.01498413 C20.13781548 71.2118197 19.2191382 73.14873812 18.125 75.1875 C15.99578988 79.28664862 14.5280246 83.55838156 13.0546875 87.9296875 C12.125 90.25 12.125 90.25 10.125 92.25 C4.0054516 91.82928498 0.90780439 87.69440229 -3.1875 83.5625 C-3.92806641 82.85416016 -4.66863281 82.14582031 -5.43164062 81.41601562 C-10.6935705 76.16378516 -10.6935705 76.16378516 -11.515625 72.0234375 C-10.83953186 69.09644892 -9.89671503 67.10501404 -8.3125 64.5625 C-3.70404316 55.78946034 -7.12544951 46.79278511 -9.04296875 37.5546875 C-14.12228814 12.09181234 -14.12228814 12.09181234 -12.875 1.25 C-10.33772367 -1.28727633 -3.41013244 0.01566077 0 0 Z " fill="#F9F9F9" transform="translate(189.875,107.75)"/>
<path d="M0 0 C9.57 0 19.14 0 29 0 C28.2584293 3.70785352 27.65666807 6.08606933 26.125 9.375 C24.34543262 13.22839394 22.67517485 17.09125869 21 21 C11.43 21 1.86 21 -8 21 C-6.88 14.28 -6.88 14.28 -5.125 11.0625 C-3.15840866 7.41578929 -1.66224982 3.87858292 0 0 Z " fill="#121212" transform="translate(378,152)"/>
</svg>
