<?xml version="1.0" encoding="UTF-8"?>
<svg version="1.1" xmlns="http://www.w3.org/2000/svg" width="610" height="229">
<path d="M0 0 C201.3 0 402.6 0 610 0 C610 75.57 610 151.14 610 229 C408.7 229 207.4 229 0 229 C0 153.43 0 77.86 0 0 Z " fill="#030303" transform="translate(0,0)"/>
<path d="M0 0 C0.92474121 0.00829834 1.84948242 0.01659668 2.80224609 0.02514648 C19.11392031 0.42545919 31.4157033 7.12597489 42.5859375 18.828125 C50.79953244 28.45388188 54.3534322 38.38286622 54.125 50.9375 C54.12822266 51.82308594 54.13144531 52.70867187 54.13476562 53.62109375 C54.08730349 59.49776896 53.26486322 64.74377326 51.8125 70.4375 C51.1525 70.4375 50.4925 70.4375 49.8125 70.4375 C49.503125 71.6440625 49.503125 71.6440625 49.1875 72.875 C44.10803342 86.03543614 33.62438645 95.0125316 21.0234375 100.6953125 C9.62744822 104.9062336 -5.3275146 105.85480208 -16.8125 101.4375 C-33.40199217 93.03625931 -43.02740061 80.79689658 -49.1875 63.4375 C-50.47273033 52.35859855 -50.79411359 39.33152398 -45.1875 29.4375 C-44.40632813 28.02984375 -44.40632813 28.02984375 -43.609375 26.59375 C-34.22434706 10.86748697 -18.67160089 -0.2162405 0 0 Z " fill="#D3D3D3" transform="translate(149.1875,56.5625)"/>
<path d="M0 0 C10.66455688 7.7253494 17.76094271 17.38280762 21.125 30.1875 C23.13631317 44.7098042 19.54332434 59.16132237 11.125 71.1875 C7.95855302 74.71420143 4.62760863 77.99638819 1.125 81.1875 C-1.875 80.1875 -1.875 80.1875 -3.2265625 78.04296875 C-3.64679688 77.16253906 -4.06703125 76.28210938 -4.5 75.375 C-5.13808594 74.06595703 -5.13808594 74.06595703 -5.7890625 72.73046875 C-6.72511879 70.53848083 -7.38711657 68.51307769 -7.875 66.1875 C-6.89660156 65.7853125 -6.89660156 65.7853125 -5.8984375 65.375 C2.09067975 61.79285893 6.40880079 57.39771576 10 49.4375 C12.26345726 42.53869913 12.22804727 34.99968193 9.375 28.3125 C8.65256631 26.92281854 7.9044058 25.54604761 7.125 24.1875 C6.5475 23.115 5.97 22.0425 5.375 20.9375 C2.45693103 17.37097126 -0.80184201 15.28096668 -4.875 13.1875 C-5.54660156 12.83945313 -6.21820313 12.49140625 -6.91015625 12.1328125 C-11.10106013 10.79658228 -15.03906284 10.94827237 -19.41015625 10.984375 C-21.28972051 10.97383232 -23.16927828 10.96207695 -25.04882812 10.94921875 C-28.00072305 10.93888109 -30.95170952 10.93759591 -33.90356445 10.95751953 C-36.7607104 10.97225812 -39.61565263 10.94986988 -42.47265625 10.921875 C-43.35502457 10.93724304 -44.23739288 10.95261108 -45.14649963 10.96844482 C-47.53372321 10.93047717 -49.57521715 10.82999499 -51.875 10.1875 C-55.17538204 6.62150556 -55.875 5.06887204 -55.875 0.1875 C-54.02485947 -0.77858323 -52.16966527 -1.7349907 -50.3125 -2.6875 C-49.27996094 -3.22117187 -48.24742187 -3.75484375 -47.18359375 -4.3046875 C-31.63168006 -11.39210035 -14.26940684 -8.87279982 0 0 Z " fill="#0B0B0B" transform="translate(178.875,67.8125)"/>
<path d="M0 0 C0.52207031 0.93457031 1.04414062 1.86914062 1.58203125 2.83203125 C2.3255078 4.15886147 3.06899859 5.48568371 3.8125 6.8125 C4.20614746 7.51793945 4.59979492 8.22337891 5.00537109 8.95019531 C7.30606734 13.05442996 9.65719521 17.12005771 12.08203125 21.15234375 C12.58822998 22.00143311 13.09442871 22.85052246 13.6159668 23.7253418 C14.61122778 25.39044353 15.61641667 27.04965665 16.63208008 28.70239258 C17.08607178 29.46575928 17.54006348 30.22912598 18.0078125 31.015625 C18.41660645 31.68883789 18.82540039 32.36205078 19.24658203 33.05566406 C20.20457093 35.52793353 19.93002478 36.54154626 19 39 C18.30305668 40.44648613 17.55759522 41.87013434 16.77734375 43.2734375 C16.32464111 44.09231445 15.87193848 44.91119141 15.40551758 45.75488281 C14.92107178 46.61952148 14.43662598 47.48416016 13.9375 48.375 C13.44596436 49.26026367 12.95442871 50.14552734 12.44799805 51.05761719 C8.35857933 58.40594716 4.20732029 65.71856316 0 73 C-3.64595139 72.44397255 -5.05683192 71.24976553 -7.3125 68.375 C-14.96569384 57.77317304 -18.62167091 49.19259632 -18.6875 36.125 C-18.69801392 34.68133057 -18.69801392 34.68133057 -18.70874023 33.20849609 C-18.54123481 26.63660531 -17.01659132 21.79457815 -14 16 C-13.39123252 14.64789539 -12.78639904 13.29400458 -12.1875 11.9375 C-9.70014002 7.03187337 -5.89873589 0 0 0 Z " fill="#070707" transform="translate(121,72)"/>
<path d="M0 0 C5.37100984 -0.1245596 10.74116011 -0.21478702 16.11328125 -0.2746582 C17.93667262 -0.29964279 19.75996548 -0.33364279 21.58300781 -0.37719727 C34.14654105 -0.66961247 43.18236235 -0.36634539 52.9375 8.375 C58.67181109 14.70438111 59.63787437 20.30880942 59.40625 28.71484375 C58.37482088 37.05553503 54.14843985 42.51668698 47.8671875 47.8203125 C46 49 46 49 43 49 C43 49.66 43 50.32 43 51 C41.68 51 40.36 51 39 51 C38.45472656 49.9584375 37.90945312 48.916875 37.34765625 47.84375 C33.34047187 40.21396337 29.29256821 32.60605073 25.125 25.0625 C24.75640869 24.38316406 24.38781738 23.70382813 24.00805664 23.00390625 C22.23094229 19.81628649 21.09054812 18.06036541 18 16 C16.92474806 18.65228812 15.90543849 21.28368454 15 24 C14.34 24 13.68 24 13 24 C11.01644267 20.56501573 9.03891556 17.12659767 7.0625 13.6875 C6.49853516 12.71103516 5.93457031 11.73457031 5.35351562 10.72851562 C4.81533203 9.79072266 4.27714844 8.85292969 3.72265625 7.88671875 C3.22515869 7.02264404 2.72766113 6.15856934 2.21508789 5.26831055 C1 3 1 3 0 0 Z " fill="#070707" transform="translate(129,81)"/>
<path d="M0 0 C0.66 0 1.32 0 2 0 C3.35278115 1.98689731 4.68568305 3.98745218 6 6 C8.72910002 7.36455001 10.90947155 7.10973371 13.9609375 7.10546875 C15.75144531 7.12770508 15.75144531 7.12770508 17.578125 7.15039062 C20.10144736 7.17505273 22.62503553 7.18038282 25.1484375 7.16601562 C34.11502503 7.3254431 34.11502503 7.3254431 36.70141602 9.296875 C37.77734375 10.88671875 37.77734375 10.88671875 39 14 C39.5878125 15.299375 39.5878125 15.299375 40.1875 16.625 C40.91092336 18.73962213 41.47361549 20.83038039 42 23 C40.81679424 23.63309191 39.62812152 24.25596718 38.4375 24.875 C37.77621094 25.22304687 37.11492187 25.57109375 36.43359375 25.9296875 C30.33683659 28.61108631 24.74971283 29.36047041 18.1875 29.3125 C17.39287354 29.30758545 16.59824707 29.3026709 15.77954102 29.29760742 C5.83846241 29.09949702 -1.56360972 26.15557184 -10 21 C-9.4462522 15.89545207 -6.97407204 12.03424443 -4.4375 7.6875 C-4.01275391 6.94693359 -3.58800781 6.20636719 -3.15039062 5.44335938 C-2.10648347 3.62531882 -1.05407808 1.81216252 0 0 Z " fill="#0A0A0A" transform="translate(133,128)"/>
<path d="M0 0 C0.92474121 0.00829834 1.84948242 0.01659668 2.80224609 0.02514648 C19.11392031 0.42545919 31.4157033 7.12597489 42.5859375 18.828125 C50.79953244 28.45388188 54.3534322 38.38286622 54.125 50.9375 C54.12822266 51.82308594 54.13144531 52.70867187 54.13476562 53.62109375 C54.08730349 59.49776896 53.26486322 64.74377326 51.8125 70.4375 C51.1525 70.4375 50.4925 70.4375 49.8125 70.4375 C49.503125 71.6440625 49.503125 71.6440625 49.1875 72.875 C44.10803342 86.03543614 33.62438645 95.0125316 21.0234375 100.6953125 C11.42933532 104.24042002 -0.03900226 104.86737359 -10.1875 103.4375 C-11.1775 102.7775 -12.1675 102.1175 -13.1875 101.4375 C-9.8875 101.4375 -6.5875 101.4375 -3.1875 101.4375 C-3.1875 101.1075 -3.1875 100.7775 -3.1875 100.4375 C-2.31609375 100.41171875 -1.4446875 100.3859375 -0.546875 100.359375 C7.88132602 99.95803209 14.9588409 98.47273057 22.8125 95.4375 C23.8025 95.1075 24.7925 94.7775 25.8125 94.4375 C25.35875 93.715625 24.905 92.99375 24.4375 92.25 C21.43617564 87.05540014 20.57488289 83.49673635 20.8125 77.4375 C24.63851624 81.67344655 26.67612904 86.22157302 28.8125 91.4375 C38.49685889 87.01821832 43.11814716 77.84388694 47.07421875 68.4375 C51.45459034 56.14172011 51.69124656 43.31637568 46.359375 31.3046875 C39.31371554 18.24530861 28.4167953 10.06332462 14.4765625 5.296875 C1.94198487 2.35699538 -9.55362859 4.29803873 -21.1875 9.4375 C-22.85229579 10.10882496 -24.51829211 10.77722183 -26.1875 11.4375 C-25.6925 12.530625 -25.1975 13.62375 -24.6875 14.75 C-23.1875 18.4375 -23.1875 18.4375 -23.1875 21.4375 C-23.8475 21.7675 -24.5075 22.0975 -25.1875 22.4375 C-28.1875 17.6875 -28.1875 17.6875 -28.1875 15.4375 C-33.96886404 18.1581419 -37.67580437 23.16215946 -40.3125 28.875 C-40.60125 29.720625 -40.89 30.56625 -41.1875 31.4375 C-41.66509766 32.26507813 -41.66509766 32.26507813 -42.15234375 33.109375 C-46.43626016 40.97592614 -45.99890106 49.69593902 -46.1875 58.4375 C-46.5175 58.4375 -46.8475 58.4375 -47.1875 58.4375 C-47.5175 55.4675 -47.8475 52.4975 -48.1875 49.4375 C-48.5175 49.4375 -48.8475 49.4375 -49.1875 49.4375 C-50.02943103 36.59805175 -44.45556992 26.37916038 -36.63671875 16.47265625 C-27.14173063 6.08235908 -13.95550447 -0.1616222 0 0 Z " fill="#CCCCCC" transform="translate(149.1875,56.5625)"/>
<path d="M0 0 C16.02702703 0 16.02702703 0 21 4 C25.6620197 9.15275862 26.34762222 12.35416089 26.28515625 19.171875 C25.76183787 24.36204631 23.32874415 27.42211633 20 31.375 C14.41042888 35.91652654 6.80191321 34 0 34 C0 22.78 0 11.56 0 0 Z " fill="#0D0D0D" transform="translate(298,89)"/>
<path d="M0 0 C15.77813505 0 15.77813505 0 21 4 C25.711424 9.07384123 26.35712658 12.39919899 26.27734375 19.171875 C25.85213942 23.50776137 24.6784431 25.54621811 22 29 C14.20518953 35.04495506 11.06176628 34 0 34 C0 22.78 0 11.56 0 0 Z " fill="#080808" transform="translate(257,89)"/>
<path d="M0 0 C2.49411267 1.16157263 4.671907 2.51002048 7 4 C7 3.01 7 2.02 7 1 C7.99 1 8.98 1 10 1 C10.11647041 5.54144994 10.18734502 10.08251394 10.25 14.625 C10.28351563 15.91019531 10.31703125 17.19539063 10.3515625 18.51953125 C10.47477167 30.40921574 10.47477167 30.40921574 6 35 C3.52621876 36.23689062 1.82084683 36.13310087 -0.9375 36.125 C-1.81277344 36.12757813 -2.68804687 36.13015625 -3.58984375 36.1328125 C-6 36 -6 36 -9 35 C-9 34.01 -9 33.02 -9 32 C-8.16855469 32.04640625 -7.33710938 32.0928125 -6.48046875 32.140625 C-5.39378906 32.17671875 -4.30710937 32.2128125 -3.1875 32.25 C-2.10855469 32.29640625 -1.02960938 32.3428125 0.08203125 32.390625 C3.08378003 32.2892918 3.08378003 32.2892918 4.84375 30.15625 C6.12507411 27.76675369 6.62835813 25.67582147 7 23 C6.17822266 23.72703125 6.17822266 23.72703125 5.33984375 24.46875 C1.23169614 27.15722056 -3.27098959 26.75776428 -8 26 C-11.94626013 23.10070685 -14.58117333 19.72237334 -15.3359375 14.81640625 C-15.40418756 10.87837765 -15.34568606 8.58894662 -13.3125 5.125 C-9.03277461 1.19227938 -5.94460385 -0.83224454 0 0 Z " fill="#DEDEDE" transform="translate(397,97)"/>
<path d="M0 0 C3.62049578 1.43362561 4.8874247 2.98378689 6.69140625 6.39453125 C7.39620117 7.70454102 7.39620117 7.70454102 8.11523438 9.04101562 C8.59283203 9.95560547 9.07042969 10.87019531 9.5625 11.8125 C10.52146248 13.61103605 11.48107854 15.4092238 12.44140625 17.20703125 C12.88500488 18.04830566 13.32860352 18.88958008 13.78564453 19.75634766 C14.74151115 21.52241404 15.77694602 23.24542303 16.83984375 24.94921875 C18 27 18 27 18 30 C14.08372337 30.14522934 10.16813847 30.23404757 6.25 30.3125 C5.13882813 30.35439453 4.02765625 30.39628906 2.8828125 30.43945312 C-5.32452308 30.56305758 -5.32452308 30.56305758 -8.74609375 27.7109375 C-10.33683127 24.27177289 -10.35354804 21.74760921 -10 18 C-9.67 17.34 -9.34 16.68 -9 16 C-8.34 16 -7.68 16 -7 16 C-6.89816406 15.29488281 -6.79632813 14.58976562 -6.69140625 13.86328125 C-5.90085188 10.58940355 -4.59476266 8.11415533 -2.9375 5.1875 C-2.11572266 3.72376953 -2.11572266 3.72376953 -1.27734375 2.23046875 C-0.85582031 1.49441406 -0.43429688 0.75835937 0 0 Z " fill="#0F0F0F" transform="translate(147,103)"/>
<path d="M0 0 C0.99 0 1.98 0 3 0 C6.97983633 7.00873831 9.55796031 14.26632669 11.94384766 21.92919922 C12.18280762 22.68475098 12.42176758 23.44030273 12.66796875 24.21875 C12.87703857 24.89873047 13.0861084 25.57871094 13.30151367 26.27929688 C13.95844856 28.21793155 13.95844856 28.21793155 16 30 C16 31.32 16 32.64 16 34 C15.01 34 14.02 34 13 34 C12.01 31.36 11.02 28.72 10 26 C4.39 26 -1.22 26 -7 26 C-7.66 28.64 -8.32 31.28 -9 34 C-10.32 34 -11.64 34 -13 34 C-13 32.68 -13 31.36 -13 30 C-12.34 30 -11.68 30 -11 30 C-10.75378906 28.7315625 -10.50757813 27.463125 -10.25390625 26.15625 C-9.03953382 20.69531882 -7.0651891 15.66126372 -4.9375 10.5 C-4.39125977 9.14261719 -4.39125977 9.14261719 -3.83398438 7.7578125 C-1.1503042 1.1503042 -1.1503042 1.1503042 0 0 Z " fill="#D1D1D1" transform="translate(237,89)"/>
<path d="M0 0 C2.86661017 1.86905176 4.67863387 3.83875699 6 7 C6 9.31 6 11.62 6 14 C-0.93 14 -7.86 14 -15 14 C-13.34922098 17.75170424 -13.34922098 17.75170424 -11 21 C-5.96238984 21.31718286 -0.90038887 21.30677037 4 20 C3 23 3 23 0.375 24.6875 C-3.50792334 26.19752574 -5.87074049 26.58989422 -10 26 C-14.29715175 23.16225828 -16.47798467 20.88045291 -18 16 C-18.37920061 10.50159114 -17.95099966 6.27634165 -14.625 1.8125 C-10.20240077 -1.08248645 -5.02695316 -1.16923207 0 0 Z " fill="#D6D6D6" transform="translate(455,98)"/>
<path d="M0 0 C3.12291165 1.68012647 5.39164837 3.78329674 7 7 C7 9.31 7 11.62 7 14 C0.07 14 -6.86 14 -14 14 C-12.34922098 17.75170424 -12.34922098 17.75170424 -10 21 C-8.23146708 21.09938863 -6.45881725 21.12969223 -4.6875 21.125 C-3.23923828 21.12886719 -3.23923828 21.12886719 -1.76171875 21.1328125 C0.66143705 21.01628167 2.68644969 20.69241648 5 20 C4 23 4 23 2.2421875 24.16015625 C-1.79922157 25.67392446 -5.76316231 25.66721853 -10 25 C-13.62160551 23.11299112 -15.68934422 20.93196733 -17 17 C-17.50379515 12.12722723 -17.76454531 8.26545431 -15.1875 4 C-10.32059868 -0.44973835 -6.39705388 -1.00326466 0 0 Z " fill="#C8C8C8" transform="translate(344,98)"/>
<path d="M0 0 C2.10740713 3.1611107 2.25551258 3.95367946 2.265625 7.5703125 C2.26949219 8.91609375 2.26949219 8.91609375 2.2734375 10.2890625 C2.26570313 11.22492188 2.25796875 12.16078125 2.25 13.125 C2.26160156 14.49398437 2.26160156 14.49398437 2.2734375 15.890625 C2.25635723 21.8858 1.49603465 27.19396077 0 33 C-0.66 33 -1.32 33 -2 33 C-2.20625 33.804375 -2.4125 34.60875 -2.625 35.4375 C-7.70446658 48.59793614 -18.18811355 57.5750316 -30.7890625 63.2578125 C-40.38316468 66.80292002 -51.85150226 67.42987359 -62 66 C-62.99 65.34 -63.98 64.68 -65 64 C-61.7 64 -58.4 64 -55 64 C-55 63.67 -55 63.34 -55 63 C-54.12859375 62.97421875 -53.2571875 62.9484375 -52.359375 62.921875 C-43.93117398 62.52053209 -36.8536591 61.03523057 -29 58 C-28.01 57.67 -27.02 57.34 -26 57 C-26.45375 56.278125 -26.9075 55.55625 -27.375 54.8125 C-30.37632436 49.61790014 -31.23761711 46.05923635 -31 40 C-27.17398376 44.23594655 -25.13637096 48.78407302 -23 54 C-13.3547539 49.59856674 -8.48287943 40.35743649 -4.7734375 30.859375 C-2.52335633 24.1576944 -1.48108897 17.83431356 -1.17578125 10.77734375 C-1.02222757 8.35119561 -0.59778076 6.33766298 0 4 C0 2.68 0 1.36 0 0 Z " fill="#DADADA" transform="translate(201,94)"/>
<path d="M0 0 C15.77813505 0 15.77813505 0 21 4 C25.711424 9.07384123 26.35712658 12.39919899 26.27734375 19.171875 C25.85213942 23.50776137 24.6784431 25.54621811 22 29 C14.20518953 35.04495506 11.06176628 34 0 34 C0 22.78 0 11.56 0 0 Z M3 3 C3 12.24 3 21.48 3 31 C13.34266128 31.26303075 13.34266128 31.26303075 20.3125 26 C22.846268 21.49552356 22.62538034 17.06121763 22 12 C20.90558293 8.60877939 20.18510465 7.17561211 17.5625 4.6875 C13.00014092 2.21517503 13.00014092 2.21517503 3 3 Z " fill="#C2C2C2" transform="translate(257,89)"/>
<path d="M0 0 C2.98732083 0.06723873 4.44165609 0.21624444 7.125 1.625 C9.4056601 4.19074261 9.62423899 6.30222635 9.875 9.6875 C9.59184683 13.79322096 8.55159328 16.38590672 5.625 19.3125 C1.09517205 19.81581422 -2.98295255 20.10795569 -7 17.8125 C-8.92115195 14.31949646 -8.89565098 11.16378595 -8.375 7.3125 C-6.84347107 2.28033352 -5.41095918 0.02696491 0 0 Z " fill="#090909" transform="translate(394.375,100.6875)"/>
<path d="M0 0 C16.02702703 0 16.02702703 0 21 4 C25.6620197 9.15275862 26.34762222 12.35416089 26.28515625 19.171875 C25.76183787 24.36204631 23.32874415 27.42211633 20 31.375 C14.41042888 35.91652654 6.80191321 34 0 34 C0 22.78 0 11.56 0 0 Z M3 3 C3 12.24 3 21.48 3 31 C13.09846899 31.70105632 13.09846899 31.70105632 20 27 C23.09144497 22.67197704 23.58225364 18.60078189 23.41796875 13.40625 C22.71073722 9.33471147 21.07730845 7.73538529 18 5 C13.0499892 1.88856464 9.39204097 3 3 3 Z " fill="#D8D8D8" transform="translate(298,89)"/>
<path d="M0 0 C3.95807715 -0.11761144 7.91569621 -0.18771882 11.875 -0.25 C13.53789062 -0.30027344 13.53789062 -0.30027344 15.234375 -0.3515625 C29.52200383 -0.51965225 39.56690665 5.65817699 49.75 15.3125 C62.14702803 28.25806909 62.33276253 41.02911115 62 58 C61.67 58 61.34 58 61 58 C60.97421875 57.12859375 60.9484375 56.2571875 60.921875 55.359375 C60.52090537 46.9390127 59.17274738 39.80632808 56 32 C55.72414062 31.28328125 55.44828125 30.5665625 55.1640625 29.828125 C49.97706477 17.93134123 39.40287918 10.03025498 27.75 5.1875 C18.44022394 1.99557678 8.7588226 2.07124248 -1 2 C-0.67 1.34 -0.34 0.68 0 0 Z " fill="#DDDDDD" transform="translate(140,58)"/>
<path d="M0 0 C1.32 0 2.64 0 4 0 C4 0.66 4 1.32 4 2 C4.99 1.34 5.98 0.68 7 0 C10.06578057 -0.5454104 12.9329232 -0.53808365 16 0 C19.28175318 2.52968474 20.69243777 4.07731331 22 8 C22.07973476 9.33525717 22.10771338 10.67412083 22.09765625 12.01171875 C22.09443359 12.76904297 22.09121094 13.52636719 22.08789062 14.30664062 C22.07951172 15.09232422 22.07113281 15.87800781 22.0625 16.6875 C22.05798828 17.48478516 22.05347656 18.28207031 22.04882812 19.10351562 C22.0370585 21.06904257 22.01912348 23.03453085 22 25 C21.01 25 20.02 25 19 25 C18.98541748 24.43490723 18.97083496 23.86981445 18.95581055 23.28759766 C18.88143942 20.73269981 18.78474758 18.17912502 18.6875 15.625 C18.66494141 14.73554687 18.64238281 13.84609375 18.61914062 12.9296875 C18.5659668 11.65351562 18.5659668 11.65351562 18.51171875 10.3515625 C18.48553467 9.56604004 18.45935059 8.78051758 18.43237305 7.97119141 C18.15110403 5.59959844 18.15110403 5.59959844 15 4 C12.23979004 3.62832816 9.81147524 3.82149364 7 4 C4.6031335 6.3968665 4.71718867 7.07028314 4.5859375 10.3515625 C4.52792969 11.62773438 4.52792969 11.62773438 4.46875 12.9296875 C4.4378125 13.81914063 4.406875 14.70859375 4.375 15.625 C4.31699219 16.97078125 4.31699219 16.97078125 4.2578125 18.34375 C4.16340643 20.5622927 4.07783252 22.78082403 4 25 C2.68 25 1.36 25 0 25 C0 16.75 0 8.5 0 0 Z " fill="#B4B4B4" transform="translate(411,98)"/>
<path d="M0 0 C6.21161357 0.09346486 12.42283413 0.19954341 18.6340332 0.31738281 C20.74757972 0.35569581 22.86119196 0.39054457 24.97485352 0.421875 C28.0108186 0.46747504 31.04633028 0.52547783 34.08203125 0.5859375 C35.5024749 0.60326431 35.5024749 0.60326431 36.95161438 0.62094116 C37.83230087 0.64081085 38.71298737 0.66068054 39.62036133 0.68115234 C40.39535477 0.69447601 41.17034821 0.70779968 41.96882629 0.7215271 C44 1 44 1 47 3 C47 3.66 47 4.32 47 5 C32.81 4.67 18.62 4.34 4 4 C4.33 5.65 4.66 7.3 5 9 C4.34 9 3.68 9 3 9 C0 3.375 0 3.375 0 0 Z " fill="#E3E3E3" transform="translate(125,77)"/>
<path d="M0 0 C0.99 0.66 1.98 1.32 3 2 C3 2.99 3 3.98 3 5 C2.278125 4.649375 1.55625 4.29875 0.8125 3.9375 C-2.3122705 2.89590983 -3.88161996 3.10903428 -7 4 C-7.12815365 6.3852733 -7.12815365 6.3852733 -6 9 C-4.03332609 10.23619503 -2.05803117 11.12683295 0.08984375 12.0078125 C2 13 2 13 4 16 C4.375 19 4.375 19 4 22 C1.69098803 24.77081437 0.14693304 24.98129943 -3.4375 25.4375 C-7.55333074 24.9320471 -9.17772787 23.99331893 -12 21 C-12 20.01 -12 19.02 -12 18 C-11.01 18 -10.02 18 -9 18 C-8.67 19.32 -8.34 20.64 -8 22 C-5.66705225 22.04241723 -3.33297433 22.04092937 -1 22 C0.29633621 20.93354885 0.29633621 20.93354885 0.0625 18.4375 C0.041875 17.633125 0.02125 16.82875 0 16 C-0.62648438 15.67386719 -1.25296875 15.34773438 -1.8984375 15.01171875 C-3.12433594 14.35623047 -3.12433594 14.35623047 -4.375 13.6875 C-5.18710937 13.25824219 -5.99921875 12.82898438 -6.8359375 12.38671875 C-9 11 -9 11 -11 8 C-11.34507474 5.23940207 -11.35198412 3.63797122 -10 1.1875 C-6.86940917 -0.6712883 -3.55225172 -0.55145843 0 0 Z " fill="#D2D2D2" transform="translate(366,98)"/>
<path d="M0 0 C16.66666667 0 16.66666667 0 21.58203125 4.296875 C24.71915032 8.06487476 25.2412075 10.86928487 25.125 15.75 C25.10695313 16.73484375 25.08890625 17.7196875 25.0703125 18.734375 C25.04710937 19.48203125 25.02390625 20.2296875 25 21 C24.01 21.33 23.02 21.66 22 22 C21.95101563 21.18015625 21.90203125 20.3603125 21.8515625 19.515625 C21.77679688 18.43796875 21.70203125 17.3603125 21.625 16.25 C21.55539062 15.18265625 21.48578125 14.1153125 21.4140625 13.015625 C21.02234683 10.16275237 20.58518239 8.38053522 19 6 C16.49552484 4.78130071 16.49552484 4.78130071 14 4 C13.67 3.67 13.34 3.34 13 3 C9.04 2.67 5.08 2.34 1 2 C1 11.57 1 21.14 1 31 C0.67 31 0.34 31 0 31 C0 20.77 0 10.54 0 0 Z " fill="#DDDDDD" transform="translate(258,90)"/>
<path d="M0 0 C4.05294816 1.49552017 5.32062179 3.72900976 7.375 7.4375 C7.97699219 8.51515625 8.57898438 9.5928125 9.19921875 10.703125 C9.79347656 11.79109375 10.38773438 12.8790625 11 14 C11.54269531 14.96421875 12.08539063 15.9284375 12.64453125 16.921875 C19.43797849 29.09848423 19.43797849 29.09848423 21 34 C20.67 34.66 20.34 35.32 20 36 C19.34 36 18.68 36 18 36 C17.68289062 35.33097656 17.36578125 34.66195312 17.0390625 33.97265625 C13.8662694 27.44301299 10.44267079 21.0979383 6.8125 14.8125 C6.38469238 14.05783447 5.95688477 13.30316895 5.51611328 12.52563477 C5.10474121 11.82237061 4.69336914 11.11910645 4.26953125 10.39453125 C3.90448486 9.76393799 3.53943848 9.13334473 3.16333008 8.48364258 C1.97289204 6.6846161 1.97289204 6.6846161 -1 6 C-1.99 6.495 -1.99 6.495 -3 7 C-1.125 2.25 -1.125 2.25 0 0 Z " fill="#CCCCCC" transform="translate(147,97)"/>
<path d="M0 0 C0.33 1.98 0.66 3.96 1 6 C-4.94 6 -10.88 6 -17 6 C-15.8173913 0.08695652 -15.8173913 0.08695652 -13 -2 C-8.67489963 -3.73004015 -3.69530058 -2.77147543 0 0 Z " fill="#121212" transform="translate(347,103)"/>
<path d="M0 0 C3.0625 1.75 3.0625 1.75 5 4 C5 5.32 5 6.64 5 8 C-0.94 8 -6.88 8 -13 8 C-11.34996023 -0.25019886 -7.89286897 -1.2578828 0 0 Z " fill="#0F0F0F" transform="translate(453,101)"/>
<path d="M0 0 C0.66 0 1.32 0 2 0 C2.11647041 4.54144994 2.18734502 9.08251394 2.25 13.625 C2.28351563 14.91019531 2.31703125 16.19539063 2.3515625 17.51953125 C2.47477167 29.40921574 2.47477167 29.40921574 -2 34 C-4.47378124 35.23689062 -6.17915317 35.13310087 -8.9375 35.125 C-9.81277344 35.12757813 -10.68804687 35.13015625 -11.58984375 35.1328125 C-14 35 -14 35 -17 34 C-17 33.01 -17 32.02 -17 31 C-16.18015625 31.05800781 -15.3603125 31.11601562 -14.515625 31.17578125 C-13.43796875 31.22089844 -12.3603125 31.26601562 -11.25 31.3125 C-9.64898437 31.39951172 -9.64898437 31.39951172 -8.015625 31.48828125 C-4.89722299 31.23650695 -4.89722299 31.23650695 -2.62109375 29.1015625 C-0.31837186 24.69587291 -0.60254081 20.94849952 -0.8125 16.0625 C-1.13633656 5.2653152 -1.13633656 5.2653152 0 0 Z " fill="#F3F3F3" transform="translate(405,98)"/>
<path d="M0 0 C2.10740713 3.1611107 2.25551258 3.95367946 2.265625 7.5703125 C2.26820313 8.4675 2.27078125 9.3646875 2.2734375 10.2890625 C2.26570312 11.22492188 2.25796875 12.16078125 2.25 13.125 C2.25773438 14.03765625 2.26546875 14.9503125 2.2734375 15.890625 C2.25635723 21.8858 1.49603465 27.19396077 0 33 C-0.66 33 -1.32 33 -2 33 C-2.268125 33.886875 -2.53625 34.77375 -2.8125 35.6875 C-3.93816707 38.82751866 -5.01298669 41.32517438 -7 44 C-9.1875 44.8125 -9.1875 44.8125 -11 45 C-9.87385811 41.99695497 -8.5767022 39.19454892 -7.0625 36.375 C-2.96829225 28.20186139 -1.67342981 19.91030325 -1.2109375 10.84765625 C-1.03018038 8.40743513 -0.59947575 6.35367936 0 4 C0 2.68 0 1.36 0 0 Z " fill="#D4D4D4" transform="translate(201,94)"/>
<path d="M0 0 C1.39195915 4.17587745 -0.17676781 6.13474776 -2 10 C-1.360625 10.2475 -0.72125 10.495 -0.0625 10.75 C1.64693118 11.44772701 3.34980604 12.16509221 5.01953125 12.953125 C14.19531255 17.25979643 22.93244844 18.35267858 33 19 C33 19.33 33 19.66 33 20 C6.38062601 20.51688105 6.38062601 20.51688105 -4 12 C-4 11.01 -4 10.02 -4 9 C-4.99 8.67 -5.98 8.34 -7 8 C-6.67 7.34 -6.34 6.68 -6 6 C-5.34 6 -4.68 6 -4 6 C-3.71125 5.195625 -3.4225 4.39125 -3.125 3.5625 C-2 1 -2 1 0 0 Z " fill="#DCDCDC" transform="translate(125,139)"/>
<path d="M0 0 C2.58110119 2.26298228 3.64929044 4.18004885 4.6875 7.4375 C5.06455078 8.58025391 5.06455078 8.58025391 5.44921875 9.74609375 C6 12 6 12 6 16 C2.04 16 -1.92 16 -6 16 C-5.52412884 9.97229862 -2.80277043 5.23321711 0 0 Z " fill="#111111" transform="translate(238,95)"/>
<path d="M0 0 C0.33 0.66 0.66 1.32 1 2 C1.66 2 2.32 2 3 2 C3 2.66 3 3.32 3 4 C2.34 4 1.68 4 1 4 C0.67103297 9.59243959 0.58185884 13.30005591 4 18 C4 18.66 4 19.32 4 20 C1.00675737 18.9024777 0.15389099 18.32317108 -1.25 15.375 C-1.4975 14.59125 -1.745 13.8075 -2 13 C-2.66 13 -3.32 13 -4 13 C-4.2475 13.680625 -4.495 14.36125 -4.75 15.0625 C-6.24197908 18.56865083 -8.06835511 21.71620368 -10 25 C-10.99 25 -11.98 25 -13 25 C-11.40799441 19.14985897 -8.44263127 14.29481514 -5.375 9.125 C-4.859375 8.24585937 -4.34375 7.36671875 -3.8125 6.4609375 C-2.54664427 4.3042944 -1.27571593 2.15082012 0 0 Z " fill="#DDDDDD" transform="translate(137,115)"/>
<path d="M0 0 C0.99 0 1.98 0 3 0 C3.33 0.66 3.66 1.32 4 2 C4.99 1.34 5.98 0.68 7 0 C9.6875 -0.125 9.6875 -0.125 12 0 C12 0.99 12 1.98 12 3 C11.05125 3.268125 10.1025 3.53625 9.125 3.8125 C5.74732727 4.74986588 5.74732727 4.74986588 4 8 C3.6373883 9.92744369 3.6373883 9.92744369 3.5859375 12.01171875 C3.54726563 12.76904297 3.50859375 13.52636719 3.46875 14.30664062 C3.4378125 15.09232422 3.406875 15.87800781 3.375 16.6875 C3.33632813 17.48478516 3.29765625 18.28207031 3.2578125 19.10351562 C3.16367506 21.06863475 3.08075368 23.0342854 3 25 C2.01 25 1.02 25 0 25 C0 16.75 0 8.5 0 0 Z " fill="#D0D0D0" transform="translate(465,98)"/>
<path d="M0 0 C2.87387315 1.85570095 4.67968527 3.84127235 6 7 C6 9.31 6 11.62 6 14 C-0.93 14 -7.86 14 -15 14 C-15 13.67 -15 13.34 -15 13 C-8.4 13 -1.8 13 5 13 C4.34 12.34 3.68 11.68 3 11 C2.5359375 9.7625 2.5359375 9.7625 2.0625 8.5 C1.1416526 5.69808253 1.1416526 5.69808253 -2 4 C-6.14779608 3.41182265 -9.82623485 3.27768299 -13.4375 5.5 C-13.953125 5.995 -14.46875 6.49 -15 7 C-15.66 7 -16.32 7 -17 7 C-13.84752139 -0.61848997 -7.53605424 -1.51156066 0 0 Z " fill="#C0C0C0" transform="translate(455,98)"/>
<path d="M0 0 C2.97 0.495 2.97 0.495 6 1 C6 1.66 6 2.32 6 3 C5.01 3 4.02 3 3 3 C3 4.65 3 6.3 3 8 C2.34 7.34 1.68 6.68 1 6 C-1.81402683 5.62760773 -1.81402683 5.62760773 -5.1015625 5.5859375 C-6.31328125 5.54726562 -7.525 5.50859375 -8.7734375 5.46875 C-10.04445312 5.4378125 -11.31546875 5.406875 -12.625 5.375 C-13.90375 5.33632812 -15.1825 5.29765625 -16.5 5.2578125 C-19.66652017 5.16328951 -22.8330304 5.07773643 -26 5 C-26.33 4.01 -26.66 3.02 -27 2 C-18.09 2 -9.18 2 0 2 C0 1.34 0 0.68 0 0 Z " fill="#E1E1E1" transform="translate(167,131)"/>
<path d="M0 0 C1.32 0 2.64 0 4 0 C4 8.25 4 16.5 4 25 C2.68 25 1.36 25 0 25 C0 16.75 0 8.5 0 0 Z " fill="#AAAAAA" transform="translate(375,98)"/>
<path d="M0 0 C3.28932514 3.07480394 4.69212546 4.85875458 5.140625 9.34375 C5.13546875 10.2821875 5.1303125 11.220625 5.125 12.1875 C5.13015625 13.1259375 5.1353125 14.064375 5.140625 15.03125 C4.8676036 17.76146397 4.37349004 19.40308862 2.875 21.6875 C0.75 22.4375 0.75 22.4375 -1.125 22.6875 C-0.795 21.90375 -0.465 21.12 -0.125 20.3125 C1.46703892 14.54135892 2.19552577 9.03510137 -0.8125 3.6875 C-5.95992059 -0.76432321 -11.57403804 -0.82912805 -18.125 -1.3125 C-18.125 -1.6425 -18.125 -1.9725 -18.125 -2.3125 C-16.37593341 -2.50851608 -14.62568154 -2.69397403 -12.875 -2.875 C-11.90046875 -2.97941406 -10.9259375 -3.08382812 -9.921875 -3.19140625 C-5.42756842 -3.38599215 -3.6553265 -2.70494161 0 0 Z " fill="#D4D4D4" transform="translate(319.125,93.3125)"/>
<path d="M0 0 C6.86147751 2.14421172 12.39627751 6.27538842 16 12.5 C18.87862907 18.79639937 18.43959896 25.22040722 18 32 C17.67 32 17.34 32 17 32 C16.85304687 30.83984375 16.85304687 30.83984375 16.703125 29.65625 C15.23427882 19.42497661 13.07626848 13.05966236 4.97265625 6.41015625 C2.75418631 4.82427972 0.62989272 3.73965733 -2 3 C-1.34 2.67 -0.68 2.34 0 2 C0 1.34 0 0.68 0 0 Z " fill="#C6C6C6" transform="translate(172,80)"/>
<path d="M0 0 C0.33 0 0.66 0 1 0 C0.44184547 9.00745925 0.44184547 9.00745925 -3 13 C-5.13917568 18.10718326 -5.41631716 22.92316071 -5.625 28.375 C-5.66367188 29.20644531 -5.70234375 30.03789063 -5.7421875 30.89453125 C-5.83574246 32.92935156 -5.91892713 34.96464416 -6 37 C-6.33 37 -6.66 37 -7 37 C-7.33 34.03 -7.66 31.06 -8 28 C-8.33 28 -8.66 28 -9 28 C-9.68286022 17.58638162 -6.38792756 8.28768297 0 0 Z " fill="#C2C2C2" transform="translate(109,78)"/>
<path d="M0 0 C7.98448519 -0.78279267 7.98448519 -0.78279267 12 2.3125 C14.47151914 5.63360384 15.12798666 7.97777415 15.09765625 12.01171875 C15.09443359 12.76904297 15.09121094 13.52636719 15.08789062 14.30664062 C15.07951172 15.09232422 15.07113281 15.87800781 15.0625 16.6875 C15.05798828 17.48478516 15.05347656 18.28207031 15.04882812 19.10351562 C15.0370585 21.06904257 15.01912348 23.03453085 15 25 C14.01 25 13.02 25 12 25 C11.98598145 24.16021606 11.98598145 24.16021606 11.97167969 23.3034668 C11.91795493 20.76391854 11.83431813 18.22620889 11.75 15.6875 C11.73582031 14.80642578 11.72164063 13.92535156 11.70703125 13.01757812 C11.64727192 8.04179342 11.64727192 8.04179342 9.1875 3.9375 C6.17387126 2.64594482 3.24741719 2.31225165 0 2 C0 1.34 0 0.68 0 0 Z " fill="#CACACA" transform="translate(418,98)"/>
<path d="M0 0 C0.66 0.33 1.32 0.66 2 1 C1.00293619 3.77545249 0.32074413 4.8235635 -2.30078125 6.265625 C-9.69320487 8.68182572 -16.37311499 9.36172281 -24.125 9.375 C-25.51199097 9.37741699 -25.51199097 9.37741699 -26.92700195 9.37988281 C-33.59649736 9.26900176 -33.59649736 9.26900176 -37 7 C-33.7 7 -30.4 7 -27 7 C-27 6.67 -27 6.34 -27 6 C-26.12859375 5.97421875 -25.2571875 5.9484375 -24.359375 5.921875 C-11.33584453 5.55151063 -11.33584453 5.55151063 0 0 Z " fill="#BDBDBD" transform="translate(173,151)"/>
<path d="M0 0 C3.01645852 0.10054862 4.04368052 1.04125382 6.25 3.125 C8 6 8 6 8 13 C1.07 13 -5.86 13 -13 13 C-13 12.01 -13 11.02 -13 10 C-7.06 10 -1.12 10 5 10 C4.67 8.02 4.34 6.04 4 4 C2.02 3.34 0.04 2.68 -2 2 C-1.34 1.34 -0.68 0.68 0 0 Z " fill="#B8B8B8" transform="translate(343,99)"/>
<path d="M0 0 C0.33 0 0.66 0 1 0 C1 8.25 1 16.5 1 25 C0.67 25 0.34 25 0 25 C-0.33 21.37 -0.66 17.74 -1 14 C-1.33 14.33 -1.66 14.66 -2 15 C-3.41570123 15.08651611 -4.835595 15.10704904 -6.25390625 15.09765625 C-7.10791016 15.09443359 -7.96191406 15.09121094 -8.84179688 15.08789062 C-9.73962891 15.07951172 -10.63746094 15.07113281 -11.5625 15.0625 C-12.46419922 15.05798828 -13.36589844 15.05347656 -14.29492188 15.04882812 C-16.53001314 15.03700225 -18.76497437 15.0205222 -21 15 C-21.66 16.32 -22.32 17.64 -23 19 C-23.33 17.35 -23.66 15.7 -24 14 C-17.07 14 -10.14 14 -3 14 C-3 12.02 -3 10.04 -3 8 C-2.34 8.33 -1.68 8.66 -1 9 C-0.67 6.03 -0.34 3.06 0 0 Z " fill="#2D2D2D" transform="translate(464,98)"/>
<path d="M0 0 C1.7245052 2.24185676 3.32881099 4.50417685 4.875 6.875 C6.43228169 9.16512013 7.95382149 11.16968025 9.75 13.25 C12 16 12 16 12 18 C12.66 18.33 13.32 18.66 14 19 C13.67 19.66 13.34 20.32 13 21 C7.39392711 16.57490186 1.83527803 11.7145078 -1 5 C-0.65234375 2.2265625 -0.65234375 2.2265625 0 0 Z " fill="#C7C7C7" transform="translate(107,129)"/>
<path d="M0 0 C0.33 0 0.66 0 1 0 C1 8.58 1 17.16 1 26 C0.67 24.68 0.34 23.36 0 22 C-0.474375 22.53625 -0.94875 23.0725 -1.4375 23.625 C-5.42930944 25.76694653 -8.81826477 24.2420111 -13 23 C-13 22.67 -13 22.34 -13 22 C-12.38511719 21.98582031 -11.77023437 21.97164062 -11.13671875 21.95703125 C-5.97718219 21.76199608 -5.97718219 21.76199608 -1.9375 18.875 C-0.55137496 14.62421654 -0.27554964 10.91461882 -1.875 6.6875 C-3.02247164 4.84678427 -3.02247164 4.84678427 -5 3 C-4.01 2.67 -3.02 2.34 -2 2 C-1.34 2.33 -0.68 2.66 0 3 C0 2.01 0 1.02 0 0 Z " fill="#9E9E9E" transform="translate(404,98)"/>
<path d="M0 0 C2.10740713 3.1611107 2.25551258 3.95367946 2.265625 7.5703125 C2.26820313 8.4675 2.27078125 9.3646875 2.2734375 10.2890625 C2.26570312 11.22492188 2.25796875 12.16078125 2.25 13.125 C2.25773438 14.03765625 2.26546875 14.9503125 2.2734375 15.890625 C2.25635723 21.8858 1.49603465 27.19396077 0 33 C-2.29257608 24.12112485 -2.72037915 14.83165052 -0.4609375 5.859375 C0.16041065 3.67219577 0.16041065 3.67219577 0 0 Z " fill="#9C9C9C" transform="translate(201,94)"/>
<path d="M0 0 C-1 3 -1 3 -3.625 4.6875 C-7.40866558 6.1589255 -9.97531806 6.45562437 -14 6 C-15.70703125 4.4765625 -15.70703125 4.4765625 -17 3 C-16.15695312 2.86722656 -15.31390625 2.73445313 -14.4453125 2.59765625 C-13.34960938 2.42105469 -12.25390625 2.24445313 -11.125 2.0625 C-9.48917969 1.80146484 -9.48917969 1.80146484 -7.8203125 1.53515625 C-4.8100856 0.96396361 -3.09556571 0 0 0 Z " fill="#CBCBCB" transform="translate(459,118)"/>
<path d="M0 0 C0.33 0 0.66 0 1 0 C1.28875 0.886875 1.5775 1.77375 1.875 2.6875 C2.431875 4.3271875 2.431875 4.3271875 3 6 C3.2371875 6.86625 3.474375 7.7325 3.71875 8.625 C4.7947821 11.25426048 4.7947821 11.25426048 7.6015625 11.92578125 C8.59929687 12.05339844 9.59703125 12.18101563 10.625 12.3125 C11.62789063 12.45300781 12.63078125 12.59351562 13.6640625 12.73828125 C14.43492187 12.82464844 15.20578125 12.91101563 16 13 C15.67 13.66 15.34 14.32 15 15 C6.99173554 15.78512397 6.99173554 15.78512397 3 12.625 C-0.42785408 8.12594152 -0.08937876 5.54148333 0 0 Z " fill="#DBDBDB" transform="translate(383,108)"/>
<path d="M0 0 C1 3 1 3 -0.36328125 5.91796875 C-1.32814453 7.53638672 -1.32814453 7.53638672 -2.3125 9.1875 C-3.26576172 10.81751953 -3.26576172 10.81751953 -4.23828125 12.48046875 C-5.11033203 13.72763672 -5.11033203 13.72763672 -6 15 C-6.66 15 -7.32 15 -8 15 C-7.28707573 10.51876172 -6.43419213 6.30257638 -5 2 C-3 1.375 -3 1.375 -1 1 C-0.67 0.67 -0.34 0.34 0 0 Z " fill="#E6E6E6" transform="translate(146,102)"/>
<path d="M0 0 C-2.49564298 6.12566914 -7.10366577 9.39464301 -13 12 C-13.33 10.68 -13.66 9.36 -14 8 C-12.700625 7.4121875 -12.700625 7.4121875 -11.375 6.8125 C-8.74691753 5.40112238 -6.94993114 4.21982946 -4.75 2.3125 C-2 0 -2 0 0 0 Z " fill="#D1D1D1" transform="translate(186,122)"/>
<path d="M0 0 C3.7486723 4.00720142 6.16346612 8.55232813 7 14 C6.01 15.485 6.01 15.485 5 17 C1.28576112 11.0909836 -0.27737409 7.07303935 0 0 Z " fill="#CACACA" transform="translate(170,134)"/>
<path d="M0 0 C0.33 0 0.66 0 1 0 C2.64451156 6.4410036 1.05498079 10.21782606 -2 16 C-2.99 16 -3.98 16 -5 16 C-4.39363767 10.23955788 -2.24341721 5.27985631 0 0 Z " fill="#CECECE" transform="translate(235,92)"/>
<path d="M0 0 C0.66 0 1.32 0 2 0 C6.63421641 7.24096313 6.42691034 13.55666209 6 22 C5.67 22 5.34 22 5 22 C4.89042969 21.21496094 4.78085938 20.42992188 4.66796875 19.62109375 C3.7557216 13.57652929 2.58472986 8.52192288 0 3 C0 2.01 0 1.02 0 0 Z " fill="#E1E1E1" transform="translate(184,90)"/>
<path d="M0 0 C0.99 0 1.98 0 3 0 C6.07692308 5.29230769 6.07692308 5.29230769 5.6875 8.875 C5.460625 9.57625 5.23375 10.2775 5 11 C3.68 9.68 2.36 8.36 1 7 C0.01 7.495 0.01 7.495 -1 8 C-1.04241723 5.66705225 -1.04092937 3.33297433 -1 1 C-0.67 0.67 -0.34 0.34 0 0 Z " fill="#CACACA" transform="translate(237,89)"/>
<path d="M0 0 C1.16796875 1.671875 1.16796875 1.671875 2 4 C0.98828125 6.578125 0.98828125 6.578125 -0.6875 9.25 C-1.22761719 10.14203125 -1.76773438 11.0340625 -2.32421875 11.953125 C-2.87722656 12.62859375 -3.43023437 13.3040625 -4 14 C-4.99 14 -5.98 14 -7 14 C-5.53967505 8.68972746 -3.01679014 4.53669968 0 0 Z " fill="#C7C7C7" transform="translate(131,126)"/>
<path d="M0 0 C1.20220203 3.53094302 0.79532349 6.12898982 0.0625 9.75 C-0.13214844 10.73484375 -0.32679688 11.7196875 -0.52734375 12.734375 C-0.68332031 13.48203125 -0.83929688 14.2296875 -1 15 C-2.32 15 -3.64 15 -5 15 C-5 13.68 -5 12.36 -5 11 C-4.34 11 -3.68 11 -3 11 C-2.86722656 10.37351562 -2.73445312 9.74703125 -2.59765625 9.1015625 C-2.33275391 7.87566406 -2.33275391 7.87566406 -2.0625 6.625 C-1.88847656 5.81289062 -1.71445313 5.00078125 -1.53515625 4.1640625 C-1 2 -1 2 0 0 Z " fill="#C4C4C4" transform="translate(229,108)"/>
<path d="M0 0 C0.90105469 0.01804687 1.80210937 0.03609375 2.73046875 0.0546875 C3.41753906 0.07789062 4.10460937 0.10109375 4.8125 0.125 C4.4825 0.785 4.1525 1.445 3.8125 2.125 C1.921875 2.6171875 1.921875 2.6171875 -0.4375 3 C-4.60401017 3.82399882 -7.08326856 5.12090506 -10.1875 8.125 C-8.40398423 1.81409803 -6.65661975 -0.17289921 0 0 Z " fill="#DDDDDD" transform="translate(339.1875,97.875)"/>
<path d="M0 0 C7.425 0.99 7.425 0.99 15 2 C13 4 13 4 10.72265625 4.23046875 C9.84480469 4.21628906 8.96695312 4.20210937 8.0625 4.1875 C6.74958984 4.17783203 6.74958984 4.17783203 5.41015625 4.16796875 C3 4 3 4 0 3 C0 2.01 0 1.02 0 0 Z " fill="#B6B6B6" transform="translate(388,129)"/>
<path d="M0 0 C3.80666984 1.44390925 5.26602582 3.34952803 7 7 C6.67 7.66 6.34 8.32 6 9 C4.88625 8.484375 3.7725 7.96875 2.625 7.4375 C0.830625 6.7259375 0.830625 6.7259375 -1 6 C-1.99 6.495 -1.99 6.495 -3 7 C-1.125 2.25 -1.125 2.25 0 0 Z " fill="#C7C7C7" transform="translate(147,97)"/>
<path d="M0 0 C0 1.66666667 0 3.33333333 0 5 C0.66 4.34 1.32 3.68 2 3 C1.67 6.3 1.34 9.6 1 13 C-0.33333333 13 -1.66666667 13 -3 13 C-3.4726477 4.80743982 -3.4726477 4.80743982 -1.5 1.4375 C-0.7575 0.7259375 -0.7575 0.7259375 0 0 Z " fill="#909090" transform="translate(385,101)"/>
<path d="M0 0 C0.33 0 0.66 0 1 0 C1.33 1.65 1.66 3.3 2 5 C2.33 5 2.66 5 3 5 C3.375 8.25 3.375 8.25 3 12 C0 14.4375 0 14.4375 -3 16 C-2.5359375 14.824375 -2.5359375 14.824375 -2.0625 13.625 C-0.73664193 9.10148422 -0.35188915 4.68568186 0 0 Z " fill="#282828" transform="translate(324,101)"/>
<path d="M0 0 C0.66 0.66 1.32 1.32 2 2 C2.99 1.34 3.98 0.68 5 0 C7.6875 -0.125 7.6875 -0.125 10 0 C10 0.99 10 1.98 10 3 C9.05125 3.309375 8.1025 3.61875 7.125 3.9375 C4.13919592 4.87394742 4.13919592 4.87394742 2 6 C1.34 5.67 0.68 5.34 0 5 C0 3.35 0 1.7 0 0 Z " fill="#BFBFBF" transform="translate(467,98)"/>
<path d="M0 0 C0.95397067 3.40394081 1.05552406 5.56954679 0 9 C-1.94220597 11.47189851 -2.93738507 11.97912836 -6 13 C-4.31326082 8.50202887 -2.18326108 4.27113698 0 0 Z " fill="#C0C0C0" transform="translate(196,126)"/>
<path d="M0 0 C5 6.36363636 5 6.36363636 5 11 C2 10 2 10 0.25 7.75 C-1.18671298 4.58923143 -1.02214896 3.25229215 0 0 Z " fill="#CDCDCD" transform="translate(107,129)"/>
<path d="M0 0 C6.93 0 13.86 0 21 0 C21 0.33 21 0.66 21 1 C15.06 1.33 9.12 1.66 3 2 C2.67 3.32 2.34 4.64 2 6 C0 3 0 3 0 0 Z " fill="#1F1F1F" transform="translate(330,112)"/>
<path d="M0 0 C1.98 0 3.96 0 6 0 C4.86500606 3.29148243 4.00716624 3.9959869 0.875 5.75 C-0.548125 6.36875 -0.548125 6.36875 -2 7 C-2 3.89448334 -1.4606285 2.64738916 0 0 Z " fill="#E5E5E5" transform="translate(176,148)"/>
<path d="M0 0 C0.66 0.66 1.32 1.32 2 2 C4.12860662 2.36952049 4.12860662 2.36952049 6.5703125 2.4140625 C7.46621094 2.45273438 8.36210937 2.49140625 9.28515625 2.53125 C10.22230469 2.5621875 11.15945313 2.593125 12.125 2.625 C13.54232422 2.68300781 13.54232422 2.68300781 14.98828125 2.7421875 C17.32532375 2.83661346 19.66235501 2.92218394 22 3 C22 3.33 22 3.66 22 4 C21.40461426 4.02505615 20.80922852 4.0501123 20.19580078 4.07592773 C17.50530864 4.19177494 14.8151766 4.31455196 12.125 4.4375 C11.18785156 4.47681641 10.25070312 4.51613281 9.28515625 4.55664062 C8.38925781 4.59853516 7.49335938 4.64042969 6.5703125 4.68359375 C5.74289551 4.72025146 4.91547852 4.75690918 4.06298828 4.79467773 C1.93820571 4.88238327 1.93820571 4.88238327 0 6 C0 4.02 0 2.04 0 0 Z " fill="#F6F6F6" transform="translate(328,107)"/>
<path d="M0 0 C2.0343459 1.41519715 2.90410393 2.54982123 3.421875 4.98046875 C3.66273952 6.98176954 3.83532741 8.9909944 4 11 C1 10 1 10 -0.6875 7.0625 C-2 4 -2 4 -2 2 C-1.34 2 -0.68 2 0 2 C0 1.34 0 0.68 0 0 Z " fill="#C2C2C2" transform="translate(197,85)"/>
<path d="M0 0 C2.6015625 0.0234375 2.6015625 0.0234375 5.625 0.375 C6.62789063 0.48585938 7.63078125 0.59671875 8.6640625 0.7109375 C9.82035156 0.85402344 9.82035156 0.85402344 11 1 C11 1.33 11 1.66 11 2 C10.39671875 2.03738281 9.7934375 2.07476562 9.171875 2.11328125 C4.5526711 2.49324802 1.53065899 2.75179373 -2 6 C-2.66 6 -3.32 6 -4 6 C-2.84826645 3.53199953 -1.95216435 1.95216435 0 0 Z " fill="#B9B9B9" transform="translate(442,99)"/>
<path d="M0 0 C1.4370809 -0.05422947 2.87475462 -0.09289723 4.3125 -0.125 C5.11300781 -0.14820312 5.91351563 -0.17140625 6.73828125 -0.1953125 C9 0 9 0 12 2 C12 2.66 12 3.32 12 4 C6.06 3.01 6.06 3.01 0 2 C0 1.34 0 0.68 0 0 Z " fill="#E8E8E8" transform="translate(418,98)"/>
<path d="M0 0 C0 2 0 2 -1.64453125 3.65625 C-2.35996094 4.2646875 -3.07539062 4.873125 -3.8125 5.5 C-4.87404297 6.41265625 -4.87404297 6.41265625 -5.95703125 7.34375 C-8 9 -8 9 -11 11 C-9.65319085 8.08728356 -8.12551255 5.70671723 -6.0625 3.25 C-5.55847656 2.63640625 -5.05445312 2.0228125 -4.53515625 1.390625 C-3 0 -3 0 0 0 Z " fill="#353535" transform="translate(121,72)"/>
<path d="M0 0 C-1.07401108 2.91517292 -1.77810176 4.77810176 -4 7 C-6.125 6.625 -6.125 6.625 -8 6 C-3.375 0 -3.375 0 0 0 Z " fill="#D6D6D6" transform="translate(407,124)"/>
<path d="M0 0 C2.64850992 2.64850992 4.33103223 5.66206447 6 9 C3.625 8.8125 3.625 8.8125 1 8 C-0.375 5.625 -0.375 5.625 -1 3 C-0.67 2.01 -0.34 1.02 0 0 Z " fill="#CDCDCD" transform="translate(439,112)"/>
<path d="M0 0 C2.6855594 2.6855594 3.06049974 5.37621328 4 9 C3.34 8.67 2.68 8.34 2 8 C1.34 8.66 0.68 9.32 0 10 C-1.125 6.6875 -1.125 6.6875 -2 3 C-1.34 2.01 -0.68 1.02 0 0 Z " fill="#B5B5B5" transform="translate(243,97)"/>
<path d="M0 0 C5.625 -0.25 5.625 -0.25 9 2 C9 2.99 9 3.98 9 5 C8.278125 4.67 7.55625 4.34 6.8125 4 C3.98302573 2.99396471 1.97104534 2.83022598 -1 3 C-0.67 2.01 -0.34 1.02 0 0 Z " fill="#DDDDDD" transform="translate(360,98)"/>
<path d="M0 0 C3.37503669 1.1858237 5.64722731 2.27573689 8 5 C3.82412255 6.39195915 1.86525224 4.82323219 -2 3 C-1.34 2.67 -0.68 2.34 0 2 C0 1.34 0 0.68 0 0 Z " fill="#D2D2D2" transform="translate(172,80)"/>
<path d="M0 0 C0.33 0.66 0.66 1.32 1 2 C1.66 2 2.32 2 3 2 C3 2.66 3 3.32 3 4 C2.34 4 1.68 4 1 4 C0.67 6.64 0.34 9.28 0 12 C-0.33 12 -0.66 12 -1 12 C-2.02977875 7.23727328 -2.39511469 4.34114537 0 0 Z " fill="#BDBDBD" transform="translate(137,115)"/>
<path d="M0 0 C1.1875 1.6875 1.1875 1.6875 2 4 C0.75 6.75 0.75 6.75 -1 9 C-1.66 9 -2.32 9 -3 9 C-2.5020163 5.26512223 -2.12508244 3.18762365 0 0 Z " fill="#D5D5D5" transform="translate(141,108)"/>
<path d="M0 0 C1.8871875 0.0309375 1.8871875 0.0309375 3.8125 0.0625 C3.8125 0.3925 3.8125 0.7225 3.8125 1.0625 C1.8325 1.3925 -0.1475 1.7225 -2.1875 2.0625 C-0.5375 2.3925 1.1125 2.7225 2.8125 3.0625 C2.8125 3.3925 2.8125 3.7225 2.8125 4.0625 C-3.71057692 4.43173077 -3.71057692 4.43173077 -6.125 2.5625 C-6.6509375 1.82 -6.6509375 1.82 -7.1875 1.0625 C-4.43671116 0.14557039 -2.82801087 -0.04636083 0 0 Z " fill="#7F7F7F" transform="translate(449.1875,119.9375)"/>
<path d="M0 0 C1.9375 0.75 1.9375 0.75 3.9375 2.75 C4.2675 3.74 4.5975 4.73 4.9375 5.75 C-0.0625 3.75 -0.0625 3.75 -5.0625 1.75 C-2.0625 -0.25 -2.0625 -0.25 0 0 Z " fill="#CBCBCB" transform="translate(174.0625,62.25)"/>
<path d="M0 0 C0.33 0 0.66 0 1 0 C1.33 3.3 1.66 6.6 2 10 C0.35 10.66 -1.3 11.32 -3 12 C-2.01 8.04 -1.02 4.08 0 0 Z " fill="#C5C5C5" transform="translate(321,104)"/>
<path d="M0 0 C0.33 0.66 0.66 1.32 1 2 C1.99 1.67 2.98 1.34 4 1 C6.3406065 1.27769908 8.67624308 1.60539977 11 2 C11 2.33 11 2.66 11 3 C9.906875 3.12375 8.81375 3.2475 7.6875 3.375 C3.92618198 3.75464801 3.92618198 3.75464801 1 6 C0 5 0 5 -0.0625 2.4375 C-0.041875 1.633125 -0.02125 0.82875 0 0 Z " fill="#A9A9A9" transform="translate(414,98)"/>
<path d="M0 0 C0.99 0 1.98 0 3 0 C3 1.65 3 3.3 3 5 C2.01 5 1.02 5 0 5 C-0.33 5.99 -0.66 6.98 -1 8 C-1.04241723 5.66705225 -1.04092937 3.33297433 -1 1 C-0.67 0.67 -0.34 0.34 0 0 Z " fill="#E2E2E2" transform="translate(237,89)"/>
<path d="M0 0 C1.9375 0.5625 1.9375 0.5625 4 2 C4.75 5.625 4.75 5.625 5 9 C4.34 9 3.68 9 3 9 C0 3.375 0 3.375 0 0 Z " fill="#EBEBEB" transform="translate(125,77)"/>
<path d="M0 0 C0.33 0 0.66 0 1 0 C2.25 6.625 2.25 6.625 0 10 C-0.99 10 -1.98 10 -3 10 C-2.01 6.7 -1.02 3.4 0 0 Z " fill="#B2B2B2" transform="translate(235,92)"/>
<path d="M0 0 C1.875 0.1875 1.875 0.1875 4 1 C5.25 3.5625 5.25 3.5625 6 6 C5.01 6.33 4.02 6.66 3 7 C0 2.25 0 2.25 0 0 Z " fill="#CFCFCF" transform="translate(121,72)"/>
<path d="M0 0 C0.99 0 1.98 0 3 0 C2.67 0.99 2.34 1.98 2 3 C-1.09478879 4.03159626 -2.52631393 3.97482862 -5.6875 3.5625 C-6.89986328 3.40974609 -6.89986328 3.40974609 -8.13671875 3.25390625 C-8.75160156 3.17011719 -9.36648438 3.08632812 -10 3 C-10 2.67 -10 2.34 -10 2 C-9.04287109 1.90912109 -9.04287109 1.90912109 -8.06640625 1.81640625 C-6.82697266 1.69072266 -6.82697266 1.69072266 -5.5625 1.5625 C-4.73878906 1.48128906 -3.91507812 1.40007812 -3.06640625 1.31640625 C-1.01337975 1.21069185 -1.01337975 1.21069185 0 0 Z " fill="#9F9F9F" transform="translate(346,118)"/>
<path d="M0 0 C3.68754757 0.49831724 5.60490662 1.10067643 8 4 C5.69 3.67 3.38 3.34 1 3 C0.67 2.01 0.34 1.02 0 0 Z " fill="#DBDBDB" transform="translate(357,107)"/>
<path d="M0 0 C5.75 -0.125 5.75 -0.125 8 1 C8 1.66 8 2.32 8 3 C5.03 2.67 2.06 2.34 -1 2 C-0.67 1.34 -0.34 0.68 0 0 Z " fill="#E6E6E6" transform="translate(393,98)"/>
<path d="M0 0 C0.33 0 0.66 0 1 0 C0.88637738 1.4800841 0.75877092 2.95910074 0.625 4.4375 C0.52058594 5.67306641 0.52058594 5.67306641 0.4140625 6.93359375 C0.27742188 7.61550781 0.14078125 8.29742187 0 9 C-0.99 9.495 -0.99 9.495 -2 10 C-3.34920635 4.6031746 -3.34920635 4.6031746 -1.625 1.625 C-1.08875 1.08875 -0.5525 0.5525 0 0 Z " fill="#B1B1B1" transform="translate(109,78)"/>
<path d="M0 0 C2 3 2 3 1.625 5.6875 C1.41875 6.450625 1.2125 7.21375 1 8 C-0.32 6.35 -1.64 4.7 -3 3 C-2 1 -2 1 0 0 Z " fill="#B4B4B4" transform="translate(175,143)"/>
<path d="M0 0 C0.99 0 1.98 0 3 0 C3.185625 0.9590625 3.185625 0.9590625 3.375 1.9375 C3.684375 2.9584375 3.684375 2.9584375 4 4 C4.66 4.33 5.32 4.66 6 5 C5.01 5.33 4.02 5.66 3 6 C1.5 4.6875 1.5 4.6875 0 3 C0 2.01 0 1.02 0 0 Z " fill="#C1C1C1" transform="translate(354,116)"/>
<path d="M0 0 C2 3 2 3 3 6 C2.34 6.66 1.68 7.32 1 8 C-1 6 -1 6 -1.1875 3.4375 C-1 1 -1 1 0 0 Z " fill="#C8C8C8" transform="translate(329,112)"/>
<path d="M0 0 C0.33 0 0.66 0 1 0 C1 1.98 1 3.96 1 6 C-2 6 -2 6 -3.6875 4.5 C-4.120625 4.005 -4.55375 3.51 -5 3 C-4.01 2.67 -3.02 2.34 -2 2 C-1.34 2.33 -0.68 2.66 0 3 C0 2.01 0 1.02 0 0 Z " fill="#B2B2B2" transform="translate(404,98)"/>
<path d="M0 0 C2.0625 0.4375 2.0625 0.4375 4 1 C3.01 1.66 2.02 2.32 1 3 C0.27617533 5.05925139 0.27617533 5.05925139 0 7 C-0.66 6.67 -1.32 6.34 -2 6 C-1.125 1.125 -1.125 1.125 0 0 Z " fill="#323232" transform="translate(360,100)"/>
<path d="M0 0 C0.66 0 1.32 0 2 0 C3.0625 2.375 3.0625 2.375 4 5 C3.67 5.66 3.34 6.32 3 7 C2.34 7 1.68 7 1 7 C0.67 4.69 0.34 2.38 0 0 Z " fill="#D5D5D5" transform="translate(164,126)"/>
<path d="M0 0 C1.98 0.99 1.98 0.99 4 2 C4 3.98 4 5.96 4 8 C0 3.375 0 3.375 0 0 Z " fill="#DADADA" transform="translate(151,104)"/>
<path d="M0 0 C-1.98 0.99 -1.98 0.99 -4 2 C-2.68 2.66 -1.36 3.32 0 4 C-1.98 4 -3.96 4 -6 4 C-6 3.34 -6 2.68 -6 2 C-6.66 1.67 -7.32 1.34 -8 1 C-5.29120665 -0.35439668 -2.99066732 -0.06501451 0 0 Z " fill="#8E8E8E" transform="translate(397,97)"/>
<path d="M0 0 C2.64 0.33 5.28 0.66 8 1 C7.67 1.66 7.34 2.32 7 3 C4.625 3.1875 4.625 3.1875 2 3 C1.34 2.01 0.68 1.02 0 0 Z " fill="#E4E4E4" transform="translate(165,60)"/>
</svg>
