<?xml version="1.0" encoding="UTF-8"?>
<svg version="1.1" xmlns="http://www.w3.org/2000/svg" width="708" height="297">
<path d="M0 0 C233.64 0 467.28 0 708 0 C708 98.01 708 196.02 708 297 C474.36 297 240.72 297 0 297 C0 198.99 0 100.98 0 0 Z " fill="#030303" transform="translate(0,0)"/>
<path d="M0 0 C6.37438205 5.10311208 12.54000791 10.52875599 16.125 18 C16.59292969 18.9590625 16.59292969 18.9590625 17.0703125 19.9375 C17.37710938 20.618125 17.68390625 21.29875 18 22 C18.53947266 23.11181641 18.53947266 23.11181641 19.08984375 24.24609375 C22.2213245 33.72117498 20.62485918 44.77672511 16.35546875 53.5546875 C14.70955652 56.52397008 13.06983791 59.30293848 11 62 C10.57074219 62.58394531 10.14148438 63.16789062 9.69921875 63.76953125 C6.16889207 68.28949129 2.59425668 71.42573681 -3 73 C-11.95776017 74.07542005 -19.79978476 72.90784132 -27.25 67.75 C-30.30559033 64.69440967 -32.543876 61.54773466 -35 58 C-35.99 57.505 -35.99 57.505 -37 57 C-40.1239179 71.64227441 -43.08629105 86.31454716 -46 101 C-57.21627405 99.57365301 -66.94283342 91.38114582 -73.8203125 82.703125 C-75.32105531 80.51611286 -76.68346959 78.30185819 -78 76 C-78.58394531 75.04867187 -78.58394531 75.04867187 -79.1796875 74.078125 C-82.39696743 68.39504658 -83.18733548 62.41577252 -84 56 C-84.48210937 56.433125 -84.96421875 56.86625 -85.4609375 57.3125 C-86.09257812 57.869375 -86.72421875 58.42625 -87.375 59 C-88.00148437 59.556875 -88.62796875 60.11375 -89.2734375 60.6875 C-91 62 -91 62 -93 62 C-96.50336015 50.83303951 -96.29551256 37.63959729 -91.625 26.8125 C-91.08875 25.884375 -90.5525 24.95625 -90 24 C-89.74734375 23.41089844 -89.4946875 22.82179687 -89.234375 22.21484375 C-83.06912355 8.11883704 -68.94519073 -2.40052444 -55 -8 C-36.78832852 -13.60950219 -15.73523447 -10.71033951 0 0 Z " fill="#F9F9F9" transform="translate(311,50)"/>
<path d="M0 0 C4.10484741 3.69350571 7.50967789 7.96377464 8.40625 13.515625 C8.62323558 19.84437108 7.86003891 23.53199309 3.64453125 28.33984375 C-1.87850871 33.91535915 -1.87850871 33.91535915 -6.3125 34.25 C-7.199375 34.1675 -8.08625 34.085 -9 34 C-8.49623933 26.89764367 -7.25597479 20.25158534 -5.4375 13.375 C-5.20353516 12.46621094 -4.96957031 11.55742188 -4.72851562 10.62109375 C-4.15887311 8.41227583 -3.58265317 6.20541448 -3 4 C-3.72703125 4.54527344 -4.4540625 5.09054688 -5.203125 5.65234375 C-6.20859375 6.40644531 -7.2140625 7.16054687 -8.25 7.9375 C-9.06319702 8.54766968 -9.06319702 8.54766968 -9.89282227 9.17016602 C-12.59731335 11.19921837 -15.30310755 13.22644611 -18.01171875 15.25 C-26.68364963 21.73368664 -35.316131 28.27031064 -43.79296875 35.0078125 C-44.42219238 35.50684082 -45.05141602 36.00586914 -45.69970703 36.52001953 C-46.91290316 37.48389829 -48.1236495 38.45087115 -49.33154297 39.42138672 C-52.10207171 41.62244035 -54.7384952 43.59651627 -58 45 C-58.70300412 29.84635557 -54.62359266 18.5924002 -44.41796875 7.08984375 C-32.79694073 -4.19867989 -14.66393484 -9.40136383 0 0 Z " fill="#0B0B0B" transform="translate(286,59)"/>
<path d="M0 0 C3.04221065 -0.08132642 6.0822238 -0.14065374 9.125 -0.1875 C9.9809375 -0.21263672 10.836875 -0.23777344 11.71875 -0.26367188 C17.82396765 -0.33411669 22.10646799 0.49227225 26.875 4.625 C28.64568965 8.3631226 28.53723299 11.94171299 28 16 C26.37522535 19.73698169 24.44378693 21.84763317 21 24 C17.57767028 25.14077657 14.91326783 25.09815117 11.3125 25.0625 C9.54326172 25.04896484 9.54326172 25.04896484 7.73828125 25.03515625 C6.83464844 25.02355469 5.93101562 25.01195312 5 25 C5.020625 26.2375 5.04125 27.475 5.0625 28.75 C5.11433318 31.8599909 4.782223 33.87110801 4 37 C0.37 37 -3.26 37 -7 37 C-7.4452774 29.40186232 -5.77664563 22.49935651 -4.0625 15.125 C-3.78470703 13.89007813 -3.50691406 12.65515625 -3.22070312 11.3828125 C-1.15764116 2.31528232 -1.15764116 2.31528232 0 0 Z " fill="#F0F0F0" transform="translate(302,145)"/>
<path d="M0 0 C3.3956697 -0.08745946 6.79104773 -0.14054444 10.1875 -0.1875 C11.14720703 -0.21263672 12.10691406 -0.23777344 13.09570312 -0.26367188 C21.97146613 -0.35580782 21.97146613 -0.35580782 26 3 C26.58910156 3.45761719 27.17820312 3.91523438 27.78515625 4.38671875 C29.90961979 7.20795168 29.45971452 10.08682583 29.35546875 13.4921875 C28.72478262 17.94164352 26.43762667 20.56915459 23.34375 23.6484375 C20.03938072 25.55395712 16.94707 25.32378141 13.25 25.1875 C12.55261719 25.17396484 11.85523438 25.16042969 11.13671875 25.14648438 C9.42414459 25.1112945 7.71197059 25.05749155 6 25 C5.93941406 25.62648437 5.87882812 26.25296875 5.81640625 26.8984375 C5.73261719 27.71570313 5.64882813 28.53296875 5.5625 29.375 C5.48128906 30.18710938 5.40007812 30.99921875 5.31640625 31.8359375 C5 34 5 34 4 36 C1.03 36 -1.94 36 -5 36 C-4.6228196 23.72277793 -2.49621631 12.00577699 0 0 Z " fill="#F2F2F2" transform="translate(301,187)"/>
<path d="M0 0 C3.31038352 1.35453551 5.47976599 3.47976599 8 6 C8.81230212 11.86545426 8.42249563 17.04328219 5 22 C0.24191976 26.40122422 -3.48401165 27.30684886 -9.78125 27.21484375 C-13.9913255 26.80717799 -16.14288126 25.00489783 -18.8125 21.875 C-20.95674297 16.68367492 -20.69235447 11.93130457 -18.8125 6.6875 C-13.85195763 -0.66778696 -8.48223084 -1.17075446 0 0 Z " fill="#F1F1F1" transform="translate(448,197)"/>
<path d="M0 0 C3.39481793 4.02017912 2.95045329 7.26809601 2.71875 12.39453125 C2.25740748 16.98174382 1.44582941 21.32840183 0.375 25.8125 C-2.925 25.8125 -6.225 25.8125 -9.625 25.8125 C-9.625 25.1525 -9.625 24.4925 -9.625 23.8125 C-10.615 24.4725 -11.605 25.1325 -12.625 25.8125 C-19.56714876 26.47365702 -19.56714876 26.47365702 -23.125 24.25 C-25.20892818 20.86361671 -25.18302097 18.71864682 -24.625 14.8125 C-22.39018173 11.83997473 -21.02398893 10.91465659 -17.390625 9.984375 C-16.23046875 9.84515625 -15.0703125 9.7059375 -13.875 9.5625 C-12.70453125 9.41296875 -11.5340625 9.2634375 -10.328125 9.109375 C-8.99007813 8.96242187 -8.99007813 8.96242187 -7.625 8.8125 C-7.295 7.4925 -6.965 6.1725 -6.625 4.8125 C-9.09766765 5.15694881 -9.09766765 5.15694881 -11.625 5.8125 C-11.955 6.4725 -12.285 7.1325 -12.625 7.8125 C-15.595 7.8125 -18.565 7.8125 -21.625 7.8125 C-20.69258175 4.08282698 -20.1597619 2.53502204 -17.625 -0.1875 C-11.82045526 -2.10136291 -5.74723367 -1.88271448 0 0 Z " fill="#EDEDED" transform="translate(421.625,156.1875)"/>
<path d="M0 0 C2.17855804 1.54406965 3.47509018 2.75058487 4.85546875 5.046875 C5.4381084 8.90818688 5.19170597 12.10809609 4.85546875 16.046875 C-1.08453125 16.046875 -7.02453125 16.046875 -13.14453125 16.046875 C-12.48453125 17.366875 -11.82453125 18.686875 -11.14453125 20.046875 C-9.4784122 20.089596 -7.8107024 20.08751332 -6.14453125 20.046875 C-5.81453125 19.716875 -5.48453125 19.386875 -5.14453125 19.046875 C-3.62525087 18.97507536 -2.10285643 18.96295493 -0.58203125 18.984375 C0.24425781 18.99339844 1.07054687 19.00242188 1.921875 19.01171875 C2.87900391 19.02912109 2.87900391 19.02912109 3.85546875 19.046875 C2.48510448 21.89934999 1.30174598 23.99200212 -1.14453125 26.046875 C-5.76514081 27.58707819 -10.31916501 27.56261693 -15.14453125 27.046875 C-18.85930505 24.92414712 -20.49531945 22.91375033 -22.14453125 19.046875 C-23.13852645 14.32947155 -23.11224305 10.55120658 -20.4609375 6.4296875 C-14.89702213 0.03884159 -8.46789762 -3.76351005 0 0 Z " fill="#E9E9E9" transform="translate(374.14453125,196.953125)"/>
<path d="M0 0 C7.59 0 15.18 0 23 0 C21.875 7.875 21.875 7.875 19.27734375 10.08984375 C18.73916016 10.56357422 18.20097656 11.03730469 17.64648438 11.52539062 C17.08251953 11.99138672 16.51855469 12.45738281 15.9375 12.9375 C15.36966797 13.43056641 14.80183594 13.92363281 14.21679688 14.43164062 C12.82454987 15.63669475 11.41402659 16.82057812 10 18 C13.3 18.33 16.6 18.66 20 19 C19.67 21.64 19.34 24.28 19 27 C10.75 27 2.5 27 -6 27 C-4.87388671 19.11720698 -4.87388671 19.11720698 -1.75 16.3125 C-1.12222656 15.74015625 -0.49445313 15.1678125 0.15234375 14.578125 C0.76207031 14.05734375 1.37179687 13.5365625 2 13 C2.928125 12.195625 3.85625 11.39125 4.8125 10.5625 C7 9 7 9 9 9 C9 8.34 9 7.68 9 7 C6.03 7 3.06 7 0 7 C0 4.69 0 2.38 0 0 Z " fill="#F1F1F1" transform="translate(348,155)"/>
<path d="M0 0 C7.26 0 14.52 0 22 0 C20.87172965 9.02616279 20.87172965 9.02616279 15.5625 13.5 C14.57378906 14.3559375 13.58507812 15.211875 12.56640625 16.09375 C10 18 10 18 8 18 C8 18.66 8 19.32 8 20 C11.63 20 15.26 20 19 20 C19 22.31 19 24.62 19 27 C10.75 27 2.5 27 -6 27 C-4.87341772 19.11392405 -4.87341772 19.11392405 -0.6875 15.25 C0.09238281 14.51265625 0.87226563 13.7753125 1.67578125 13.015625 C3.72439418 11.23901278 5.8036191 9.58822967 8 8 C5.36 7.67 2.72 7.34 0 7 C0 4.69 0 2.38 0 0 Z " fill="#ECECEC" transform="translate(375,155)"/>
<path d="M0 0 C2.66746694 1.04585833 3.85926073 1.97193122 6 4 C6 5.32 6 6.64 6 8 C1.48382401 8.07654536 -2.59085217 8.10228696 -7 7 C-7 7.66 -7 8.32 -7 9 C-5.84371094 9.39832031 -5.84371094 9.39832031 -4.6640625 9.8046875 C-3.15972656 10.33449219 -3.15972656 10.33449219 -1.625 10.875 C-0.12839844 11.39707031 -0.12839844 11.39707031 1.3984375 11.9296875 C4 13 4 13 6 15 C6.4375 18.3125 6.4375 18.3125 6 22 C3.45862841 25.15954305 1.85377341 26.71540886 -2 28 C-7.04534443 28.52971775 -10.93049692 28.50660672 -15.5625 26.3125 C-18.21261372 23.79828955 -18.80037128 22.59331694 -19 19 C-16.03 19 -13.06 19 -10 19 C-9.67 19.66 -9.34 20.32 -9 21 C-6.47266765 21.65555119 -6.47266765 21.65555119 -4 22 C-4 20.68 -4 19.36 -4 18 C-5.03060547 17.85304687 -5.03060547 17.85304687 -6.08203125 17.703125 C-6.98308594 17.55359375 -7.88414062 17.4040625 -8.8125 17.25 C-9.70582031 17.11078125 -10.59914063 16.9715625 -11.51953125 16.828125 C-14.55482149 15.81476826 -15.41749529 14.7375805 -17 12 C-17.625 9.125 -17.625 9.125 -17 6 C-12.67165248 -0.10407984 -7.13417296 -1.38231923 0 0 Z " fill="#EAEAEA" transform="translate(400,196)"/>
<path d="M0 0 C3.46679688 0.04882812 3.46679688 0.04882812 6.93359375 0.09765625 C6.60359375 3.06765625 6.27359375 6.03765625 5.93359375 9.09765625 C7.25359375 9.09765625 8.57359375 9.09765625 9.93359375 9.09765625 C9.60359375 11.07765625 9.27359375 13.05765625 8.93359375 15.09765625 C7.28359375 15.09765625 5.63359375 15.09765625 3.93359375 15.09765625 C3.71703125 16.64453125 3.71703125 16.64453125 3.49609375 18.22265625 C3.01698918 21.52315438 2.49484292 24.81033966 1.93359375 28.09765625 C3.25359375 28.09765625 4.57359375 28.09765625 5.93359375 28.09765625 C5.93359375 30.73765625 5.93359375 33.37765625 5.93359375 36.09765625 C4.1641028 36.2058085 2.39271888 36.28331708 0.62109375 36.34765625 C-0.36503906 36.3940625 -1.35117187 36.44046875 -2.3671875 36.48828125 C-5.06640625 36.09765625 -5.06640625 36.09765625 -6.93359375 34.37890625 C-8.27558665 31.6764102 -8.28072411 30.31638113 -7.87890625 27.34765625 C-7.76289063 26.47882813 -7.646875 25.61 -7.52734375 24.71484375 C-6.89228442 21.10899842 -6.04634521 17.62543649 -5.06640625 14.09765625 C-6.05640625 14.09765625 -7.04640625 14.09765625 -8.06640625 14.09765625 C-8.06640625 12.44765625 -8.06640625 10.79765625 -8.06640625 9.09765625 C-6.74640625 9.09765625 -5.42640625 9.09765625 -4.06640625 9.09765625 C-3.92203125 7.79828125 -3.77765625 6.49890625 -3.62890625 5.16015625 C-3.07168497 0.1451647 -3.07168497 0.1451647 0 0 Z " fill="#E2E2E2" transform="translate(418.06640625,187.90234375)"/>
<path d="M0 0 C1.23556641 0.01740234 1.23556641 0.01740234 2.49609375 0.03515625 C3.32238281 0.04417969 4.14867187 0.05320313 5 0.0625 C5.63808594 0.07410156 6.27617187 0.08570313 6.93359375 0.09765625 C7.26359375 0.75765625 7.59359375 1.41765625 7.93359375 2.09765625 C8.59359375 1.43765625 9.25359375 0.77765625 9.93359375 0.09765625 C12.55859375 -0.02734375 12.55859375 -0.02734375 14.93359375 0.09765625 C14.93359375 2.73765625 14.93359375 5.37765625 14.93359375 8.09765625 C13.81984375 8.22140625 12.70609375 8.34515625 11.55859375 8.47265625 C7.90255698 8.74423755 7.90255698 8.74423755 5.93359375 11.09765625 C5.52397779 13.41881336 5.20230826 15.75600126 4.93359375 18.09765625 C4.15581597 24.87543403 4.15581597 24.87543403 1.93359375 27.09765625 C-0.23046875 27.29296875 -0.23046875 27.29296875 -2.69140625 27.22265625 C-3.50867188 27.20460937 -4.3259375 27.1865625 -5.16796875 27.16796875 C-5.79445313 27.14476562 -6.4209375 27.1215625 -7.06640625 27.09765625 C-5.4481833 0.25747558 -5.4481833 0.25747558 0 0 Z " fill="#F0F0F0" transform="translate(336.06640625,196.90234375)"/>
<path d="M0 0 C2.97 0 5.94 0 9 0 C7.07289294 19.00455581 7.07289294 19.00455581 5 27 C1.7 27 -1.6 27 -5 27 C-4.00444555 20.43357705 -2.99454043 13.86932974 -1.9375 7.3125 C-1.78152344 6.33925781 -1.62554687 5.36601562 -1.46484375 4.36328125 C-1 2 -1 2 0 0 Z " fill="#E8E8E8" transform="translate(334,155)"/>
<path d="M0 0 C0.33 1.32 0.66 2.64 1 4 C1.66 4 2.32 4 3 4 C3.33 3.34 3.66 2.68 4 2 C4 3.65 4 5.3 4 7 C6.97 7 9.94 7 13 7 C12.34 7.66 11.68 8.32 11 9 C10.55011719 9.45632812 10.10023438 9.91265625 9.63671875 10.3828125 C8.43511674 11.57007559 7.20392273 12.72758114 5.95703125 13.8671875 C1.48481281 18.05429183 -0.98339956 20.90039737 -2 27 C-2.66 27 -3.32 27 -4 27 C-3.67 24.36 -3.34 21.72 -3 19 C-6.63 19 -10.26 19 -14 19 C-8.375 12.16964286 -8.375 12.16964286 -4.75 9.5 C-1.30144205 6.36494732 -0.87869036 4.48132085 0 0 Z " fill="#161616" transform="translate(371,155)"/>
<path d="M0 0 C7.59 0 15.18 0 23 0 C23 2.97 23 5.94 23 9 C28.445 9.495 28.445 9.495 34 10 C34.33 9.01 34.66 8.02 35 7 C36.65 7 38.3 7 40 7 C39.67 8.65 39.34 10.3 39 12 C38.09636719 12.10957031 37.19273437 12.21914062 36.26171875 12.33203125 C35.08222656 12.49058594 33.90273438 12.64914063 32.6875 12.8125 C31.51574219 12.96332031 30.34398437 13.11414063 29.13671875 13.26953125 C25.98000391 14.00465662 24.83672226 14.39797679 23 17 C22.27802838 19.60611077 22.27802838 19.60611077 22 22 C21.34 22 20.68 22 20 22 C19.67 22.99 19.34 23.98 19 25 C19 23.68 19 22.36 19 21 C15.37 21 11.74 21 8 21 C8 19 8 19 9.609375 17.37890625 C10.31578125 16.77949219 11.0221875 16.18007812 11.75 15.5625 C12.44609375 14.96566406 13.1421875 14.36882812 13.859375 13.75390625 C16 12 16 12 18.140625 10.77734375 C20.88951835 8.46623762 20.88951835 8.46623762 22 1 C14.74 1 7.48 1 0 1 C0 0.67 0 0.34 0 0 Z " fill="#212121" transform="translate(375,154)"/>
<path d="M0 0 C3.63 0 7.26 0 11 0 C11 0.66 11 1.32 11 2 C11.99 1.67 12.98 1.34 14 1 C14 3.31 14 5.62 14 8 C16.97 8 19.94 8 23 8 C23 8.66 23 9.32 23 10 C21.44684614 11.37248681 19.83114316 12.67478701 18.1875 13.9375 C11.92774865 18.34547073 11.92774865 18.34547073 9 25 C7.68 25.33 6.36 25.66 5 26 C5.97283638 17.5653016 6.93702433 9.2519027 9 1 C6.03 1 3.06 1 0 1 C0 0.67 0 0.34 0 0 Z " fill="#0E0E0E" transform="translate(334,154)"/>
<path d="M0 0 C2.5625 -0.25 2.5625 -0.25 5 0 C6.73219928 1.73219928 6.21291761 4.02026808 6.25 6.375 C6.28867187 7.84066406 6.28867187 7.84066406 6.328125 9.3359375 C6 12 6 12 4.6484375 13.86328125 C3 15 3 15 0.375 14.8125 C-2 14 -2 14 -3 12 C-2.94921875 9.94140625 -2.94921875 9.94140625 -2.6875 7.5625 C-2.60886719 6.78003906 -2.53023438 5.99757812 -2.44921875 5.19140625 C-2 3 -2 3 0 0 Z " fill="#1C1C1C" transform="translate(440,203)"/>
<path d="M0 0 C3.5625 0.1875 3.5625 0.1875 5.5625 2.1875 C5.6875 5.3125 5.6875 5.3125 5.5625 8.1875 C2.34798731 9.79475635 -0.87362536 9.24498185 -4.4375 9.1875 C-4.53515625 3.03515625 -4.53515625 3.03515625 -4.4375 1.1875 C-3.4375 0.1875 -3.4375 0.1875 0 0 Z " fill="#282828" transform="translate(314.4375,194.8125)"/>
<path d="M0 0 C0.33 0 0.66 0 1 0 C1.33 3.96 1.66 7.92 2 12 C1.01 12.33 0.02 12.66 -1 13 C-1 12.34 -1 11.68 -1 11 C-2.47968324 11.14049518 -3.95874516 11.28754826 -5.4375 11.4375 C-6.67306641 11.55931641 -6.67306641 11.55931641 -7.93359375 11.68359375 C-9.98662025 11.78930815 -9.98662025 11.78930815 -11 13 C-13.4375 13.1875 -13.4375 13.1875 -16 13 C-16.66 12.34 -17.32 11.68 -18 11 C-18 10.01 -18 9.02 -18 8 C-12.06 8 -6.12 8 0 8 C0 5.36 0 2.72 0 0 Z " fill="#2C2C2C" transform="translate(379,205)"/>
<path d="M0 0 C3.96 0.33 7.92 0.66 12 1 C11.67 3.64 11.34 6.28 11 9 C2.75 9 -5.5 9 -14 9 C-13.67 6.69 -13.34 4.38 -13 2 C-12.67 2 -12.34 2 -12 2 C-12 3.65 -12 5.3 -12 7 C-4.74 7 2.52 7 10 7 C10.33 5.35 10.66 3.7 11 2 C7.37 2 3.74 2 0 2 C0 1.34 0 0.68 0 0 Z " fill="#B0B0B0" transform="translate(356,173)"/>
<path d="M0 0 C1.47906892 -0.02689216 2.95827483 -0.04634621 4.4375 -0.0625 C5.26121094 -0.07410156 6.08492188 -0.08570313 6.93359375 -0.09765625 C9 0 9 0 10 1 C10.25 3.4375 10.25 3.4375 10 6 C6.3558226 8.4294516 4.28758728 8.16179575 0 8 C0 5.36 0 2.72 0 0 Z " fill="#161616" transform="translate(310,154)"/>
<path d="M0 0 C2.62113708 0 4.50935112 0.31292445 7 1 C6.67 2.32 6.34 3.64 6 5 C6 4.34 6 3.68 6 3 C5.2575 3.33 4.515 3.66 3.75 4 C1 5 1 5 -3 5 C-2.67 5.99 -2.34 6.98 -2 8 C-5.63 7.01 -9.26 6.02 -13 5 C-13 3.68 -13 2.36 -13 1 C-12.01 1.2165625 -12.01 1.2165625 -11 1.4375 C-7.34400449 2.12299916 -3.69377805 2.56175515 0 3 C0 2.01 0 1.02 0 0 Z " fill="#313131" transform="translate(406,201)"/>
<path d="M0 0 C1.23556641 0.01740234 1.23556641 0.01740234 2.49609375 0.03515625 C3.32238281 0.04417969 4.14867187 0.05320313 5 0.0625 C5.63808594 0.07410156 6.27617187 0.08570313 6.93359375 0.09765625 C6.60359375 2.40765625 6.27359375 4.71765625 5.93359375 7.09765625 C2.96359375 7.09765625 -0.00640625 7.09765625 -3.06640625 7.09765625 C-3.10894981 5.09810879 -3.10721408 3.09723989 -3.06640625 1.09765625 C-2.06640625 0.09765625 -2.06640625 0.09765625 0 0 Z " fill="#E7E7E7" transform="translate(338.06640625,144.90234375)"/>
<path d="M0 0 C3.63 0 7.26 0 11 0 C11 0.66 11 1.32 11 2 C11.99 1.67 12.98 1.34 14 1 C14 3.31 14 5.62 14 8 C16.97 8 19.94 8 23 8 C23 8.66 23 9.32 23 10 C19.7 9.67 16.4 9.34 13 9 C13 7.68 13 6.36 13 5 C10.65752556 5.87849194 10.65752556 5.87849194 10 8.9375 C9.67 9.948125 9.34 10.95875 9 12 C8.34 12.66 7.68 13.32 7 14 C7.14148989 12.3954444 7.28835686 10.79136233 7.4375 9.1875 C7.51871094 8.29417969 7.59992188 7.40085938 7.68359375 6.48046875 C8 4 8 4 9 1 C6.03 1 3.06 1 0 1 C0 0.67 0 0.34 0 0 Z " fill="#383838" transform="translate(334,154)"/>
<path d="M0 0 C0.33 0 0.66 0 1 0 C1.23268915 6.28260706 0.40454548 11.88019467 -1 18 C2.465 17.505 2.465 17.505 6 17 C6.66 13.37 7.32 9.74 8 6 C8.33 6 8.66 6 9 6 C9.28999065 14.55472404 9.28999065 14.55472404 7 19 C6 20 6 20 3.93359375 20.09765625 C3.10988281 20.08605469 2.28617187 20.07445312 1.4375 20.0625 C0.61121094 20.05347656 -0.21507812 20.04445312 -1.06640625 20.03515625 C-2.02353516 20.01775391 -2.02353516 20.01775391 -3 20 C-2.51358785 13.15182898 -1.64006048 6.66957927 0 0 Z " fill="#939393" transform="translate(332,204)"/>
<path d="M0 0 C0.33 0 0.66 0 1 0 C1.33 1.98 1.66 3.96 2 6 C3.65 4.68 5.3 3.36 7 2 C7.66 2.33 8.32 2.66 9 3 C8.01 3.7425 7.02 4.485 6 5.25 C3.61184392 7.57088408 3.03698348 8.71500969 2.6015625 12.0703125 C2.6228129 15.06661836 2.73921611 18.01547322 3 21 C-0.70944733 14.05065563 -1.3967086 7.68189733 0 0 Z " fill="#C6C6C6" transform="translate(227,97)"/>
<path d="M0 0 C0.33 0 0.66 0 1 0 C1 1.98 1 3.96 1 6 C1.66 6 2.32 6 3 6 C2.34 10.62 1.68 15.24 1 20 C0.67 20 0.34 20 0 20 C0 17.36 0 14.72 0 12 C-0.99 12.99 -1.98 13.98 -3 15 C-3.66 14.67 -4.32 14.34 -5 14 C-4.52949219 13.62230469 -4.05898438 13.24460938 -3.57421875 12.85546875 C-1.50320971 10.41445314 -1.29313284 8.45509934 -0.8125 5.3125 C-0.65394531 4.31863281 -0.49539063 3.32476562 -0.33203125 2.30078125 C-0.22246094 1.54152344 -0.11289062 0.78226563 0 0 Z " fill="#323232" transform="translate(330,153)"/>
<path d="M0 0 C2.5625 0.1875 2.5625 0.1875 4.5625 2.1875 C4.5625 3.1775 4.5625 4.1675 4.5625 5.1875 C1.5925 5.1875 -1.3775 5.1875 -4.4375 5.1875 C-3.20220588 0.24632353 -3.20220588 0.24632353 0 0 Z " fill="#353535" transform="translate(366.4375,202.8125)"/>
<path d="M0 0 C-0.6875 2.4375 -0.6875 2.4375 -2 5 C-4.625 5.8125 -4.625 5.8125 -7 6 C-7.33 4.35 -7.66 2.7 -8 1 C-5.07175348 0.02391783 -3.04386724 -0.08226668 0 0 Z " fill="#292929" transform="translate(414,171)"/>
<path d="M0 0 C0 1.32 0 2.64 0 4 C-1.65 4 -3.3 4 -5 4 C-5.33 3.01 -5.66 2.02 -6 1 C-8.97 1 -11.94 1 -15 1 C-15 0.67 -15 0.34 -15 0 C-9.62374766 -0.84888195 -5.34629602 -1.0024305 0 0 Z " fill="#2F2F2F" transform="translate(396,214)"/>
<path d="M0 0 C0.66 0.33 1.32 0.66 2 1 C-1.63 4.63 -5.26 8.26 -9 12 C-9.99 11.67 -10.98 11.34 -12 11 C-8.17426612 7.07503959 -4.38002676 3.31820209 0 0 Z " fill="#D4D4D4" transform="translate(241,50)"/>
<path d="M0 0 C0.33 0 0.66 0 1 0 C1 2.31 1 4.62 1 7 C1.66 7 2.32 7 3 7 C2.67 9.97 2.34 12.94 2 16 C1.34 15.01 0.68 14.02 0 13 C-0.66 13 -1.32 13 -2 13 C-1.34 8.71 -0.68 4.42 0 0 Z " fill="#323232" transform="translate(330,194)"/>
<path d="M0 0 C1.8871875 0.0309375 1.8871875 0.0309375 3.8125 0.0625 C3.8125 0.3925 3.8125 0.7225 3.8125 1.0625 C3.11382812 1.08828125 2.41515625 1.1140625 1.6953125 1.140625 C0.78523438 1.19734375 -0.12484375 1.2540625 -1.0625 1.3125 C-1.96742188 1.35890625 -2.87234375 1.4053125 -3.8046875 1.453125 C-6.35860544 1.81861148 -6.35860544 1.81861148 -7.5078125 4.109375 C-7.73210937 4.75390625 -7.95640625 5.3984375 -8.1875 6.0625 C-8.8475 6.0625 -9.5075 6.0625 -10.1875 6.0625 C-10.1875 8.0425 -10.1875 10.0225 -10.1875 12.0625 C-10.5175 12.0625 -10.8475 12.0625 -11.1875 12.0625 C-11.67665663 5.70346386 -11.67665663 5.70346386 -9.375 2.6875 C-6.24617286 0.36322841 -3.78855873 -0.06210752 0 0 Z " fill="#A9A9A9" transform="translate(408.1875,165.9375)"/>
<path d="M0 0 C1.37432457 3.81756824 0.67975039 7.07255329 0 11 C1.65 11 3.3 11 5 11 C4.67 11.66 4.34 12.32 4 13 C2.02 13 0.04 13 -2 13 C-1.85851011 11.3954444 -1.71164314 9.79136233 -1.5625 8.1875 C-1.48128906 7.29417969 -1.40007812 6.40085937 -1.31640625 5.48046875 C-1 3 -1 3 0 0 Z " fill="#575757" transform="translate(279,80)"/>
<path d="M0 0 C0.33 0 0.66 0 1 0 C1.02689216 1.47906892 1.04634621 2.95827483 1.0625 4.4375 C1.07410156 5.26121094 1.08570313 6.08492187 1.09765625 6.93359375 C1 9 1 9 0 10 C-0.2165625 11.7325 -0.2165625 11.7325 -0.4375 13.5 C-0.623125 14.655 -0.80875 15.81 -1 17 C-1.66 17.33 -2.32 17.66 -3 18 C-2.51679152 11.7945858 -1.66681876 6.00054754 0 0 Z " fill="#4D4D4D" transform="translate(269,126)"/>
<path d="M0 0 C2.62113708 0 4.50935112 0.31292445 7 1 C6.67 2.32 6.34 3.64 6 5 C6 4.34 6 3.68 6 3 C5.44828125 3.16371094 4.8965625 3.32742187 4.328125 3.49609375 C1.73385993 4.05760414 -0.59835411 4.09739008 -3.25 4.0625 C-4.14203125 4.05347656 -5.0340625 4.04445312 -5.953125 4.03515625 C-6.62859375 4.02355469 -7.3040625 4.01195312 -8 4 C-8 3.67 -8 3.34 -8 3 C-5.36 3 -2.72 3 0 3 C0 2.01 0 1.02 0 0 Z " fill="#5F5F5F" transform="translate(406,201)"/>
<path d="M0 0 C1.98 0 3.96 0 6 0 C6 1.98 6 3.96 6 6 C6.66 6.33 7.32 6.66 8 7 C7.34 7.66 6.68 8.32 6 9 C5.34 9 4.68 9 4 9 C4 6.36 4 3.72 4 1 C2.68 0.67 1.36 0.34 0 0 Z " fill="#474747" transform="translate(347,196)"/>
<path d="M0 0 C0.66 0 1.32 0 2 0 C0.84826645 2.46800047 -0.04783565 4.04783565 -2 6 C0.31 6.33 2.62 6.66 5 7 C5 7.33 5 7.66 5 8 C2.03 8 -0.94 8 -4 8 C-3.07689062 4.30756248 -2.45048444 2.74454257 0 0 Z " fill="#C1C1C1" transform="translate(404,156)"/>
<path d="M0 0 C0.66 0.33 1.32 0.66 2 1 C-0.97 3.64 -3.94 6.28 -7 9 C-7.66 8.67 -8.32 8.34 -9 8 C-6.03 5.36 -3.06 2.72 0 0 Z " fill="#252525" transform="translate(395,163)"/>
</svg>
