<?xml version="1.0" encoding="UTF-8"?>
<svg version="1.1" xmlns="http://www.w3.org/2000/svg" width="811" height="358">
<path d="M0 0 C267.63 0 535.26 0 811 0 C811 118.14 811 236.28 811 358 C543.37 358 275.74 358 0 358 C0 239.86 0 121.72 0 0 Z " fill="#030303" transform="translate(0,0)"/>
<path d="M0 0 C20.79 0 41.58 0 63 0 C63 8.25 63 16.5 63 25 C70.59 25 78.18 25 86 25 C86 39.52 86 54.04 86 69 C71.80543617 69.02254812 57.61088414 69.0409134 43.4163065 69.05181217 C36.82595215 69.05704172 30.23561063 69.06414067 23.64526367 69.07543945 C17.29107982 69.08626578 10.93690835 69.09227629 4.58271599 69.09487724 C2.15250389 69.09673195 -0.27770749 69.10035343 -2.70791435 69.10573006 C-6.09882981 69.11293711 -9.48969341 69.11399108 -12.88061523 69.11352539 C-13.89625046 69.11712067 -14.91188568 69.12071594 -15.95829773 69.12442017 C-16.87681519 69.1230455 -17.79533264 69.12167084 -18.74168396 69.12025452 C-19.54456565 69.12117631 -20.34744734 69.1220981 -21.17465878 69.12304783 C-23 69 -23 69 -24 68 C-24.09268999 66.64905018 -24.11747326 65.29332909 -24.11352539 63.93920898 C-24.11344986 63.07839218 -24.11337433 62.21757538 -24.11329651 61.33067322 C-24.10813522 60.39526199 -24.10297394 59.45985077 -24.09765625 58.49609375 C-24.0962413 57.54307877 -24.09482635 56.59006378 -24.09336853 55.60816956 C-24.08775152 52.55124835 -24.07519616 49.49439923 -24.0625 46.4375 C-24.05748719 44.37044376 -24.05292391 42.30338638 -24.04882812 40.23632812 C-24.03862558 35.15750167 -24.01905356 30.07883194 -24 25 C-16.08 25 -8.16 25 0 25 C0 16.75 0 8.5 0 0 Z " fill="#F4F4F4" transform="translate(232,154)"/>
<path d="M0 0 C35.97 0 71.94 0 109 0 C109 14.19 109 28.38 109 43 C101.74 43 94.48 43 87 43 C86.01 39.04 86.01 39.04 85 35 C82.06541039 28.46657246 78.17702418 25.02340572 71.78741455 22.00820923 C67.18613507 20.34392415 62.81318619 20.27297863 57.9609375 20.29296875 C56.45063461 20.27028679 56.45063461 20.27028679 54.90982056 20.24714661 C51.73131392 20.20456615 48.55376236 20.19546017 45.375 20.1875 C43.20440221 20.1643327 41.03382676 20.13896276 38.86328125 20.11132812 C33.57501223 20.04466927 28.28933945 20.02340416 23 20 C23 27.59 23 35.18 23 43 C15.41 43 7.82 43 0 43 C0 28.81 0 14.62 0 0 Z " fill="#F9F9F9" transform="translate(209,110)"/>
<path d="M0 0 C7.92 -0.185625 7.92 -0.185625 16 -0.375 C18.475 -0.45693604 18.475 -0.45693604 21 -0.54052734 C28.20992968 -0.6790041 34.05306521 -0.74115356 39.61572266 4.46875 C40.30093994 5.22671875 40.30093994 5.22671875 41 6 C41.78375 6.78375 42.5675 7.5675 43.375 8.375 C48.16342108 16.11014175 48.30061571 27.18471577 47 36 C44.32701471 43.28589636 39.88845533 47.73823372 33.2734375 51.5859375 C27.26028014 54.12213653 20.45337998 53.30785489 14.0625 53.1875 C9.421875 53.125625 4.78125 53.06375 0 53 C0 35.51 0 18.02 0 0 Z " fill="#F5F5F5" transform="translate(369,140)"/>
<path d="M0 0 C1.22644557 0.00138269 1.22644557 0.00138269 2.47766781 0.00279331 C3.88068645 0.00073132 3.88068645 0.00073132 5.31204891 -0.00137234 C6.34638561 0.00222294 7.38072231 0.00581821 8.44640255 0.00952244 C9.52919491 0.00937641 10.61198727 0.00923038 11.72759151 0.00907993 C15.32585778 0.0097796 18.92407301 0.0175745 22.52233028 0.02539158 C25.00954822 0.02725557 27.49676652 0.02867956 29.98398495 0.0296793 C35.87363594 0.03311433 41.76326794 0.04100506 47.65291113 0.05102879 C55.01367777 0.06328536 62.37444668 0.06866992 69.73522091 0.0742197 C82.87129985 0.08495968 96.00735668 0.10255769 109.14342403 0.12304783 C109.14342403 14.97304783 109.14342403 29.82304783 109.14342403 45.12304783 C72.18342403 45.12304783 35.22342403 45.12304783 -2.85657597 45.12304783 C-2.85657597 0.18932458 -2.85657597 0.18932458 0 0 Z M-1.85657597 1.12304783 C-1.85657597 15.31304783 -1.85657597 29.50304783 -1.85657597 44.12304783 C5.73342403 44.12304783 13.32342403 44.12304783 21.14342403 44.12304783 C21.14342403 36.53304783 21.14342403 28.94304783 21.14342403 21.12304783 C27.51297311 21.15123167 33.87883192 21.19455295 40.24742794 21.27563572 C42.4101126 21.29871856 44.57290813 21.31318844 46.73570919 21.31860447 C49.85928827 21.32796513 52.98114681 21.36911166 56.10436153 21.41601658 C57.05894253 21.41208393 58.01352352 21.40815128 58.99703121 21.40409946 C65.89677413 21.5513853 71.43046475 23.14747533 77.14342403 27.12304783 C82.02162447 32.61553932 83.30293475 36.76109069 85.14342403 44.12304783 C92.40342403 44.12304783 99.66342403 44.12304783 107.14342403 44.12304783 C107.14342403 29.93304783 107.14342403 15.74304783 107.14342403 1.12304783 C71.17342403 1.12304783 35.20342403 1.12304783 -1.85657597 1.12304783 Z " fill="#191919" transform="translate(210.85657596588135,108.87695217132568)"/>
<path d="M0 0 C20.79 0 41.58 0 63 0 C63 8.25 63 16.5 63 25 C42.21 25 21.42 25 0 25 C0 16.75 0 8.5 0 0 Z " fill="#FAFAFA" transform="translate(232,154)"/>
<path d="M0 0 C4.02544096 2.74461884 8.12382501 6.32052281 9.15234375 11.25 C9.15625 13.171875 9.15625 13.171875 8.71875 16.171875 C4.75875 16.171875 0.79875 16.171875 -3.28125 16.171875 C-3.735 15.0375 -4.18875 13.903125 -4.65625 12.734375 C-5.85220806 9.12465808 -5.85220806 9.12465808 -8.28125 8.171875 C-9.94470582 8.05104966 -11.61345591 7.9964956 -13.28125 7.984375 C-14.168125 7.97019531 -15.055 7.95601562 -15.96875 7.94140625 C-18.47644984 7.94474374 -18.47644984 7.94474374 -20.28125 10.171875 C-20.44806109 13.25535326 -20.44806109 13.25535326 -20.28125 16.171875 C-16.38756152 18.44319328 -12.8164673 19.56992813 -8.40625 20.546875 C-1.18845896 22.25729447 4.97381724 25.32489334 9.71875 31.171875 C10.65058699 36.14595658 10.90743782 41.71993224 8.66015625 46.35546875 C7.34375 47.984375 7.34375 47.984375 4.71875 50.171875 C4.05875 50.171875 3.39875 50.171875 2.71875 50.171875 C2.71875 50.831875 2.71875 51.491875 2.71875 52.171875 C-5.78849816 54.98502877 -16.48058384 56.19686416 -25.08984375 53.19140625 C-27.04634928 51.98939434 -28.63592618 50.7670643 -30.28125 49.171875 C-31.4878125 48.12 -31.4878125 48.12 -32.71875 47.046875 C-35.78691684 43.3650748 -35.36786071 39.76224271 -35.28125 35.171875 C-31.32125 35.171875 -27.36125 35.171875 -23.28125 35.171875 C-22.29125 38.141875 -21.30125 41.111875 -20.28125 44.171875 C-17.65563891 44.25261703 -15.03249324 44.3122373 -12.40625 44.359375 C-11.65988281 44.38451172 -10.91351563 44.40964844 -10.14453125 44.43554688 C-7.71903172 44.5017514 -7.71903172 44.5017514 -4.28125 44.171875 C-1.99111347 40.7366702 -2.10282027 39.186544 -2.28125 35.171875 C-5.46097519 33.77120273 -8.66052818 32.75618667 -12.00390625 31.83984375 C-12.87208984 31.59814453 -13.74027344 31.35644531 -14.63476562 31.10742188 C-16.44141714 30.60854118 -18.2513938 30.12155017 -20.06445312 29.64648438 C-25.23246883 28.18253346 -28.48428796 27.09230963 -31.28125 22.171875 C-31.28125 21.511875 -31.28125 20.851875 -31.28125 20.171875 C-31.94125 20.171875 -32.60125 20.171875 -33.28125 20.171875 C-34.14143547 8.35866124 -34.14143547 8.35866124 -31.21875 4.671875 C-22.51841642 -2.73266422 -10.91860105 -5.07619172 0 0 Z " fill="#ECECEC" transform="translate(502.28125,139.828125)"/>
<path d="M0 0 C4.29 0 8.58 0 13 0 C13.5775 1.485 14.155 2.97 14.75 4.5 C16.00051107 7.65041034 17.30654682 10.65599951 18.9375 13.625 C21.38873162 18.32400133 22.77066251 23.38458292 24.24975586 28.45361328 C25.20935539 31.69795507 26.10686476 34.16029714 28 37 C28.4140625 39.26171875 28.4140625 39.26171875 28.625 41.6875 C28.69976562 42.49574219 28.77453125 43.30398437 28.8515625 44.13671875 C28.90054688 44.75160156 28.94953125 45.36648437 29 46 C29.66 46 30.32 46 31 46 C31.495 49.96 31.495 49.96 32 54 C28.37 54 24.74 54 21 54 C19.34637947 50.26137967 17.99575243 46.98300973 17 43 C10.07 43 3.14 43 -4 43 C-4.99 46.63 -5.98 50.26 -7 54 C-10.96 54 -14.92 54 -19 54 C-18.36914714 49.40879309 -17.19017939 45.29628746 -15.625 40.9375 C-15.20476562 39.75027344 -14.78453125 38.56304687 -14.3515625 37.33984375 C-13 34 -13 34 -11.5234375 31.65625 C-9.33026193 27.83225157 -8.24529468 23.77509842 -7 19.5625 C-5.37319524 14.08474335 -3.63983226 9.09217643 -1 4 C-0.67 2.68 -0.34 1.36 0 0 Z " fill="#EFEFEF" transform="translate(434,139)"/>
<path d="M0 0 C3.63 0 7.26 0 11 0 C11 6.6 11 13.2 11 20 C18.59 20 26.18 20 34 20 C34 13.4 34 6.8 34 0 C37.63 0 41.26 0 45 0 C45 17.49 45 34.98 45 53 C41.37 53 37.74 53 34 53 C34 45.41 34 37.82 34 30 C26.41 30 18.82 30 11 30 C11 37.59 11 45.18 11 53 C7.37 53 3.74 53 0 53 C0 35.51 0 18.02 0 0 Z " fill="#F8F8F8" transform="translate(517,140)"/>
<path d="M0 0 C20.79 0 41.58 0 63 0 C63 7.31452659 62.27561401 10.37741452 58 16 C53.4777002 20.14183864 49.581973 23.12979574 43.36669922 23.11352539 C42.40585419 23.11344986 41.44500916 23.11337433 40.45504761 23.11329651 C39.41542877 23.10813522 38.37580994 23.10297394 37.3046875 23.09765625 C36.24210724 23.0962413 35.17952698 23.09482635 34.08474731 23.09336853 C30.68146991 23.08775834 27.27825762 23.07520409 23.875 23.0625 C21.57161553 23.05748631 19.26823003 23.05292318 16.96484375 23.04882812 C11.30985039 23.03863527 5.65499833 23.01906179 0 23 C0 15.41 0 7.82 0 0 Z " fill="#070707" transform="translate(232,179)"/>
<path d="M0 0 C15.77142857 0 15.77142857 0 20 4 C20.8971875 4.7734375 20.8971875 4.7734375 21.8125 5.5625 C25.17286144 9.63030595 24.38478971 15.50294565 24.34375 20.46875 C23.86492814 25.38755639 22.4461484 28.48935149 19 32 C13.03880399 36.7689568 8.35366481 35 0 35 C0 23.45 0 11.9 0 0 Z " fill="#040404" transform="translate(380,149)"/>
<path d="M0 0 C1.093125 0.00257813 2.18625 0.00515625 3.3125 0.0078125 C4.405625 0.00523437 5.49875 0.00265625 6.625 0 C9.3125 0.1328125 9.3125 0.1328125 10.3125 1.1328125 C10.40603163 2.82083235 10.42994791 4.51276457 10.42602539 6.20336914 C10.42594986 7.28441422 10.42587433 8.36545929 10.42579651 9.47926331 C10.42063522 10.6552861 10.41547394 11.8313089 10.41015625 13.04296875 C10.4087413 14.24014023 10.40732635 15.43731171 10.40586853 16.67076111 C10.40024979 20.51230316 10.38769411 24.35378793 10.375 28.1953125 C10.36998741 30.79231687 10.36542409 33.38932215 10.36132812 35.98632812 C10.35027427 42.36850929 10.33351792 48.7506568 10.3125 55.1328125 C9.6525 55.1328125 8.9925 55.1328125 8.3125 55.1328125 C8.3125 37.6428125 8.3125 20.1528125 8.3125 2.1328125 C4.6825 2.1328125 1.0525 2.1328125 -2.6875 2.1328125 C-2.6875 8.7328125 -2.6875 15.3328125 -2.6875 22.1328125 C-10.2775 22.1328125 -17.8675 22.1328125 -25.6875 22.1328125 C-25.6875 15.5328125 -25.6875 8.9328125 -25.6875 2.1328125 C-29.3175 2.1328125 -32.9475 2.1328125 -36.6875 2.1328125 C-36.6875 19.6228125 -36.6875 37.1128125 -36.6875 55.1328125 C-37.0175 55.1328125 -37.3475 55.1328125 -37.6875 55.1328125 C-37.6875 37.3128125 -37.6875 19.4928125 -37.6875 1.1328125 C-33.3975 1.1328125 -29.1075 1.1328125 -24.6875 1.1328125 C-24.6875 7.7328125 -24.6875 14.3328125 -24.6875 21.1328125 C-17.7575 21.1328125 -10.8275 21.1328125 -3.6875 21.1328125 C-3.72708259 14.595784 -3.72708259 14.595784 -3.77758789 8.05883789 C-3.78008545 7.24922607 -3.78258301 6.43961426 -3.78515625 5.60546875 C-3.79039307 4.77281494 -3.79562988 3.94016113 -3.80102539 3.08227539 C-3.62166714 0.00232771 -3.10823868 0.15360482 0 0 Z " fill="#585858" transform="translate(553.6875,137.8671875)"/>
<path d="M0 0 C0.66 0 1.32 0 2 0 C2.67736481 2.03814233 3.34143534 4.08070555 4 6.125 C4.37125 7.26195312 4.7425 8.39890625 5.125 9.5703125 C5.96911949 12.87895941 6.16509276 15.60528016 6 19 C2.37 19 -1.26 19 -5 19 C-4.48378772 12.16018724 -2.51409031 6.36123316 0 0 Z " fill="#1C1C1C" transform="translate(440,153)"/>
<path d="M0 0 C14 0 14 0 18 3 C12.72 2.67 7.44 2.34 2 2 C2 12.23 2 22.46 2 33 C9.92 32.505 9.92 32.505 18 32 C10.94657105 36.70228597 11.95966345 35 0 35 C0 23.45 0 11.9 0 0 Z " fill="#505050" transform="translate(380,149)"/>
</svg>
